<svg width="11" height="10" viewBox="0 0 11 10" fill="none" xmlns="http://www.w3.org/2000/svg">
<path fill-rule="evenodd" clip-rule="evenodd" d="M5.5 0C6.16304 0 6.79893 0.263392 7.26777 0.732233C7.73661 1.20107 8 1.83696 8 2.5V3.78125C8.35293 3.85329 8.67012 4.04506 8.89791 4.32409C9.12569 4.60313 9.25007 4.9523 9.25 5.3125V8.4375C9.25 8.8519 9.08538 9.24933 8.79235 9.54235C8.49933 9.83538 8.1019 10 7.6875 10H3.3125C2.8981 10 2.50067 9.83538 2.20765 9.54235C1.91462 9.24933 1.75 8.8519 1.75 8.4375V5.3125C1.74993 4.9523 1.87431 4.60313 2.10209 4.32409C2.32988 4.04506 2.64707 3.85329 3 3.78125V2.5C3 1.83696 3.26339 1.20107 3.73223 0.732233C4.20107 0.263392 4.83696 0 5.5 0ZM5.5 0.625C5.00272 0.625 4.52581 0.822544 4.17417 1.17417C3.82254 1.52581 3.625 2.00272 3.625 2.5V3.75H7.375V2.5C7.375 2.00272 7.17746 1.52581 6.82583 1.17417C6.47419 0.822544 5.99728 0.625 5.5 0.625Z" fill="#1E1E1E"/>
</svg>
