<svg width="46" height="46" viewBox="0 0 46 46" fill="none" xmlns="http://www.w3.org/2000/svg">
<rect x="0.596058" y="0.677357" width="44.1159" height="44.1159" stroke="#484848" stroke-width="0.707741"/>
<path d="M22.6541 22.7353C20.5997 22.7353 18.841 22.0038 17.378 20.5408C15.915 19.0778 15.1835 17.3191 15.1835 15.2647C15.1835 13.2103 15.915 11.4516 17.378 9.98856C18.841 8.52556 20.5997 7.79407 22.6541 7.79407C24.7085 7.79407 26.4672 8.52556 27.9302 9.98856C29.3932 11.4516 30.1247 13.2103 30.1247 15.2647C30.1247 17.3191 29.3932 19.0778 27.9302 20.5408C26.4672 22.0038 24.7085 22.7353 22.6541 22.7353ZM7.71289 33.9412V32.4471C7.71289 31.3887 7.98557 30.4163 8.53092 29.5298C9.07628 28.6433 9.79968 27.9659 10.7011 27.4978C12.631 26.5328 14.5921 25.8094 16.5842 25.3276C18.5764 24.8457 20.5997 24.6042 22.6541 24.6029C24.7085 24.6017 26.7318 24.8432 28.724 25.3276C30.7161 25.8119 32.6772 26.5353 34.6071 27.4978C35.5098 27.9647 36.2338 28.642 36.7791 29.5298C37.3245 30.4175 37.5965 31.39 37.5953 32.4471V33.9412C37.5953 34.9684 37.2299 35.848 36.499 36.5802C35.7681 37.3123 34.8885 37.6777 33.86 37.6765H11.4482C10.421 37.6765 9.54194 37.311 8.81107 36.5802C8.08019 35.8493 7.71414 34.9696 7.71289 33.9412Z" fill="#484848"/>
</svg>
