<svg width="24" height="24" viewBox="0 0 24 24" fill="none" xmlns="http://www.w3.org/2000/svg">
<path fill-rule="evenodd" clip-rule="evenodd" d="M10.674 21.6444V4.55956C10.5767 4.47543 10.4756 4.39046 10.3708 4.30505C8.91552 3.11864 6.72255 1.82946 3.79506 1.44759C2.33187 1.25673 1.22754 2.47178 1.22754 3.79965V15.2996C1.22754 16.6848 2.34187 17.7005 3.58257 17.8624C6.13329 18.195 8.04896 19.3174 9.33276 20.3641C9.91209 20.8364 10.3594 21.2907 10.674 21.6444ZM13.1383 4.55956V21.6444C13.4528 21.2907 13.9001 20.8364 14.4795 20.3641C15.7633 19.3174 17.6789 18.195 20.2296 17.8624C21.4703 17.7005 22.5847 16.6848 22.5847 15.2996V3.79965C22.5847 2.47178 21.4804 1.25673 20.0172 1.44759C17.0897 1.82946 14.8967 3.11864 13.4414 4.30505C13.3366 4.39046 13.2356 4.47543 13.1383 4.55956Z" fill="#979FA7"/>
</svg>
