<svg xmlns="http://www.w3.org/2000/svg" width="24" height="24" viewBox="0 0 24 24" fill="none">
  <g clip-path="url(#clip0_1893_8381)">
    <path fill-rule="evenodd" clip-rule="evenodd" d="M11.1144 22.1046V5.01976C11.0171 4.93563 10.916 4.85066 10.8112 4.76525C9.35595 3.57884 7.16298 2.28967 4.23549 1.9078C2.7723 1.71693 1.66797 2.93199 1.66797 4.25986V15.7598C1.66797 17.145 2.7823 18.1607 4.023 18.3226C6.57372 18.6552 8.48939 19.7776 9.77319 20.8243C10.3525 21.2966 10.7999 21.7509 11.1144 22.1046ZM13.5787 5.01976V22.1046C13.8932 21.7509 14.3406 21.2966 14.9199 20.8243C16.2037 19.7776 18.1194 18.6552 20.6701 18.3226C21.9108 18.1607 23.0251 17.145 23.0251 15.7598V4.25986C23.0251 2.93199 21.9208 1.71693 20.4577 1.9078C17.5301 2.28967 15.3371 3.57884 13.8818 4.76525C13.777 4.85066 13.676 4.93563 13.5787 5.01976Z" fill="#437EFC"/>
  </g>
  <defs>
    <clipPath id="clip0_1893_8381">
      <rect width="23" height="23" fill="white" transform="translate(0.847656 0.973877)"/>
    </clipPath>
  </defs>
</svg>