<svg width="34" height="34" viewBox="0 0 34 34" fill="none" xmlns="http://www.w3.org/2000/svg">
<circle cx="17.1666" cy="17.3336" r="16.6666" fill="#D9D9D9"/>
<path d="M20.0842 8.58398C20.5747 8.58383 21.0472 8.7691 21.4069 9.10266C21.7666 9.43622 21.987 9.89342 22.0238 10.3826L22.0286 10.5284C22.0287 10.7666 22.1161 10.9964 22.2743 11.1743C22.4326 11.3523 22.6506 11.466 22.8871 11.4938L23.0009 11.5006H23.9731C24.717 11.5006 25.4329 11.7849 25.9742 12.2952C26.5154 12.8056 26.8412 13.5035 26.8849 14.2462L26.8897 14.4173V23.1673C26.8898 23.9113 26.6055 24.6271 26.0952 25.1684C25.5848 25.7097 24.8869 26.0355 24.1442 26.0791L23.9731 26.084H10.362C9.61802 26.084 8.90217 25.7998 8.36089 25.2894C7.81961 24.779 7.49382 24.0811 7.45017 23.3384L7.44531 23.1673V14.4173C7.44527 13.6734 7.72952 12.9575 8.23989 12.4162C8.75027 11.8749 9.44819 11.5492 10.1909 11.5055L10.362 11.5006H11.3342C11.592 11.5006 11.8393 11.3982 12.0217 11.2159C12.204 11.0336 12.3064 10.7863 12.3064 10.5284C12.3063 10.0379 12.4915 9.56538 12.8251 9.20567C13.1587 8.84597 13.6158 8.62564 14.105 8.58885L14.2509 8.58398H20.0842ZM17.1675 15.3895C16.4448 15.3895 15.7477 15.6578 15.2115 16.1424C14.6754 16.627 14.3382 17.2935 14.2654 18.0126L14.2547 18.1604L14.2509 18.3062L14.2547 18.452C14.2833 19.022 14.4784 19.571 14.8159 20.0312C15.1534 20.4913 15.6185 20.8424 16.1535 21.0408C16.6886 21.2393 17.2701 21.2764 17.826 21.1476C18.3819 21.0188 18.8879 20.7298 19.2812 20.3163C19.6745 19.9028 19.9378 19.383 20.0386 18.8213C20.1394 18.2596 20.0732 17.6807 19.8482 17.1563C19.6232 16.6318 19.2493 16.1849 18.7728 15.8709C18.2963 15.5568 17.7382 15.3895 17.1675 15.3895Z" fill="#454545"/>
</svg>
