<svg width="15" height="19" viewBox="0 0 15 19" fill="none" xmlns="http://www.w3.org/2000/svg">
<path d="M13.125 6.33333H12.1875V4.52381C12.1875 2.02667 10.0875 0 7.5 0C4.9125 0 2.8125 2.02667 2.8125 4.52381V6.33333H1.875C0.84375 6.33333 0 7.14762 0 8.14286V17.1905C0 18.1857 0.84375 19 1.875 19H13.125C14.1562 19 15 18.1857 15 17.1905V8.14286C15 7.14762 14.1562 6.33333 13.125 6.33333ZM7.5 14.4762C6.46875 14.4762 5.625 13.6619 5.625 12.6667C5.625 11.6714 6.46875 10.8571 7.5 10.8571C8.53125 10.8571 9.375 11.6714 9.375 12.6667C9.375 13.6619 8.53125 14.4762 7.5 14.4762ZM4.6875 6.33333V4.52381C4.6875 3.0219 5.94375 1.80952 7.5 1.80952C9.05625 1.80952 10.3125 3.0219 10.3125 4.52381V6.33333H4.6875Z" fill="#686868"/>
</svg>
