<svg xmlns="http://www.w3.org/2000/svg" width="24" height="24" viewBox="0 0 24 24" fill="none">
  <g clip-path="url(#clip0_1703_2889)">
    <path d="M20.6758 1.33594C22.0367 1.33594 23.1406 2.43979 23.1406 3.80078V8.19531C23.1406 14.7539 18.9437 20.5773 12.7217 22.6514C12.5531 22.7075 12.3707 22.7075 12.2021 22.6514C5.98012 20.5773 1.7832 14.7539 1.7832 8.19531V3.80078C1.7832 2.43979 2.88705 1.33594 4.24805 1.33594H20.6758ZM12.4658 15.8672C11.6534 15.8672 10.9943 16.5265 10.9941 17.3389C10.9941 18.1514 11.6533 18.8115 12.4658 18.8115C13.2781 18.8113 13.9365 18.1512 13.9365 17.3389C13.9364 16.5266 13.278 15.8675 12.4658 15.8672ZM12.4658 4.12109C11.6533 4.12109 10.9941 4.78026 10.9941 5.59277V12.3955C10.9941 13.208 11.6533 13.8672 12.4658 13.8672C13.2781 13.8669 13.9365 13.2079 13.9365 12.3955V5.59277C13.9365 4.78042 13.2781 4.12136 12.4658 4.12109Z" fill="#437EFC"/>
  </g>
  <defs>
    <clipPath id="clip0_1703_2889">
      <rect width="23" height="23" fill="white" transform="translate(0.962891 0.513672)"/>
    </clipPath>
  </defs>
</svg>