<svg xmlns="http://www.w3.org/2000/svg" width="165" height="165" viewBox="0 0 165 165" fill="none">
  <g filter="url(#filter0_d_1614_17073)">
    <path d="M123.789 140.59C125.902 140.59 127.615 142.303 127.615 144.416V147.553C127.615 149.666 125.902 151.379 123.789 151.379H40.4473C38.3343 151.379 36.6212 149.666 36.6211 147.553V144.416C36.6211 142.303 38.3342 140.59 40.4473 140.59H123.789ZM98.4375 71.8691C100.123 71.8691 101.61 72.9719 102.099 74.585L117.047 123.898C117.536 125.511 119.024 126.614 120.709 126.614H124.48C126.593 126.614 128.307 128.327 128.307 130.44V133.053C128.307 135.166 126.593 136.879 124.48 136.879H39.749C37.6361 136.879 35.9238 135.166 35.9238 133.053V130.44C35.9238 128.327 37.6361 126.614 39.749 126.614H43.5215C45.2068 126.614 46.6936 125.511 47.1826 123.898L62.1309 74.585C62.6198 72.9719 64.1065 71.8692 65.792 71.8691H98.4375ZM33.8086 90.6875C35.9214 90.6877 37.6338 92.4008 37.6338 94.5137V97.126C37.6338 99.2389 35.9214 100.952 33.8086 100.952H10.666C8.55298 100.952 6.83984 99.239 6.83984 97.126V94.5137C6.83984 92.4006 8.55298 90.6875 10.666 90.6875H33.8086ZM153.563 90.6875C155.677 90.6875 157.39 92.4006 157.39 94.5137V97.126C157.39 99.239 155.677 100.952 153.563 100.952H130.422C128.309 100.952 126.596 99.239 126.596 97.126V94.5137C126.596 92.4006 128.309 90.6875 130.422 90.6875H153.563ZM29.8066 41.7168C31.2966 40.2268 33.7112 40.2219 35.207 41.7061L51.6729 58.043C53.177 59.5354 53.1819 61.9666 51.6836 63.4648L49.7598 65.3887C48.2615 66.887 45.8303 66.8821 44.3379 65.3779L28.001 48.9121C26.5168 47.4163 26.5217 45.0017 28.0117 43.5117L29.8066 41.7168ZM129.022 41.7061C130.518 40.222 132.933 40.226 134.423 41.7158L136.219 43.5117C137.709 45.0016 137.713 47.4163 136.229 48.9121L119.892 65.3779C118.399 66.8821 115.968 66.887 114.47 65.3887L112.546 63.4648C111.048 61.9666 111.052 59.5354 112.557 58.043L129.022 41.7061ZM83.4209 20.5449C85.5339 20.5449 87.2471 22.2581 87.2471 24.3711V47.5137C87.2468 49.6265 85.5338 51.3389 83.4209 51.3389H80.8086C78.6957 51.3389 76.9827 49.6265 76.9824 47.5137V24.3711C76.9824 22.2581 78.6956 20.5449 80.8086 20.5449H83.4209Z" fill="url(#paint0_linear_1614_17073)" fill-opacity="0.36" shape-rendering="crispEdges"/>
  </g>
  <defs>
    <filter id="filter0_d_1614_17073" x="3.83984" y="17.5449" width="156.55" height="136.834" filterUnits="userSpaceOnUse" color-interpolation-filters="sRGB">
      <feFlood flood-opacity="0" result="BackgroundImageFix"/>
      <feColorMatrix in="SourceAlpha" type="matrix" values="0 0 0 0 0 0 0 0 0 0 0 0 0 0 0 0 0 0 127 0" result="hardAlpha"/>
      <feOffset/>
      <feGaussianBlur stdDeviation="1.5"/>
      <feComposite in2="hardAlpha" operator="out"/>
      <feColorMatrix type="matrix" values="0 0 0 0 0 0 0 0 0 0 0 0 0 0 0 0 0 0 0.2 0"/>
      <feBlend mode="normal" in2="BackgroundImageFix" result="effect1_dropShadow_1614_17073"/>
      <feBlend mode="normal" in="SourceGraphic" in2="effect1_dropShadow_1614_17073" result="shape"/>
    </filter>
    <linearGradient id="paint0_linear_1614_17073" x1="143.639" y1="110.238" x2="21.5886" y2="66.0259" gradientUnits="userSpaceOnUse">
      <stop stop-color="white"/>
      <stop offset="1" stop-color="white" stop-opacity="0.38"/>
    </linearGradient>
  </defs>
</svg>