<svg width="28" height="29" viewBox="0 0 28 29" fill="none" xmlns="http://www.w3.org/2000/svg">
<g clip-path="url(#clip0_3861_12197)">
<path d="M17.8222 16.8689C16.9344 17.3206 16.5305 18.1762 16.5305 19.1348V22.6504C16.5305 22.9075 16.545 23.1485 16.578 23.3731H7.35081C6.30588 23.3731 5.68088 22.8848 5.68088 22.0742C5.68088 19.5547 8.83518 16.0782 13.8938 16.0782C15.3802 16.0782 16.702 16.3772 17.8222 16.8689ZM17.8098 10.0137C17.8098 12.4551 15.9934 14.3301 13.9035 14.3301C11.8039 14.3301 9.99729 12.4551 9.99729 10.0332C9.99729 7.64062 11.8137 5.81445 13.9035 5.81445C15.9934 5.81445 17.8098 7.60156 17.8098 10.0137Z" fill="#437EFC"/>
<path d="M22.5559 16.9073C23.1125 17.1026 24.9192 17.7472 25.4953 17.9815C26.0715 18.2257 26.2864 18.5968 26.2864 19.1632V22.6788C26.2864 24.5538 25.1828 25.2276 22.5266 26.7901C22.2239 26.9659 21.8528 26.9269 21.6184 26.7901C18.9621 25.2276 17.8586 24.5538 17.8586 22.6788V19.1632C17.8586 18.5968 18.0832 18.2257 18.6594 17.9815C19.2258 17.7472 21.0324 17.1222 21.511 16.9464C21.8723 16.7999 22.2336 16.7999 22.5559 16.9073ZM21.2571 24.212C21.2571 24.671 21.6282 25.0421 22.0774 25.0421C22.5364 25.0421 22.8977 24.671 22.9074 24.212C22.9074 23.7726 22.5364 23.3917 22.0774 23.3917C21.6282 23.3917 21.2571 23.7726 21.2571 24.212ZM21.4133 19.3585L21.4914 22.1417C21.5012 22.4835 21.7356 22.7179 22.0774 22.7179C22.4192 22.7179 22.6633 22.4835 22.6731 22.1417L22.7512 19.3585C22.761 18.9581 22.4875 18.6847 22.0774 18.6847C21.6672 18.6847 21.4035 18.9581 21.4133 19.3585Z" fill="#437EFC"/>
</g>
<defs>
<clipPath id="clip0_3861_12197">
<rect width="27.0898" height="27.2393" fill="white" transform="translate(0.534393 0.978516)"/>
</clipPath>
</defs>
</svg>
