<svg width="24" height="24" viewBox="0 0 24 24" fill="none" xmlns="http://www.w3.org/2000/svg">
<g clip-path="url(#clip0_1325_4581)">
<path fill-rule="evenodd" clip-rule="evenodd" d="M11.8501 1.55185C12.1641 1.26397 12.6461 1.26397 12.9602 1.55185L22.2846 10.0992C22.7937 10.566 23.0837 11.225 23.0837 11.9158V20.2287C23.0837 21.5898 21.9804 22.693 20.6194 22.693H14.048V16.9431C14.048 16.0357 13.3125 15.3002 12.4051 15.3002C11.4978 15.3002 10.7623 16.0357 10.7623 16.9431V22.693H4.19085C2.82986 22.693 1.72656 21.5898 1.72656 20.2287V11.9158C1.72656 11.225 2.01648 10.566 2.52567 10.0992L11.8501 1.55185Z" fill="#437EFC"/>
</g>
<defs>
<clipPath id="clip0_1325_4581">
<rect width="23" height="23" fill="white" transform="translate(0.90625 0.513672)"/>
</clipPath>
</defs>
</svg>
