<svg xmlns="http://www.w3.org/2000/svg" width="95" height="91" viewBox="0 0 95 91" fill="none">
  <path fill-rule="evenodd" clip-rule="evenodd" d="M71.9425 17.877V36.6285H80.9253V17.877L88.1115 25.0632L94.3994 18.663L76.4339 0.69751L58.4684 18.663L64.8686 24.9509L71.9425 17.877ZM9.06331 9.68026H51.019C50.026 12.4899 49.4857 15.5133 49.4857 18.663C49.4857 33.5461 61.5509 45.6113 76.4339 45.6113C77.9641 45.6113 79.4647 45.4837 80.9253 45.2385V81.5422C80.9253 86.5034 76.9037 90.525 71.9425 90.525H9.06331C4.10228 90.525 0.0805664 86.5034 0.0805664 81.5422V18.663C0.0805664 13.702 4.10228 9.68026 9.06331 9.68026ZM50.6085 50.1026L67.4512 72.5595H13.5547L27.0288 54.594L37.1344 68.0681L50.6085 50.1026Z" fill="#E4E7E9"/>
</svg>