<svg width="24" height="24" viewBox="0 0 24 24" fill="none" xmlns="http://www.w3.org/2000/svg">
<g clip-path="url(#clip0_1325_4598)">
<path fill-rule="evenodd" clip-rule="evenodd" d="M11.9062 23.5136C18.2575 23.5136 23.4062 18.3649 23.4062 12.0137C23.4062 5.6624 18.2575 0.513672 11.9062 0.513672C5.55498 0.513672 0.40625 5.6624 0.40625 12.0137C0.40625 18.3649 5.55498 23.5136 11.9062 23.5136ZM16.0133 8.72796C16.0133 10.9963 14.1744 12.8351 11.9061 12.8351C9.63783 12.8351 7.79899 10.9963 7.79899 8.72796C7.79899 6.45965 9.63783 4.62082 11.9061 4.62082C14.1744 4.62082 16.0133 6.45965 16.0133 8.72796ZM11.9061 15.2994C14.5156 15.2994 16.8667 16.4055 18.5161 18.1745C16.8667 19.9433 14.5156 21.0493 11.9062 21.0493C9.2968 21.0493 6.94574 19.9433 5.29631 18.1743C6.94574 16.4055 9.29677 15.2994 11.9061 15.2994Z" fill="#979FA7"/>
</g>
<defs>
<clipPath id="clip0_1325_4598">
<rect width="23" height="23" fill="white" transform="translate(0.40625 0.513672)"/>
</clipPath>
</defs>
</svg>
