<svg xmlns="http://www.w3.org/2000/svg" width="24" height="23" viewBox="0 0 24 23" fill="none">
  <g clip-path="url(#clip0_3362_9429)">
    <path fill-rule="evenodd" clip-rule="evenodd" d="M12.332 22.9999C18.6833 22.9999 23.832 17.8512 23.832 11.5C23.832 5.14873 18.6833 0 12.332 0C5.98076 0 0.832031 5.14873 0.832031 11.5C0.832031 17.8512 5.98076 22.9999 12.332 22.9999ZM16.4391 8.21429C16.4391 10.4826 14.6002 12.3214 12.3319 12.3214C10.0636 12.3214 8.22477 10.4826 8.22477 8.21429C8.22477 5.94598 10.0636 4.10714 12.3319 4.10714C14.6002 4.10714 16.4391 5.94598 16.4391 8.21429ZM12.3319 14.7857C14.9413 14.7857 17.2925 15.8918 18.9419 17.6608C17.2925 19.4297 14.9414 20.5356 12.332 20.5356C9.72258 20.5356 7.37152 19.4297 5.72209 17.6607C7.37152 15.8918 9.72255 14.7857 12.3319 14.7857Z" fill="#437EFC"/>
  </g>
  <defs>
    <clipPath id="clip0_3362_9429">
      <rect width="23" height="23" fill="white" transform="translate(0.832031)"/>
    </clipPath>
  </defs>
</svg>