<svg width="20" height="21" viewBox="0 0 20 21" fill="none" xmlns="http://www.w3.org/2000/svg">
<g clip-path="url(#clip0_3861_12176)">
<path d="M5.38577 15.0282C8.47887 18.1884 12.1822 20.588 15.1596 20.588C16.5588 20.588 17.7792 20.0202 18.5788 19.1096C19.3468 18.2312 19.6098 17.5777 19.6098 16.9993C19.6098 16.5494 19.3363 16.1316 18.6419 15.6388L16.0749 13.7642C15.4331 13.3035 15.149 13.2178 14.7702 13.2178C14.4441 13.2178 14.1706 13.2821 13.6235 13.582L11.9402 14.5247C11.7403 14.6425 11.6561 14.664 11.5089 14.664C11.3089 14.664 11.1722 14.6104 10.9722 14.5247C10.1727 14.1498 9.04699 13.25 8.04752 12.2323C7.04805 11.2146 6.26951 10.1755 5.86973 9.37208C5.81712 9.26495 5.754 9.09355 5.754 8.92216C5.754 8.7829 5.82765 8.66506 5.91181 8.51509L6.90076 6.79039C7.1743 6.31904 7.24795 6.06195 7.24795 5.69773C7.24795 5.27995 7.11117 4.83002 6.7219 4.26226L4.95442 1.75557C4.44942 1.03784 4.07068 0.598633 3.50255 0.598633C2.79767 0.598633 1.94548 1.14496 1.33528 1.74486C0.462059 2.60185 -0.000854492 3.80163 -0.000854492 5.1514C-0.000854492 8.20442 2.30319 11.9002 5.38577 15.0282Z" fill="#437EFC"/>
</g>
<defs>
<clipPath id="clip0_3861_12176">
<rect width="20" height="20" fill="white" transform="translate(-0.000854492 0.598633)"/>
</clipPath>
</defs>
</svg>
