<svg width="17" height="16" viewBox="0 0 17 16" fill="none" xmlns="http://www.w3.org/2000/svg">
<path d="M0.945557 6.34435C0.945557 9.84137 3.79813 12.6867 7.30409 12.6867C8.69053 12.6867 9.95744 12.2417 11.0013 11.4946L14.9216 15.4128C15.1048 15.5957 15.3439 15.6831 15.5989 15.6831C16.1406 15.6831 16.5152 15.2777 16.5152 14.7452C16.5152 14.4909 16.4195 14.2604 16.2523 14.0935L12.3559 10.1832C13.1765 9.11817 13.6626 7.79085 13.6626 6.34435C13.6626 2.84728 10.81 0.00195312 7.30409 0.00195312C3.79813 0.00195312 0.945557 2.84728 0.945557 6.34435ZM2.3081 6.34435C2.3081 3.59438 4.54713 1.36104 7.30409 1.36104C10.0611 1.36104 12.3001 3.59438 12.3001 6.34435C12.3001 9.09432 10.0611 11.3276 7.30409 11.3276C4.54713 11.3276 2.3081 9.09432 2.3081 6.34435Z" fill="white"/>
</svg>
