<svg width="24" height="23" viewBox="0 0 24 23" fill="none" xmlns="http://www.w3.org/2000/svg">
<g clip-path="url(#clip0_3861_12186)">
<path d="M3.00597 12.9023C3.46495 12.9023 3.86534 12.5215 3.86534 12.0723C3.86534 11.6035 3.46495 11.2227 3.00597 11.2227H1.13097C0.681747 11.2227 0.300888 11.6133 0.300888 12.0723C0.300888 12.5117 0.681747 12.9023 1.13097 12.9023H3.00597ZM5.00792 6.4082C5.33019 6.73047 5.8673 6.74023 6.18956 6.4082C6.52159 6.07617 6.51183 5.54883 6.18956 5.22656L4.8712 3.89844C4.5587 3.56641 4.01183 3.56641 3.6798 3.89844C3.35753 4.23047 3.35753 4.74805 3.6798 5.08008L5.00792 6.4082ZM11.0138 3.22461C11.0138 3.68359 11.3947 4.07422 11.8536 4.07422C12.3224 4.07422 12.7032 3.68359 12.7032 3.22461V1.34961C12.7032 0.890625 12.3126 0.5 11.8536 0.5C11.3947 0.5 11.0138 0.890625 11.0138 1.34961V3.22461ZM17.5079 5.22656C17.1857 5.54883 17.1759 6.07617 17.5079 6.4082C17.8497 6.74023 18.3673 6.73047 18.6896 6.4082L20.0275 5.08008C20.3497 4.74805 20.3497 4.23047 20.0275 3.89844C19.6857 3.56641 19.1681 3.56641 18.8458 3.89844L17.5079 5.22656ZM22.5665 12.9023C23.0255 12.9023 23.4161 12.5117 23.4161 12.0723C23.4161 11.6133 23.0255 11.2227 22.5665 11.2227H20.6915C20.2423 11.2227 19.8517 11.6035 19.8517 12.0723C19.8517 12.5215 20.2423 12.9023 20.6915 12.9023H22.5665Z" fill="#437EFC"/>
<path d="M19.3536 20.2559C19.7931 20.2559 20.1544 19.9043 20.1544 19.4746C20.1544 19.0352 19.7931 18.6738 19.3536 18.6738H18.1622V12.1992C18.1622 8.63477 15.4181 5.88086 11.8536 5.88086C8.29894 5.88086 5.5548 8.63477 5.5548 12.1992V18.6738H4.34386C3.91417 18.6738 3.57237 19.0352 3.57237 19.4746C3.57237 19.9043 3.91417 20.2559 4.34386 20.2559H19.3536ZM12.6739 12.2285V18.6738H11.0529V12.2285C11.0529 11.7793 11.4044 11.4082 11.8536 11.4082C12.3029 11.4082 12.6739 11.7793 12.6739 12.2285Z" fill="#437EFC"/>
</g>
<defs>
<clipPath id="clip0_3861_12186">
<rect width="23.4766" height="22.1973" fill="white" transform="translate(0.300888 0.5)"/>
</clipPath>
</defs>
</svg>
