<svg width="27" height="19" viewBox="0 0 27 19" fill="none" xmlns="http://www.w3.org/2000/svg">
<path d="M13.2917 5.4375C12.3303 5.4375 11.4082 5.81942 10.7284 6.49924C10.0486 7.17906 9.66667 8.10109 9.66667 9.0625C9.66667 10.0239 10.0486 10.9459 10.7284 11.6258C11.4082 12.3056 12.3303 12.6875 13.2917 12.6875C14.2531 12.6875 15.1751 12.3056 15.8549 11.6258C16.5347 10.9459 16.9167 10.0239 16.9167 9.0625C16.9167 8.10109 16.5347 7.17906 15.8549 6.49924C15.1751 5.81942 14.2531 5.4375 13.2917 5.4375ZM13.2917 15.1042C11.6893 15.1042 10.1526 14.4676 9.01956 13.3346C7.88653 12.2016 7.25 10.6649 7.25 9.0625C7.25 7.46015 7.88653 5.92343 9.01956 4.7904C10.1526 3.65736 11.6893 3.02083 13.2917 3.02083C14.894 3.02083 16.4307 3.65736 17.5638 4.7904C18.6968 5.92343 19.3333 7.46015 19.3333 9.0625C19.3333 10.6649 18.6968 12.2016 17.5638 13.3346C16.4307 14.4676 14.894 15.1042 13.2917 15.1042ZM13.2917 0C7.25 0 2.09042 3.75792 0 9.0625C2.09042 14.3671 7.25 18.125 13.2917 18.125C19.3333 18.125 24.4929 14.3671 26.5833 9.0625C24.4929 3.75792 19.3333 0 13.2917 0Z" fill="#D9D9D9"/>
</svg>
