<svg width="23" height="23" viewBox="0 0 23 23" fill="none" xmlns="http://www.w3.org/2000/svg">
<path d="M3.83203 6.70833H19.1654M9.58203 10.5417V16.2917M13.4154 10.5417V16.2917M4.79036 6.70833L5.7487 18.2083C5.7487 18.7167 5.95063 19.2042 6.31008 19.5636C6.66952 19.9231 7.15703 20.125 7.66536 20.125H15.332C15.8404 20.125 16.3279 19.9231 16.6873 19.5636C17.0468 19.2042 17.2487 18.7167 17.2487 18.2083L18.207 6.70833M8.6237 6.70833V3.83333C8.6237 3.57917 8.72466 3.33541 8.90439 3.15569C9.08411 2.97597 9.32787 2.875 9.58203 2.875H13.4154C13.6695 2.875 13.9133 2.97597 14.093 3.15569C14.2727 3.33541 14.3737 3.57917 14.3737 3.83333V6.70833" stroke="#484848" stroke-opacity="0.75" stroke-width="1.91667" stroke-linecap="round" stroke-linejoin="round"/>
</svg>
