<svg width="24" height="24" viewBox="0 0 24 24" fill="none" xmlns="http://www.w3.org/2000/svg">
<path d="M20.1201 1.33594C21.4811 1.33594 22.585 2.43979 22.585 3.80078V8.19531C22.585 14.7539 18.388 20.5773 12.166 22.6514C11.9975 22.7075 11.815 22.7075 11.6465 22.6514C5.42446 20.5773 1.22754 14.7539 1.22754 8.19531V3.80078C1.22754 2.43979 2.33139 1.33594 3.69238 1.33594H20.1201ZM11.9082 15.2471C11.0957 15.2471 10.4365 15.9072 10.4365 16.7197C10.4367 17.5321 11.0958 18.1914 11.9082 18.1914C12.7204 18.1911 13.3787 17.5319 13.3789 16.7197C13.3789 15.9074 12.7205 15.2473 11.9082 15.2471ZM11.9082 4.27832C11.0957 4.27832 10.4365 4.93748 10.4365 5.75V12.5527C10.4366 13.3652 11.0957 14.0234 11.9082 14.0234C12.7204 14.0232 13.3788 13.365 13.3789 12.5527V5.75C13.3789 4.93765 12.7205 4.27858 11.9082 4.27832Z" fill="#979FA7"/>
</svg>
