<svg width="109" height="108" viewBox="0 0 109 108" fill="none" xmlns="http://www.w3.org/2000/svg">
<g clip-path="url(#clip0_1019_8838)">
<path fill-rule="evenodd" clip-rule="evenodd" d="M85.9425 21.877V40.6285H94.9253V21.877L102.111 29.0632L108.399 22.663L90.4339 4.69751L72.4684 22.663L78.8686 28.9509L85.9425 21.877ZM23.0633 13.6803H65.019C64.026 16.4899 63.4857 19.5133 63.4857 22.663C63.4857 37.5461 75.5509 49.6113 90.4339 49.6113C91.9641 49.6113 93.4647 49.4837 94.9253 49.2385V85.5422C94.9253 90.5034 90.9037 94.525 85.9425 94.525H23.0633C18.1023 94.525 14.0806 90.5034 14.0806 85.5422V22.663C14.0806 17.702 18.1023 13.6803 23.0633 13.6803ZM64.6085 54.1026L81.4512 76.5595H27.5547L41.0288 58.594L51.1344 72.0681L64.6085 54.1026Z" fill="#E4E7E9"/>
</g>
<defs>
<clipPath id="clip0_1019_8838">
<rect width="107.793" height="107.793" fill="white" transform="translate(0.603516 0.207031)"/>
</clipPath>
</defs>
</svg>
