<svg width="205" height="72" viewBox="0 0 205 72" fill="none" xmlns="http://www.w3.org/2000/svg">
<path d="M193.056 71.0186C194.004 71.4409 194.888 70.3188 194.256 69.4961L186.172 58.9785C196.91 54.3396 204.44 43.5507 204.44 31.1455C204.44 14.5771 191.008 0.891624 174.44 0.891624H30.4731C13.9047 0.891624 0.473305 14.5771 0.473145 31.1455C0.473145 47.7141 13.9046 61.4004 30.4731 61.4004H171.473L193.056 71.0186Z" fill="black" fill-opacity="0.15"/>
<path d="M32.5034 28.707H30.6226V20.5684H28.9351V27.9336H27.0894V13.0977H28.9351V18.9512H30.6226V12.8164H32.5034V28.707ZM25.5249 24.6113H19.2847V14.5391H25.5249V24.6113ZM21.1128 23.0645H23.6968V16.0859H21.1128V23.0645ZM48.8511 23.3809H42.5229V28.707H40.5894V23.3809H34.3315V21.7637H48.8511V23.3809ZM41.5562 13.3789C42.6753 13.3848 43.6685 13.5342 44.5356 13.8271C45.4028 14.1201 46.0767 14.5361 46.5571 15.0752C47.0435 15.6084 47.2866 16.2324 47.2866 16.9473C47.2866 17.6562 47.0435 18.2773 46.5571 18.8105C46.0767 19.3379 45.4028 19.7451 44.5356 20.0322C43.6685 20.3193 42.6753 20.4629 41.5562 20.4629C40.4312 20.4629 39.4351 20.3193 38.5679 20.0322C37.7065 19.7451 37.0386 19.3379 36.564 18.8105C36.0894 18.2773 35.855 17.6562 35.8608 16.9473C35.855 16.2324 36.0894 15.6084 36.564 15.0752C37.0386 14.5361 37.7065 14.1201 38.5679 13.8271C39.4351 13.5342 40.4312 13.3848 41.5562 13.3789ZM41.5562 14.9609C40.8062 14.9609 40.1528 15.04 39.5962 15.1982C39.0396 15.3564 38.6089 15.585 38.3042 15.8838C38.0054 16.1826 37.8589 16.5371 37.8647 16.9473C37.8589 17.3516 38.0054 17.7031 38.3042 18.002C38.6089 18.2949 39.0396 18.5205 39.5962 18.6787C40.1528 18.8369 40.8062 18.916 41.5562 18.916C42.3062 18.916 42.9595 18.8369 43.5161 18.6787C44.0728 18.5205 44.5034 18.2949 44.8081 18.002C45.1128 17.7031 45.2651 17.3516 45.2651 16.9473C45.2651 16.5371 45.1128 16.1826 44.8081 15.8838C44.5034 15.585 44.0728 15.3564 43.5161 15.1982C42.9595 15.04 42.3062 14.9609 41.5562 14.9609ZM59.3628 13.5195C60.1597 13.5137 60.8745 13.6514 61.5073 13.9326C62.1401 14.2139 62.6353 14.6094 62.9927 15.1191C63.3501 15.6289 63.5288 16.209 63.5288 16.8594C63.5288 17.498 63.3501 18.0723 62.9927 18.582C62.6353 19.0918 62.1372 19.4873 61.4985 19.7686C60.8657 20.0498 60.1538 20.1875 59.3628 20.1816C58.5776 20.1875 57.8687 20.0498 57.2358 19.7686C56.6089 19.4873 56.1167 19.0947 55.7593 18.5908C55.4077 18.0811 55.2319 17.5039 55.2319 16.8594C55.2319 16.209 55.4077 15.6289 55.7593 15.1191C56.1167 14.6094 56.6089 14.2139 57.2358 13.9326C57.8628 13.6514 58.5718 13.5137 59.3628 13.5195ZM59.3628 15.1016C58.9292 15.0957 58.5425 15.166 58.2026 15.3125C57.8628 15.4531 57.5962 15.6582 57.4028 15.9277C57.2153 16.1914 57.1245 16.502 57.1304 16.8594C57.1245 17.2109 57.2153 17.5186 57.4028 17.7822C57.5962 18.04 57.8628 18.2393 58.2026 18.3799C58.5425 18.5146 58.9292 18.582 59.3628 18.582C59.814 18.582 60.2124 18.5146 60.5581 18.3799C60.9097 18.2393 61.1821 18.04 61.3755 17.7822C61.5688 17.5186 61.6655 17.2109 61.6655 16.8594C61.6655 16.502 61.5688 16.1914 61.3755 15.9277C61.1821 15.6582 60.9097 15.4531 60.5581 15.3125C60.2124 15.166 59.814 15.0957 59.3628 15.1016ZM67.4663 28.6895H65.5327V12.834H67.4663V28.6895ZM54.1948 21.2715C56.0933 21.2715 57.9038 21.2363 59.6265 21.166C61.3491 21.0898 62.9722 20.9375 64.4956 20.709L64.6362 22.1504C63.3823 22.3906 61.9878 22.5693 60.4526 22.6865V28.2148H58.4839V22.8008C57.4058 22.8477 56.2749 22.8711 55.0913 22.8711C54.9507 22.8828 54.7339 22.8887 54.4409 22.8887L54.1948 21.2715ZM83.0405 22.4316H81.0894V19.1445H78.8218V17.5273H81.0894V12.8164H83.0405V22.4316ZM83.0405 28.5137H72.4761V23.1523H83.0405V28.5137ZM74.4272 26.9316H81.1245V24.6992H74.4272V26.9316ZM79.0854 15.875H69.769V14.293H73.4604V12.6934H75.394V14.293H79.0854V15.875ZM74.4272 16.4902C75.1538 16.4902 75.8013 16.6133 76.3696 16.8594C76.9438 17.0996 77.3921 17.4365 77.7144 17.8701C78.0366 18.2979 78.2007 18.7871 78.2065 19.3379C78.2007 19.9062 78.0366 20.4072 77.7144 20.8408C77.3979 21.2686 76.9526 21.5996 76.3784 21.834C75.8101 22.0684 75.1597 22.1855 74.4272 22.1855C73.7007 22.1855 73.0503 22.0684 72.4761 21.834C71.9077 21.5996 71.4624 21.2656 71.1401 20.832C70.8237 20.3984 70.6655 19.9004 70.6655 19.3379C70.6655 18.7871 70.8267 18.2979 71.1489 17.8701C71.4712 17.4365 71.9165 17.0996 72.4849 16.8594C73.0532 16.6133 73.7007 16.4902 74.4272 16.4902ZM74.4272 17.9668C73.853 17.9668 73.3931 18.0898 73.0474 18.3359C72.7017 18.582 72.5288 18.916 72.5288 19.3379C72.5288 19.7715 72.6987 20.1113 73.0386 20.3574C73.3843 20.6035 73.8472 20.7266 74.4272 20.7266C75.0073 20.7266 75.4673 20.6035 75.8071 20.3574C76.1528 20.1113 76.3257 19.7715 76.3257 19.3379C76.3257 18.916 76.1528 18.582 75.8071 18.3359C75.4614 18.0898 75.0015 17.9668 74.4272 17.9668ZM97.8237 17.8262H100.039V19.4434H97.8237V24.6992H95.8726V12.834H97.8237V17.8262ZM94.73 16.1562H85.3081V14.5918H89.0522V12.8164H91.0034V14.5918H94.73V16.1562ZM90.019 16.8066C90.7749 16.8066 91.4458 16.9326 92.0317 17.1846C92.6177 17.4365 93.0747 17.7939 93.4028 18.2568C93.731 18.7139 93.8979 19.2441 93.9038 19.8477C93.8979 20.4453 93.731 20.9727 93.4028 21.4297C93.0747 21.8809 92.6177 22.2324 92.0317 22.4844C91.4458 22.7305 90.7749 22.8535 90.019 22.8535C89.2573 22.8535 88.5806 22.7305 87.9888 22.4844C87.397 22.2324 86.937 21.8809 86.6089 21.4297C86.2808 20.9727 86.1167 20.4453 86.1167 19.8477C86.1167 19.2441 86.2808 18.7139 86.6089 18.2568C86.937 17.7939 87.397 17.4365 87.9888 17.1846C88.5806 16.9326 89.2573 16.8066 90.019 16.8066ZM90.019 18.3184C89.4038 18.3184 88.9146 18.4531 88.5513 18.7227C88.1938 18.9922 88.0151 19.3672 88.0151 19.8477C88.0151 20.3164 88.1968 20.6855 88.5601 20.9551C88.9233 21.2246 89.4097 21.3535 90.019 21.3418C90.6284 21.3535 91.1177 21.2246 91.4868 20.9551C91.856 20.6855 92.0405 20.3164 92.0405 19.8477C92.0405 19.3672 91.856 18.9922 91.4868 18.7227C91.1235 18.4531 90.6343 18.3184 90.019 18.3184ZM98.4565 28.3906H87.646V23.7676H89.5972V26.8086H98.4565V28.3906ZM110.744 15.3477C110.744 16.0215 110.887 16.666 111.174 17.2812C111.461 17.8965 111.886 18.4414 112.449 18.916C113.011 19.3906 113.691 19.7539 114.488 20.0059L113.433 21.5352C112.595 21.248 111.869 20.8291 111.253 20.2783C110.638 19.7275 110.155 19.0771 109.803 18.3271C109.446 19.1885 108.945 19.9326 108.3 20.5596C107.662 21.1865 106.894 21.6582 105.998 21.9746L104.943 20.4453C105.775 20.1523 106.478 19.7393 107.052 19.2061C107.626 18.6729 108.057 18.0605 108.344 17.3691C108.637 16.6777 108.787 15.9453 108.792 15.1719V13.6602H110.744V15.3477ZM117.652 16.6836H119.867V18.3008H117.652V22.3262H115.701V12.8164H117.652V16.6836ZM112.484 22.6777C113.574 22.6719 114.517 22.7891 115.314 23.0293C116.111 23.2637 116.723 23.6064 117.151 24.0576C117.584 24.5088 117.804 25.0449 117.81 25.666C117.804 26.2988 117.587 26.8408 117.16 27.292C116.732 27.749 116.117 28.0947 115.314 28.3291C114.517 28.5693 113.574 28.6895 112.484 28.6895C111.376 28.6895 110.418 28.5693 109.61 28.3291C108.807 28.0947 108.189 27.749 107.755 27.292C107.322 26.8408 107.105 26.2988 107.105 25.666C107.105 25.0449 107.322 24.5088 107.755 24.0576C108.189 23.6064 108.81 23.2637 109.619 23.0293C110.427 22.7891 111.382 22.6719 112.484 22.6777ZM112.484 24.207C111.394 24.207 110.55 24.3359 109.953 24.5938C109.355 24.8457 109.056 25.2031 109.056 25.666C109.056 26.1523 109.352 26.5215 109.944 26.7734C110.536 27.0195 111.382 27.1426 112.484 27.1426C113.585 27.1426 114.426 27.0195 115.006 26.7734C115.586 26.5215 115.876 26.1523 115.876 25.666C115.876 25.1973 115.583 24.8369 114.998 24.585C114.412 24.333 113.574 24.207 112.484 24.207ZM133.261 17.4395H135.406V19.0391H133.261V23.5742H131.31V12.834H133.261V17.4395ZM128.005 23.7148C129.13 23.7148 130.091 23.8115 130.888 24.0049C131.685 24.1982 132.292 24.4854 132.708 24.8662C133.129 25.2412 133.343 25.6953 133.349 26.2285C133.343 27.0312 132.875 27.6436 131.943 28.0654C131.017 28.4932 129.705 28.707 128.005 28.707C126.283 28.707 124.958 28.4932 124.033 28.0654C123.107 27.6436 122.644 27.0312 122.644 26.2285C122.644 25.6895 122.852 25.2324 123.268 24.8574C123.684 24.4824 124.293 24.1982 125.096 24.0049C125.899 23.8115 126.869 23.7148 128.005 23.7148ZM128.005 25.1562C125.732 25.1387 124.595 25.4961 124.595 26.2285C124.595 26.5684 124.879 26.8262 125.448 27.002C126.022 27.1777 126.875 27.2656 128.005 27.2656C129.119 27.2656 129.957 27.1777 130.519 27.002C131.082 26.8262 131.369 26.5684 131.38 26.2285C131.363 25.4961 130.238 25.1387 128.005 25.1562ZM120.535 21.5352C122.251 21.5352 123.587 21.5205 124.542 21.4912V20.4453C123.646 20.3457 122.94 20.1025 122.424 19.7158C121.915 19.3232 121.66 18.8281 121.66 18.2305C121.66 17.7676 121.815 17.3662 122.125 17.0264C122.442 16.6807 122.887 16.417 123.461 16.2354C124.042 16.0537 124.718 15.9629 125.492 15.9629C126.265 15.9629 126.939 16.0537 127.513 16.2354C128.093 16.417 128.539 16.6807 128.849 17.0264C129.166 17.3662 129.324 17.7676 129.324 18.2305C129.324 18.8223 129.072 19.3115 128.568 19.6982C128.07 20.085 127.378 20.3311 126.494 20.4365V21.4209C127.964 21.3447 129.294 21.2246 130.484 21.0605L130.642 22.4141C129.13 22.6719 127.563 22.8418 125.94 22.9238C124.323 23.0059 122.591 23.0469 120.746 23.0469L120.535 21.5352ZM130.062 15.4883H120.939V14.0469H124.542V12.6934H126.494V14.0469H130.062V15.4883ZM125.492 17.2637C124.876 17.2637 124.393 17.3516 124.042 17.5273C123.696 17.6973 123.529 17.9316 123.541 18.2305C123.535 18.5469 123.702 18.79 124.042 18.96C124.387 19.1299 124.871 19.2148 125.492 19.2148C126.113 19.2148 126.596 19.1299 126.942 18.96C127.288 18.79 127.46 18.5469 127.46 18.2305C127.46 17.9316 127.285 17.6973 126.933 17.5273C126.587 17.3516 126.107 17.2637 125.492 17.2637ZM149.451 28.7246H147.482V12.8164H149.451V28.7246ZM140.89 13.9766C141.687 13.9766 142.396 14.208 143.017 14.6709C143.644 15.1279 144.136 15.7812 144.494 16.6309C144.851 17.4746 145.033 18.459 145.039 19.584C145.033 20.7148 144.851 21.7051 144.494 22.5547C144.142 23.4043 143.653 24.0605 143.026 24.5234C142.399 24.9805 141.687 25.209 140.89 25.209C140.087 25.209 139.373 24.9805 138.746 24.5234C138.119 24.0605 137.626 23.4043 137.269 22.5547C136.917 21.7051 136.742 20.7148 136.742 19.584C136.742 18.459 136.917 17.4746 137.269 16.6309C137.626 15.7812 138.119 15.1279 138.746 14.6709C139.373 14.208 140.087 13.9766 140.89 13.9766ZM140.89 15.7344C140.439 15.7344 140.041 15.8867 139.695 16.1914C139.355 16.4961 139.091 16.9385 138.904 17.5186C138.716 18.0986 138.623 18.7871 138.623 19.584C138.623 20.3867 138.716 21.0781 138.904 21.6582C139.091 22.2383 139.355 22.6836 139.695 22.9941C140.041 23.2988 140.439 23.4512 140.89 23.4512C141.335 23.4512 141.728 23.2988 142.068 22.9941C142.408 22.6836 142.671 22.2383 142.859 21.6582C143.046 21.0781 143.14 20.3867 143.14 19.584C143.14 18.7871 143.046 18.1016 142.859 17.5273C142.671 16.9473 142.408 16.5049 142.068 16.2002C141.728 15.8896 141.335 15.7344 140.89 15.7344ZM166.308 26.7207H151.789V25.1035H166.308V26.7207ZM164.638 21.834H153.388V14.1172H164.638V21.834ZM155.304 20.3047H162.705V15.6816H155.304V20.3047ZM181.865 26.8613H167.345V25.2441H173.603V22.6602H169.068V17.457H178.208V15.4883H169.033V13.9062H180.142V19.0039H171.019V21.0605H180.511V22.6602H175.537V25.2441H181.865V26.8613ZM58.2729 45.2578H51.9624V50.6895H50.0288V45.2578H43.7886V43.6758H58.2729V45.2578ZM56.937 37.2598H52.1646C52.2056 37.8398 52.4546 38.3994 52.9116 38.9385C53.3687 39.4717 53.9956 39.9287 54.7925 40.3096C55.5894 40.6904 56.4976 40.9453 57.5171 41.0742L56.814 42.6035C55.4663 42.416 54.2856 42.0293 53.272 41.4434C52.2642 40.8574 51.5171 40.1309 51.0308 39.2637C50.5444 40.125 49.7974 40.8516 48.7896 41.4434C47.7817 42.0293 46.6128 42.416 45.2827 42.6035L44.5444 41.0742C45.5581 40.9453 46.4604 40.6904 47.2515 40.3096C48.0483 39.9287 48.6753 39.4717 49.1323 38.9385C49.5952 38.3994 49.8501 37.8398 49.897 37.2598H45.1245V35.7129H56.937V37.2598ZM64.4956 35.9238C65.3218 35.918 66.0659 36.0791 66.728 36.4072C67.396 36.7295 67.9175 37.1836 68.2925 37.7695C68.6733 38.3555 68.8667 39.0176 68.8726 39.7559C68.8667 40.5 68.6733 41.165 68.2925 41.751C67.9175 42.3369 67.3989 42.7939 66.7368 43.1221C66.0747 43.4443 65.3276 43.6055 64.4956 43.6055C63.6694 43.6055 62.9253 43.4414 62.2632 43.1133C61.6011 42.7852 61.0796 42.3311 60.6987 41.751C60.3237 41.165 60.1362 40.5 60.1362 39.7559C60.1362 39.0176 60.3237 38.3555 60.6987 37.7695C61.0796 37.1836 61.6011 36.7295 62.2632 36.4072C62.9312 36.0791 63.6753 35.918 64.4956 35.9238ZM64.4956 37.6113C64.0327 37.6113 63.6167 37.6992 63.2476 37.875C62.8784 38.0508 62.5884 38.3027 62.3774 38.6309C62.1724 38.9531 62.0698 39.3281 62.0698 39.7559C62.0698 40.1895 62.1724 40.5703 62.3774 40.8984C62.5884 41.2207 62.8784 41.4697 63.2476 41.6455C63.6167 41.8154 64.0327 41.9004 64.4956 41.9004C64.9644 41.9004 65.3833 41.8154 65.7524 41.6455C66.1274 41.4697 66.4204 41.2207 66.6313 40.8984C66.8481 40.5703 66.9565 40.1895 66.9565 39.7559C66.9565 39.3281 66.8481 38.9531 66.6313 38.6309C66.4204 38.3027 66.1274 38.0508 65.7524 37.875C65.3833 37.6992 64.9644 37.6113 64.4956 37.6113ZM72.5815 50.7246H70.6304V34.8164H72.5815V50.7246ZM59.4155 45.8027C61.3608 45.8027 63.1772 45.7705 64.8647 45.7061C66.5581 45.6357 68.1636 45.4922 69.6812 45.2754L69.8394 46.6992C68.269 47.0039 66.6724 47.1973 65.0493 47.2793C63.4321 47.3613 61.6362 47.4023 59.6616 47.4023L59.4155 45.8027ZM87.3472 41.0215H89.7026V42.6562H87.3472V50.6719H85.396V34.8164H87.3472V41.0215ZM83.146 36.4688C83.146 41.6836 80.7378 45.4746 75.9214 47.8418L74.814 46.3301C76.7476 45.3691 78.2388 44.2061 79.2876 42.8408C80.3423 41.4756 80.9692 39.8906 81.1685 38.0859H75.6753V36.4688H83.146ZM107.984 43.0078H106.033V34.8164H107.984V43.0078ZM107.984 47.7715H99.3003V49.0195H108.494V50.5664H97.3667V46.3477H106.05V45.2051H97.3315V43.6758H107.984V47.7715ZM104.046 37.3477H102.623V40.8105C103.367 40.7461 104.064 40.6758 104.714 40.5996L104.802 42.0059C102.242 42.4043 99.0425 42.6035 95.2046 42.6035L94.9937 41.0566L96.8042 41.0391V37.3477H95.4155V35.8359H104.046V37.3477ZM98.6851 41.0039C99.3765 40.9863 100.068 40.96 100.759 40.9248V37.3477H98.6851V41.0039ZM124.806 48.7734H110.287V47.1738H113.644V43.1572C113 42.7822 112.499 42.3164 112.141 41.7598C111.79 41.2031 111.617 40.5762 111.623 39.8789C111.617 39.0527 111.866 38.3203 112.37 37.6816C112.874 37.043 113.574 36.5508 114.47 36.2051C115.367 35.8535 116.38 35.6777 117.511 35.6777C118.648 35.6777 119.665 35.8535 120.561 36.2051C121.463 36.5508 122.167 37.043 122.67 37.6816C123.18 38.3145 123.435 39.0469 123.435 39.8789C123.435 40.5586 123.262 41.1768 122.917 41.7334C122.577 42.2842 122.093 42.7441 121.466 43.1133V47.1738H124.806V48.7734ZM117.511 37.2246C116.72 37.2246 116.023 37.333 115.419 37.5498C114.822 37.7607 114.356 38.0654 114.022 38.4639C113.694 38.8623 113.533 39.334 113.539 39.8789C113.533 40.418 113.694 40.8867 114.022 41.2852C114.356 41.6836 114.825 41.9912 115.428 42.208C116.032 42.4248 116.726 42.5332 117.511 42.5332C118.296 42.5332 118.991 42.4248 119.594 42.208C120.204 41.9912 120.675 41.6836 121.009 41.2852C121.349 40.8867 121.519 40.418 121.519 39.8789C121.519 39.3398 121.349 38.8711 121.009 38.4727C120.675 38.0684 120.207 37.7607 119.603 37.5498C119 37.333 118.302 37.2246 117.511 37.2246ZM119.48 47.1738V43.8604C118.859 43.9951 118.203 44.0625 117.511 44.0625C116.849 44.0625 116.205 43.998 115.578 43.8691V47.1738H119.48ZM133.595 38.9121H125.808V37.3477H128.761V35.2734H130.695V37.3477H133.595V38.9121ZM129.728 39.7559C130.396 39.7559 130.991 39.9141 131.512 40.2305C132.04 40.541 132.45 40.9775 132.743 41.54C133.042 42.1025 133.191 42.7383 133.191 43.4473C133.191 44.168 133.042 44.8125 132.743 45.3809C132.45 45.9492 132.04 46.3945 131.512 46.7168C130.991 47.0332 130.396 47.1914 129.728 47.1914C129.066 47.1914 128.471 47.0332 127.944 46.7168C127.417 46.3945 127.003 45.9492 126.705 45.3809C126.406 44.8125 126.259 44.168 126.265 43.4473C126.259 42.7383 126.406 42.1025 126.705 41.54C127.003 40.9775 127.417 40.541 127.944 40.2305C128.471 39.9141 129.066 39.7559 129.728 39.7559ZM129.728 41.373C129.382 41.373 129.078 41.4609 128.814 41.6367C128.55 41.8066 128.345 42.0498 128.199 42.3662C128.052 42.6768 127.982 43.0371 127.988 43.4473C127.982 43.8691 128.052 44.2383 128.199 44.5547C128.345 44.8711 128.55 45.1143 128.814 45.2842C129.078 45.4482 129.382 45.5273 129.728 45.5215C130.068 45.5273 130.37 45.4482 130.633 45.2842C130.897 45.1143 131.102 44.8711 131.249 44.5547C131.395 44.2383 131.468 43.8691 131.468 43.4473C131.468 43.0371 131.395 42.6768 131.249 42.3662C131.102 42.0498 130.897 41.8066 130.633 41.6367C130.37 41.4609 130.068 41.373 129.728 41.373ZM139.501 50.707H137.638V42.9375H136.091V49.9863H134.263V35.1504H136.091V41.3555H137.638V34.8164H139.501V50.707ZM155.919 48.7734H141.4V47.1738H144.757V43.1572C144.113 42.7822 143.612 42.3164 143.254 41.7598C142.903 41.2031 142.73 40.5762 142.736 39.8789C142.73 39.0527 142.979 38.3203 143.483 37.6816C143.987 37.043 144.687 36.5508 145.583 36.2051C146.48 35.8535 147.494 35.6777 148.625 35.6777C149.761 35.6777 150.778 35.8535 151.674 36.2051C152.577 36.5508 153.28 37.043 153.784 37.6816C154.293 38.3145 154.548 39.0469 154.548 39.8789C154.548 40.5586 154.375 41.1768 154.03 41.7334C153.69 42.2842 153.207 42.7441 152.58 43.1133V47.1738H155.919V48.7734ZM148.625 37.2246C147.833 37.2246 147.136 37.333 146.533 37.5498C145.935 37.7607 145.469 38.0654 145.135 38.4639C144.807 38.8623 144.646 39.334 144.652 39.8789C144.646 40.418 144.807 40.8867 145.135 41.2852C145.469 41.6836 145.938 41.9912 146.542 42.208C147.145 42.4248 147.839 42.5332 148.625 42.5332C149.41 42.5332 150.104 42.4248 150.708 42.208C151.317 41.9912 151.789 41.6836 152.123 41.2852C152.462 40.8867 152.632 40.418 152.632 39.8789C152.632 39.3398 152.462 38.8711 152.123 38.4727C151.789 38.0684 151.32 37.7607 150.716 37.5498C150.113 37.333 149.416 37.2246 148.625 37.2246ZM150.593 47.1738V43.8604C149.972 43.9951 149.316 44.0625 148.625 44.0625C147.962 44.0625 147.318 43.998 146.691 43.8691V47.1738H150.593ZM160.033 45.3984H158.046L157.835 36.416H160.226L160.033 45.3984ZM159.048 49.2832C158.802 49.2832 158.574 49.2217 158.363 49.0986C158.152 48.9756 157.985 48.8086 157.862 48.5977C157.739 48.3867 157.677 48.1582 157.677 47.9121C157.677 47.6719 157.739 47.4492 157.862 47.2441C157.985 47.0332 158.152 46.8662 158.363 46.7432C158.574 46.6201 158.802 46.5586 159.048 46.5586C159.283 46.5586 159.502 46.6201 159.708 46.7432C159.918 46.8662 160.085 47.0332 160.208 47.2441C160.337 47.4492 160.402 47.6719 160.402 47.9121C160.402 48.1582 160.337 48.3867 160.208 48.5977C160.085 48.8086 159.918 48.9756 159.708 49.0986C159.502 49.2217 159.283 49.2832 159.048 49.2832Z" fill="white"/>
</svg>
