<svg width="205" height="71" viewBox="0 0 205 71" fill="none" xmlns="http://www.w3.org/2000/svg">
<path d="M193.4 70.8059C194.348 71.2282 195.232 70.1062 194.6 69.2835L186.516 58.7659C197.254 54.1269 204.784 43.338 204.784 30.9329C204.784 14.3645 191.352 0.678978 174.784 0.678978H30.8171C14.2487 0.678978 0.817299 14.3645 0.817139 30.9329C0.817139 47.5014 14.2486 61.1878 30.8171 61.1878H171.817L193.4 70.8059Z" fill="black" fill-opacity="0.15"/>
<path d="M24.322 13.3086C25.1189 13.3027 25.8337 13.4404 26.4666 13.7217C27.0994 14.0029 27.5945 14.3984 27.9519 14.9082C28.3093 15.418 28.488 15.998 28.488 16.6484C28.488 17.2871 28.3093 17.8613 27.9519 18.3711C27.5945 18.8809 27.0964 19.2764 26.4578 19.5576C25.825 19.8389 25.113 19.9766 24.322 19.9707C23.5369 19.9766 22.8279 19.8389 22.1951 19.5576C21.5681 19.2764 21.0759 18.8838 20.7185 18.3799C20.3669 17.8701 20.1912 17.293 20.1912 16.6484C20.1912 15.998 20.3669 15.418 20.7185 14.9082C21.0759 14.3984 21.5681 14.0029 22.1951 13.7217C22.822 13.4404 23.531 13.3027 24.322 13.3086ZM24.322 14.8906C23.8884 14.8848 23.5017 14.9551 23.1619 15.1016C22.822 15.2422 22.5554 15.4473 22.3621 15.7168C22.1746 15.9805 22.0837 16.291 22.0896 16.6484C22.0837 17 22.1746 17.3076 22.3621 17.5713C22.5554 17.8291 22.822 18.0283 23.1619 18.1689C23.5017 18.3037 23.8884 18.3711 24.322 18.3711C24.7732 18.3711 25.1716 18.3037 25.5173 18.1689C25.8689 18.0283 26.1414 17.8291 26.3347 17.5713C26.5281 17.3076 26.6248 17 26.6248 16.6484C26.6248 16.291 26.5281 15.9805 26.3347 15.7168C26.1414 15.4473 25.8689 15.2422 25.5173 15.1016C25.1716 14.9551 24.7732 14.8848 24.322 14.8906ZM32.4255 28.4785H30.4919V12.623H32.4255V28.4785ZM19.1541 21.0605C21.0525 21.0605 22.863 21.0254 24.5857 20.9551C26.3083 20.8789 27.9314 20.7266 29.4548 20.498L29.5955 21.9395C28.3416 22.1797 26.947 22.3584 25.4119 22.4756V28.0039H23.4431V22.5898C22.365 22.6367 21.2341 22.6602 20.0505 22.6602C19.9099 22.6719 19.6931 22.6777 19.4001 22.6777L19.1541 21.0605ZM47.9998 22.2207H46.0486V18.9336H43.781V17.3164H46.0486V12.6055H47.9998V22.2207ZM47.9998 28.3027H37.4353V22.9414H47.9998V28.3027ZM39.3865 26.7207H46.0837V24.4883H39.3865V26.7207ZM44.0447 15.6641H34.7283V14.082H38.4197V12.4824H40.3533V14.082H44.0447V15.6641ZM39.3865 16.2793C40.113 16.2793 40.7605 16.4023 41.3289 16.6484C41.9031 16.8887 42.3513 17.2256 42.6736 17.6592C42.9958 18.0869 43.1599 18.5762 43.1658 19.127C43.1599 19.6953 42.9958 20.1963 42.6736 20.6299C42.3572 21.0576 41.9119 21.3887 41.3376 21.623C40.7693 21.8574 40.1189 21.9746 39.3865 21.9746C38.6599 21.9746 38.0095 21.8574 37.4353 21.623C36.8669 21.3887 36.4216 21.0547 36.0994 20.6211C35.783 20.1875 35.6248 19.6895 35.6248 19.127C35.6248 18.5762 35.7859 18.0869 36.1082 17.6592C36.4304 17.2256 36.8757 16.8887 37.4441 16.6484C38.0125 16.4023 38.6599 16.2793 39.3865 16.2793ZM39.3865 17.7559C38.8123 17.7559 38.3523 17.8789 38.0066 18.125C37.6609 18.3711 37.488 18.7051 37.488 19.127C37.488 19.5605 37.658 19.9004 37.9978 20.1465C38.3435 20.3926 38.8064 20.5156 39.3865 20.5156C39.9666 20.5156 40.4265 20.3926 40.7664 20.1465C41.1121 19.9004 41.2849 19.5605 41.2849 19.127C41.2849 18.7051 41.1121 18.3711 40.7664 18.125C40.4207 17.8789 39.9607 17.7559 39.3865 17.7559ZM62.783 16.1562H65.0154V17.7383H62.783V21.2363H60.8318V12.5703H62.783V16.1562ZM62.783 25.7715H54.3455V26.8965H63.2751V28.3555H52.4119V24.418H60.8318V23.3633H52.3943V21.9395H62.783V25.7715ZM59.6892 15.3828H50.2673V13.8887H54.0115V12.4824H55.9626V13.8887H59.6892V15.3828ZM54.9783 15.875C55.7576 15.8809 56.4373 15.9922 57.0173 16.209C57.6033 16.4199 58.0544 16.7217 58.3708 17.1143C58.6931 17.501 58.8572 17.9551 58.863 18.4766C58.8572 19.0156 58.6931 19.4814 58.3708 19.874C58.0544 20.2607 57.6062 20.5596 57.0261 20.7705C56.446 20.9756 55.7634 21.0781 54.9783 21.0781C54.1931 21.0781 53.5076 20.9756 52.9216 20.7705C52.3357 20.5596 51.8816 20.2607 51.5593 19.874C51.2371 19.4814 51.0759 19.0156 51.0759 18.4766C51.0759 17.9551 51.2371 17.501 51.5593 17.1143C51.8816 16.7217 52.3357 16.4199 52.9216 16.209C53.5134 15.9922 54.199 15.8809 54.9783 15.875ZM54.9783 17.2812C54.3572 17.2812 53.8679 17.3867 53.5105 17.5977C53.1531 17.8086 52.9744 18.1016 52.9744 18.4766C52.9744 18.8574 53.1531 19.1533 53.5105 19.3643C53.8679 19.5693 54.3572 19.6719 54.9783 19.6719C55.6052 19.6719 56.0974 19.5693 56.4548 19.3643C56.8181 19.1533 56.9998 18.8574 56.9998 18.4766C56.9998 18.1016 56.8181 17.8086 56.4548 17.5977C56.0916 17.3867 55.5994 17.2812 54.9783 17.2812ZM78.3572 13.9238C78.3572 14.5918 78.5916 15.2422 79.0603 15.875C79.5349 16.5078 80.197 17.0498 81.0466 17.501C81.9021 17.9521 82.8806 18.248 83.9822 18.3887L83.2087 19.9707C81.8728 19.7715 80.6892 19.3613 79.658 18.7402C78.6267 18.1133 77.8503 17.3486 77.3289 16.4463C76.8074 17.3486 76.0339 18.1133 75.0085 18.7402C73.9832 19.3613 72.8083 19.7715 71.4841 19.9707L70.7107 18.3887C71.8005 18.248 72.7703 17.9521 73.6199 17.501C74.4695 17.0498 75.1287 16.5078 75.5974 15.875C76.0662 15.2422 76.3005 14.5918 76.3005 13.9238V13.1152H78.3572V13.9238ZM84.5623 22.959H78.2517V28.4961H76.3181V22.959H70.0779V21.3418H84.5623V22.959ZM95.5486 22.9414C95.5486 23.6387 95.7126 24.3066 96.0408 24.9453C96.3748 25.5781 96.8669 26.1025 97.5173 26.5186C98.1736 26.0732 98.6746 25.5283 99.0203 24.8838C99.366 24.2334 99.5447 23.5859 99.5564 22.9414V22.291H101.472V22.9414C101.467 23.5098 101.575 24.0488 101.798 24.5586C102.02 25.0684 102.36 25.5195 102.817 25.9121C103.28 26.3047 103.851 26.6094 104.531 26.8262L103.582 28.25C102.826 27.998 102.187 27.6318 101.666 27.1514C101.144 26.6709 100.74 26.1055 100.453 25.4551C100.183 26.1113 99.8054 26.6943 99.3191 27.2041C98.8386 27.7197 98.2556 28.1152 97.5701 28.3906C96.8435 28.127 96.2341 27.7461 95.7419 27.248C95.2498 26.75 94.8718 26.1699 94.6082 25.5078C94.321 26.1348 93.9197 26.6826 93.4041 27.1514C92.8943 27.626 92.2791 27.9922 91.5583 28.25L90.5916 26.8262C91.2537 26.5918 91.8132 26.2725 92.2703 25.8682C92.7273 25.458 93.0701 25.001 93.2986 24.4971C93.5271 23.9932 93.6443 23.4746 93.6501 22.9414V22.291H95.5486V22.9414ZM103.142 21.623H101.174V12.623H103.142V21.623ZM94.4763 13.4668C95.2849 13.4668 96.0144 13.6279 96.6648 13.9502C97.3152 14.2666 97.825 14.7119 98.1941 15.2861C98.5632 15.8604 98.7478 16.5137 98.7478 17.2461C98.7478 17.9727 98.5632 18.623 98.1941 19.1973C97.825 19.7656 97.3152 20.2109 96.6648 20.5332C96.0144 20.8496 95.2849 21.0078 94.4763 21.0078C93.6619 21.0078 92.9294 20.8496 92.2791 20.5332C91.6287 20.2109 91.116 19.7656 90.741 19.1973C90.3718 18.623 90.1873 17.9727 90.1873 17.2461C90.1873 16.5137 90.3718 15.8604 90.741 15.2861C91.116 14.7119 91.6287 14.2666 92.2791 13.9502C92.9294 13.6279 93.6619 13.4668 94.4763 13.4668ZM94.4763 15.1191C94.0134 15.1191 93.6003 15.207 93.2371 15.3828C92.8796 15.5586 92.5984 15.8076 92.3933 16.1299C92.1941 16.4463 92.0974 16.8184 92.1033 17.2461C92.0974 17.6738 92.1941 18.0488 92.3933 18.3711C92.5984 18.6934 92.8796 18.9453 93.2371 19.127C93.6003 19.3027 94.0134 19.3906 94.4763 19.3906C94.9333 19.3906 95.3376 19.3027 95.6892 19.127C96.0466 18.9512 96.325 18.7021 96.5242 18.3799C96.7292 18.0518 96.8318 17.6738 96.8318 17.2461C96.8318 16.8184 96.7322 16.4463 96.533 16.1299C96.3337 15.8076 96.0554 15.5586 95.698 15.3828C95.3406 15.207 94.9333 15.1191 94.4763 15.1191ZM118.33 18.6523H107.326V13.1855H109.26V17.1055H118.33V18.6523ZM119.965 22.0449H105.445V20.498H119.965V22.0449ZM118.435 28.127H107.185V23.4512H109.136V26.5449H118.435V28.127ZM130.916 15.1367C130.916 15.8105 131.059 16.4551 131.346 17.0703C131.634 17.6855 132.058 18.2305 132.621 18.7051C133.183 19.1797 133.863 19.543 134.66 19.7949L133.605 21.3242C132.767 21.0371 132.041 20.6182 131.426 20.0674C130.81 19.5166 130.327 18.8662 129.975 18.1162C129.618 18.9775 129.117 19.7217 128.472 20.3486C127.834 20.9756 127.066 21.4473 126.17 21.7637L125.115 20.2344C125.947 19.9414 126.65 19.5283 127.224 18.9951C127.799 18.4619 128.229 17.8496 128.516 17.1582C128.809 16.4668 128.959 15.7344 128.965 14.9609V13.4492H130.916V15.1367ZM137.824 16.4727H140.039V18.0898H137.824V22.1152H135.873V12.6055H137.824V16.4727ZM132.656 22.4668C133.746 22.4609 134.689 22.5781 135.486 22.8184C136.283 23.0527 136.895 23.3955 137.323 23.8467C137.757 24.2979 137.976 24.834 137.982 25.4551C137.976 26.0879 137.76 26.6299 137.332 27.0811C136.904 27.5381 136.289 27.8838 135.486 28.1182C134.689 28.3584 133.746 28.4785 132.656 28.4785C131.549 28.4785 130.591 28.3584 129.782 28.1182C128.979 27.8838 128.361 27.5381 127.927 27.0811C127.494 26.6299 127.277 26.0879 127.277 25.4551C127.277 24.834 127.494 24.2979 127.927 23.8467C128.361 23.3955 128.982 23.0527 129.791 22.8184C130.599 22.5781 131.554 22.4609 132.656 22.4668ZM132.656 23.9961C131.566 23.9961 130.722 24.125 130.125 24.3828C129.527 24.6348 129.228 24.9922 129.228 25.4551C129.228 25.9414 129.524 26.3105 130.116 26.5625C130.708 26.8086 131.554 26.9316 132.656 26.9316C133.758 26.9316 134.598 26.8086 135.178 26.5625C135.759 26.3105 136.049 25.9414 136.049 25.4551C136.049 24.9863 135.756 24.626 135.17 24.374C134.584 24.1221 133.746 23.9961 132.656 23.9961ZM153.433 17.2285H155.578V18.8281H153.433V23.3633H151.482V12.623H153.433V17.2285ZM148.177 23.5039C149.302 23.5039 150.263 23.6006 151.06 23.7939C151.857 23.9873 152.464 24.2744 152.88 24.6553C153.302 25.0303 153.515 25.4844 153.521 26.0176C153.515 26.8203 153.047 27.4326 152.115 27.8545C151.189 28.2822 149.877 28.4961 148.177 28.4961C146.455 28.4961 145.131 28.2822 144.205 27.8545C143.279 27.4326 142.816 26.8203 142.816 26.0176C142.816 25.4785 143.024 25.0215 143.44 24.6465C143.856 24.2715 144.466 23.9873 145.268 23.7939C146.071 23.6006 147.041 23.5039 148.177 23.5039ZM148.177 24.9453C145.904 24.9277 144.767 25.2852 144.767 26.0176C144.767 26.3574 145.052 26.6152 145.62 26.791C146.194 26.9668 147.047 27.0547 148.177 27.0547C149.291 27.0547 150.129 26.9668 150.691 26.791C151.254 26.6152 151.541 26.3574 151.552 26.0176C151.535 25.2852 150.41 24.9277 148.177 24.9453ZM140.707 21.3242C142.424 21.3242 143.76 21.3096 144.715 21.2803V20.2344C143.818 20.1348 143.112 19.8916 142.596 19.5049C142.087 19.1123 141.832 18.6172 141.832 18.0195C141.832 17.5566 141.987 17.1553 142.298 16.8154C142.614 16.4697 143.059 16.2061 143.634 16.0244C144.214 15.8428 144.89 15.752 145.664 15.752C146.437 15.752 147.111 15.8428 147.685 16.0244C148.265 16.2061 148.711 16.4697 149.021 16.8154C149.338 17.1553 149.496 17.5566 149.496 18.0195C149.496 18.6113 149.244 19.1006 148.74 19.4873C148.242 19.874 147.551 20.1201 146.666 20.2256V21.21C148.136 21.1338 149.467 21.0137 150.656 20.8496L150.814 22.2031C149.302 22.4609 147.735 22.6309 146.112 22.7129C144.495 22.7949 142.763 22.8359 140.918 22.8359L140.707 21.3242ZM150.234 15.2773H141.111V13.8359H144.715V12.4824H146.666V13.8359H150.234V15.2773ZM145.664 17.0527C145.049 17.0527 144.565 17.1406 144.214 17.3164C143.868 17.4863 143.701 17.7207 143.713 18.0195C143.707 18.3359 143.874 18.5791 144.214 18.749C144.559 18.9189 145.043 19.0039 145.664 19.0039C146.285 19.0039 146.768 18.9189 147.114 18.749C147.46 18.5791 147.633 18.3359 147.633 18.0195C147.633 17.7207 147.457 17.4863 147.105 17.3164C146.76 17.1406 146.279 17.0527 145.664 17.0527ZM163.629 13.502C164.742 13.502 165.75 13.6895 166.652 14.0645C167.554 14.4336 168.263 14.958 168.779 15.6377C169.295 16.3174 169.552 17.0996 169.552 17.9844C169.552 18.8809 169.295 19.6719 168.779 20.3574C168.263 21.0371 167.554 21.5645 166.652 21.9395C165.756 22.3145 164.748 22.502 163.629 22.502C162.515 22.502 161.51 22.3145 160.614 21.9395C159.718 21.5645 159.011 21.0371 158.496 20.3574C157.986 19.6719 157.734 18.8809 157.74 17.9844C157.734 17.0996 157.986 16.3174 158.496 15.6377C159.011 14.958 159.718 14.4336 160.614 14.0645C161.51 13.6895 162.515 13.502 163.629 13.502ZM163.629 15.084C162.867 15.0781 162.181 15.1953 161.572 15.4355C160.963 15.6758 160.485 16.0186 160.139 16.4639C159.794 16.9033 159.621 17.4102 159.621 17.9844C159.621 18.5703 159.794 19.0859 160.139 19.5312C160.485 19.9707 160.96 20.3105 161.563 20.5508C162.173 20.7852 162.861 20.9023 163.629 20.9023C164.402 20.9023 165.091 20.7852 165.694 20.5508C166.303 20.3105 166.778 19.9707 167.118 19.5312C167.464 19.0859 167.636 18.5703 167.636 17.9844C167.636 17.4102 167.464 16.9033 167.118 16.4639C166.778 16.0186 166.303 15.6758 165.694 15.4355C165.085 15.1953 164.396 15.0781 163.629 15.084ZM170.924 26.4922H156.404V24.8926H170.924V26.4922ZM186.48 26.6504H171.961V25.0332H178.219V22.4492H173.683V17.2461H182.824V15.2773H173.648V13.6953H184.758V18.793H175.635V20.8496H185.127V22.4492H180.152V25.0332H186.48V26.6504ZM58.6169 45.0469H52.3064V50.4785H50.3728V45.0469H44.1326V43.4648H58.6169V45.0469ZM57.281 37.0488H52.5085C52.5496 37.6289 52.7986 38.1885 53.2556 38.7275C53.7126 39.2607 54.3396 39.7178 55.1365 40.0986C55.9333 40.4795 56.8416 40.7344 57.8611 40.8633L57.158 42.3926C55.8103 42.2051 54.6296 41.8184 53.616 41.2324C52.6082 40.6465 51.8611 39.9199 51.3748 39.0527C50.8884 39.9141 50.1414 40.6406 49.1335 41.2324C48.1257 41.8184 46.9568 42.2051 45.6267 42.3926L44.8884 40.8633C45.9021 40.7344 46.8044 40.4795 47.5955 40.0986C48.3923 39.7178 49.0193 39.2607 49.4763 38.7275C49.9392 38.1885 50.1941 37.6289 50.241 37.0488H45.4685V35.502H57.281V37.0488ZM64.8396 35.7129C65.6658 35.707 66.4099 35.8682 67.072 36.1963C67.74 36.5186 68.2615 36.9727 68.6365 37.5586C69.0173 38.1445 69.2107 38.8066 69.2166 39.5449C69.2107 40.2891 69.0173 40.9541 68.6365 41.54C68.2615 42.126 67.7429 42.583 67.0808 42.9111C66.4187 43.2334 65.6716 43.3945 64.8396 43.3945C64.0134 43.3945 63.2693 43.2305 62.6072 42.9023C61.9451 42.5742 61.4236 42.1201 61.0427 41.54C60.6677 40.9541 60.4802 40.2891 60.4802 39.5449C60.4802 38.8066 60.6677 38.1445 61.0427 37.5586C61.4236 36.9727 61.9451 36.5186 62.6072 36.1963C63.2751 35.8682 64.0193 35.707 64.8396 35.7129ZM64.8396 37.4004C64.3767 37.4004 63.9607 37.4883 63.5916 37.6641C63.2224 37.8398 62.9324 38.0918 62.7214 38.4199C62.5164 38.7422 62.4138 39.1172 62.4138 39.5449C62.4138 39.9785 62.5164 40.3594 62.7214 40.6875C62.9324 41.0098 63.2224 41.2588 63.5916 41.4346C63.9607 41.6045 64.3767 41.6895 64.8396 41.6895C65.3083 41.6895 65.7273 41.6045 66.0964 41.4346C66.4714 41.2588 66.7644 41.0098 66.9753 40.6875C67.1921 40.3594 67.3005 39.9785 67.3005 39.5449C67.3005 39.1172 67.1921 38.7422 66.9753 38.4199C66.7644 38.0918 66.4714 37.8398 66.0964 37.6641C65.7273 37.4883 65.3083 37.4004 64.8396 37.4004ZM72.9255 50.5137H70.9744V34.6055H72.9255V50.5137ZM59.7595 45.5918C61.7048 45.5918 63.5212 45.5596 65.2087 45.4951C66.9021 45.4248 68.5076 45.2812 70.0251 45.0645L70.1833 46.4883C68.613 46.793 67.0164 46.9863 65.3933 47.0684C63.7761 47.1504 61.9802 47.1914 60.0056 47.1914L59.7595 45.5918ZM87.6912 40.8105H90.0466V42.4453H87.6912V50.4609H85.74V34.6055H87.6912V40.8105ZM83.49 36.2578C83.49 41.4727 81.0818 45.2637 76.2654 47.6309L75.158 46.1191C77.0916 45.1582 78.5828 43.9951 79.6316 42.6299C80.6863 41.2646 81.3132 39.6797 81.5125 37.875H76.0193V36.2578H83.49ZM108.328 42.7969H106.377V34.6055H108.328V42.7969ZM108.328 47.5605H99.6443V48.8086H108.838V50.3555H97.7107V46.1367H106.394V44.9941H97.6755V43.4648H108.328V47.5605ZM104.39 37.1367H102.967V40.5996C103.711 40.5352 104.408 40.4648 105.058 40.3887L105.146 41.7949C102.586 42.1934 99.3865 42.3926 95.5486 42.3926L95.3376 40.8457L97.1482 40.8281V37.1367H95.7595V35.625H104.39V37.1367ZM99.0291 40.793C99.7205 40.7754 100.412 40.749 101.103 40.7139V37.1367H99.0291V40.793ZM125.15 48.5625H110.631V46.9629H113.988V42.9463C113.344 42.5713 112.843 42.1055 112.485 41.5488C112.134 40.9922 111.961 40.3652 111.967 39.668C111.961 38.8418 112.21 38.1094 112.714 37.4707C113.218 36.832 113.918 36.3398 114.814 35.9941C115.711 35.6426 116.724 35.4668 117.855 35.4668C118.992 35.4668 120.009 35.6426 120.905 35.9941C121.807 36.3398 122.51 36.832 123.014 37.4707C123.524 38.1035 123.779 38.8359 123.779 39.668C123.779 40.3477 123.606 40.9658 123.26 41.5225C122.921 42.0732 122.437 42.5332 121.81 42.9023V46.9629H125.15V48.5625ZM117.855 37.0137C117.064 37.0137 116.367 37.1221 115.763 37.3389C115.166 37.5498 114.7 37.8545 114.366 38.2529C114.038 38.6514 113.877 39.123 113.883 39.668C113.877 40.207 114.038 40.6758 114.366 41.0742C114.7 41.4727 115.169 41.7803 115.772 41.9971C116.376 42.2139 117.07 42.3223 117.855 42.3223C118.64 42.3223 119.335 42.2139 119.938 41.9971C120.548 41.7803 121.019 41.4727 121.353 41.0742C121.693 40.6758 121.863 40.207 121.863 39.668C121.863 39.1289 121.693 38.6602 121.353 38.2617C121.019 37.8574 120.551 37.5498 119.947 37.3389C119.344 37.1221 118.646 37.0137 117.855 37.0137ZM119.824 46.9629V43.6494C119.203 43.7842 118.547 43.8516 117.855 43.8516C117.193 43.8516 116.549 43.7871 115.922 43.6582V46.9629H119.824ZM133.939 38.7012H126.152V37.1367H129.105V35.0625H131.039V37.1367H133.939V38.7012ZM130.072 39.5449C130.74 39.5449 131.335 39.7031 131.856 40.0195C132.384 40.3301 132.794 40.7666 133.087 41.3291C133.385 41.8916 133.535 42.5273 133.535 43.2363C133.535 43.957 133.385 44.6016 133.087 45.1699C132.794 45.7383 132.384 46.1836 131.856 46.5059C131.335 46.8223 130.74 46.9805 130.072 46.9805C129.41 46.9805 128.815 46.8223 128.288 46.5059C127.76 46.1836 127.347 45.7383 127.049 45.1699C126.75 44.6016 126.603 43.957 126.609 43.2363C126.603 42.5273 126.75 41.8916 127.049 41.3291C127.347 40.7666 127.76 40.3301 128.288 40.0195C128.815 39.7031 129.41 39.5449 130.072 39.5449ZM130.072 41.1621C129.726 41.1621 129.422 41.25 129.158 41.4258C128.894 41.5957 128.689 41.8389 128.543 42.1553C128.396 42.4658 128.326 42.8262 128.332 43.2363C128.326 43.6582 128.396 44.0273 128.543 44.3438C128.689 44.6602 128.894 44.9033 129.158 45.0732C129.422 45.2373 129.726 45.3164 130.072 45.3105C130.412 45.3164 130.714 45.2373 130.977 45.0732C131.241 44.9033 131.446 44.6602 131.593 44.3438C131.739 44.0273 131.812 43.6582 131.812 43.2363C131.812 42.8262 131.739 42.4658 131.593 42.1553C131.446 41.8389 131.241 41.5957 130.977 41.4258C130.714 41.25 130.412 41.1621 130.072 41.1621ZM139.845 50.4961H137.982V42.7266H136.435V49.7754H134.607V34.9395H136.435V41.1445H137.982V34.6055H139.845V50.4961ZM156.263 48.5625H141.744V46.9629H145.101V42.9463C144.457 42.5713 143.956 42.1055 143.598 41.5488C143.247 40.9922 143.074 40.3652 143.08 39.668C143.074 38.8418 143.323 38.1094 143.827 37.4707C144.331 36.832 145.031 36.3398 145.927 35.9941C146.824 35.6426 147.838 35.4668 148.969 35.4668C150.105 35.4668 151.122 35.6426 152.018 35.9941C152.921 36.3398 153.624 36.832 154.128 37.4707C154.637 38.1035 154.892 38.8359 154.892 39.668C154.892 40.3477 154.719 40.9658 154.374 41.5225C154.034 42.0732 153.551 42.5332 152.924 42.9023V46.9629H156.263V48.5625ZM148.969 37.0137C148.177 37.0137 147.48 37.1221 146.877 37.3389C146.279 37.5498 145.813 37.8545 145.479 38.2529C145.151 38.6514 144.99 39.123 144.996 39.668C144.99 40.207 145.151 40.6758 145.479 41.0742C145.813 41.4727 146.282 41.7803 146.885 41.9971C147.489 42.2139 148.183 42.3223 148.969 42.3223C149.754 42.3223 150.448 42.2139 151.052 41.9971C151.661 41.7803 152.133 41.4727 152.467 41.0742C152.806 40.6758 152.976 40.207 152.976 39.668C152.976 39.1289 152.806 38.6602 152.467 38.2617C152.133 37.8574 151.664 37.5498 151.06 37.3389C150.457 37.1221 149.76 37.0137 148.969 37.0137ZM150.937 46.9629V43.6494C150.316 43.7842 149.66 43.8516 148.969 43.8516C148.306 43.8516 147.662 43.7871 147.035 43.6582V46.9629H150.937ZM160.377 45.1875H158.39L158.179 36.2051H160.57L160.377 45.1875ZM159.392 49.0723C159.146 49.0723 158.918 49.0107 158.707 48.8877C158.496 48.7646 158.329 48.5977 158.206 48.3867C158.083 48.1758 158.021 47.9473 158.021 47.7012C158.021 47.4609 158.083 47.2383 158.206 47.0332C158.329 46.8223 158.496 46.6553 158.707 46.5322C158.918 46.4092 159.146 46.3477 159.392 46.3477C159.627 46.3477 159.846 46.4092 160.052 46.5322C160.262 46.6553 160.429 46.8223 160.552 47.0332C160.681 47.2383 160.746 47.4609 160.746 47.7012C160.746 47.9473 160.681 48.1758 160.552 48.3867C160.429 48.5977 160.262 48.7646 160.052 48.8877C159.846 49.0107 159.627 49.0723 159.392 49.0723Z" fill="white"/>
</svg>
