<svg width="205" height="71" viewBox="0 0 205 71" fill="none" xmlns="http://www.w3.org/2000/svg">
<path d="M193.4 70.8076C194.348 71.23 195.232 70.1079 194.6 69.2852L186.516 58.7676C197.254 54.1286 204.784 43.3397 204.784 30.9346C204.784 14.3662 191.352 0.680687 174.784 0.680687H30.8171C14.2487 0.680687 0.817299 14.3662 0.817139 30.9346C0.817139 47.5031 14.2486 61.1895 30.8171 61.1895H171.817L193.4 70.8076Z" fill="black" fill-opacity="0.15"/>
<path d="M49.3621 17.2656H51.5769V18.8828H49.3621V24.2266H47.4109V12.6074H49.3621V17.2656ZM49.9949 28.1816H39.1843V23.0137H41.1355V26.5996H49.9949V28.1816ZM41.2937 13.6621C42.0906 13.6621 42.8142 13.835 43.4646 14.1807C44.115 14.5205 44.6277 14.9951 45.0027 15.6045C45.3835 16.2139 45.5769 16.9023 45.5828 17.6699C45.5769 18.4258 45.3835 19.1084 45.0027 19.7178C44.6277 20.3213 44.1121 20.7959 43.4558 21.1416C42.8054 21.4873 42.0847 21.6602 41.2937 21.6602C40.4968 21.6602 39.7703 21.4873 39.114 21.1416C38.4578 20.7959 37.9392 20.3213 37.5583 19.7178C37.1833 19.1084 36.9988 18.4258 37.0046 17.6699C36.9988 16.9082 37.1833 16.2227 37.5583 15.6133C37.9392 14.998 38.4578 14.5205 39.114 14.1807C39.7703 13.835 40.4968 13.6621 41.2937 13.6621ZM41.2937 15.3672C40.8484 15.3672 40.4441 15.4639 40.0808 15.6572C39.7175 15.8447 39.4304 16.1143 39.2195 16.4658C39.0144 16.8115 38.9148 17.2129 38.9207 17.6699C38.9148 18.1152 39.0144 18.5107 39.2195 18.8564C39.4304 19.2021 39.7175 19.4688 40.0808 19.6562C40.4441 19.8438 40.8484 19.9375 41.2937 19.9375C41.739 19.9375 42.1404 19.8438 42.4978 19.6562C42.8611 19.4688 43.1453 19.2021 43.3503 18.8564C43.5613 18.5107 43.6667 18.1152 43.6667 17.6699C43.6667 17.2129 43.5613 16.8115 43.3503 16.4658C43.1453 16.1143 42.8611 15.8447 42.4978 15.6572C42.1404 15.4639 41.739 15.3672 41.2937 15.3672ZM65.6921 24.2266H63.741V18.4082H60.9285V16.8262H63.741V12.625H65.6921V24.2266ZM66.0964 28.1816H55.2683V23.207H57.2195V26.5996H66.0964V28.1816ZM58.2214 15.7891C58.2214 16.4395 58.365 17.0752 58.6521 17.6963C58.9392 18.3115 59.364 18.8652 59.9265 19.3574C60.489 19.8438 61.1687 20.2188 61.9656 20.4824L60.9812 22.0469C60.114 21.748 59.364 21.3145 58.7312 20.7461C58.1042 20.1719 57.6121 19.501 57.2546 18.7334C56.8972 19.5889 56.3875 20.333 55.7253 20.9658C55.0632 21.5928 54.2722 22.0645 53.3523 22.3809L52.3503 20.7988C53.1707 20.5293 53.8708 20.1367 54.4509 19.6211C55.0369 19.0996 55.4792 18.5078 55.7781 17.8457C56.0828 17.1777 56.2351 16.4863 56.2351 15.7715V15.3496H52.9304V13.7676H61.5085V15.3496H58.2214V15.7891ZM80.4753 17.6172H82.6902V19.2344H80.4753V24.4902H78.5242V12.625H80.4753V17.6172ZM77.3816 15.9473H67.9597V14.3828H71.7039V12.6074H73.655V14.3828H77.3816V15.9473ZM72.6707 16.5977C73.4265 16.5977 74.0974 16.7236 74.6833 16.9756C75.2693 17.2275 75.7263 17.585 76.0544 18.0479C76.3826 18.5049 76.5496 19.0352 76.5554 19.6387C76.5496 20.2363 76.3826 20.7637 76.0544 21.2207C75.7263 21.6719 75.2693 22.0234 74.6833 22.2754C74.0974 22.5215 73.4265 22.6445 72.6707 22.6445C71.9089 22.6445 71.2322 22.5215 70.6404 22.2754C70.0486 22.0234 69.5886 21.6719 69.2605 21.2207C68.9324 20.7637 68.7683 20.2363 68.7683 19.6387C68.7683 19.0352 68.9324 18.5049 69.2605 18.0479C69.5886 17.585 70.0486 17.2275 70.6404 16.9756C71.2322 16.7236 71.9089 16.5977 72.6707 16.5977ZM72.6707 18.1094C72.0554 18.1094 71.5662 18.2441 71.2029 18.5137C70.8455 18.7832 70.6667 19.1582 70.6667 19.6387C70.6667 20.1074 70.8484 20.4766 71.2117 20.7461C71.575 21.0156 72.0613 21.1445 72.6707 21.1328C73.28 21.1445 73.7693 21.0156 74.1384 20.7461C74.5076 20.4766 74.6921 20.1074 74.6921 19.6387C74.6921 19.1582 74.5076 18.7832 74.1384 18.5137C73.7751 18.2441 73.2859 18.1094 72.6707 18.1094ZM81.1082 28.1816H70.2976V23.5586H72.2488V26.5996H81.1082V28.1816ZM93.3953 15.1387C93.3953 15.8125 93.5388 16.457 93.8259 17.0723C94.113 17.6875 94.5378 18.2324 95.1003 18.707C95.6628 19.1816 96.3425 19.5449 97.1394 19.7969L96.0847 21.3262C95.2468 21.0391 94.5203 20.6201 93.905 20.0693C93.2898 19.5186 92.8064 18.8682 92.4548 18.1182C92.0974 18.9795 91.5964 19.7236 90.9519 20.3506C90.3132 20.9775 89.5457 21.4492 88.6492 21.7656L87.5945 20.2363C88.4265 19.9434 89.1296 19.5303 89.7039 18.9971C90.2781 18.4639 90.7087 17.8516 90.9958 17.1602C91.2888 16.4688 91.4382 15.7363 91.4441 14.9629V13.4512H93.3953V15.1387ZM100.303 16.4746H102.518V18.0918H100.303V22.1172H98.3523V12.6074H100.303V16.4746ZM95.1355 22.4688C96.2253 22.4629 97.1687 22.5801 97.9656 22.8203C98.7625 23.0547 99.3748 23.3975 99.8025 23.8486C100.236 24.2998 100.456 24.8359 100.462 25.457C100.456 26.0898 100.239 26.6318 99.8113 27.083C99.3835 27.54 98.7683 27.8857 97.9656 28.1201C97.1687 28.3604 96.2253 28.4805 95.1355 28.4805C94.0281 28.4805 93.0701 28.3604 92.2615 28.1201C91.4587 27.8857 90.8406 27.54 90.407 27.083C89.9734 26.6318 89.7566 26.0898 89.7566 25.457C89.7566 24.8359 89.9734 24.2998 90.407 23.8486C90.8406 23.3975 91.4617 23.0547 92.2703 22.8203C93.0789 22.5801 94.0339 22.4629 95.1355 22.4688ZM95.1355 23.998C94.0457 23.998 93.2019 24.127 92.6042 24.3848C92.0066 24.6367 91.7078 24.9941 91.7078 25.457C91.7078 25.9434 92.0037 26.3125 92.5955 26.5645C93.1873 26.8105 94.0339 26.9336 95.1355 26.9336C96.2371 26.9336 97.0779 26.8105 97.658 26.5645C98.238 26.3125 98.5281 25.9434 98.5281 25.457C98.5281 24.9883 98.2351 24.6279 97.6492 24.376C97.0632 24.124 96.2253 23.998 95.1355 23.998ZM115.913 17.2305H118.057V18.8301H115.913V23.3652H113.962V12.625H115.913V17.2305ZM110.657 23.5059C111.782 23.5059 112.743 23.6025 113.54 23.7959C114.337 23.9893 114.943 24.2764 115.359 24.6572C115.781 25.0322 115.995 25.4863 116.001 26.0195C115.995 26.8223 115.526 27.4346 114.594 27.8564C113.669 28.2842 112.356 28.498 110.657 28.498C108.934 28.498 107.61 28.2842 106.684 27.8564C105.759 27.4346 105.296 26.8223 105.296 26.0195C105.296 25.4805 105.504 25.0234 105.92 24.6484C106.336 24.2734 106.945 23.9893 107.748 23.7959C108.551 23.6025 109.52 23.5059 110.657 23.5059ZM110.657 24.9473C108.384 24.9297 107.247 25.2871 107.247 26.0195C107.247 26.3594 107.531 26.6172 108.099 26.793C108.674 26.9688 109.526 27.0566 110.657 27.0566C111.77 27.0566 112.608 26.9688 113.171 26.793C113.733 26.6172 114.02 26.3594 114.032 26.0195C114.014 25.2871 112.889 24.9297 110.657 24.9473ZM103.186 21.3262C104.903 21.3262 106.239 21.3115 107.194 21.2822V20.2363C106.298 20.1367 105.592 19.8936 105.076 19.5068C104.566 19.1143 104.311 18.6191 104.311 18.0215C104.311 17.5586 104.467 17.1572 104.777 16.8174C105.094 16.4717 105.539 16.208 106.113 16.0264C106.693 15.8447 107.37 15.7539 108.143 15.7539C108.917 15.7539 109.591 15.8447 110.165 16.0264C110.745 16.208 111.19 16.4717 111.501 16.8174C111.817 17.1572 111.975 17.5586 111.975 18.0215C111.975 18.6133 111.723 19.1025 111.219 19.4893C110.721 19.876 110.03 20.1221 109.145 20.2275V21.2119C110.616 21.1357 111.946 21.0156 113.135 20.8516L113.294 22.2051C111.782 22.4629 110.215 22.6328 108.592 22.7148C106.974 22.7969 105.243 22.8379 103.397 22.8379L103.186 21.3262ZM112.714 15.2793H103.591V13.8379H107.194V12.4844H109.145V13.8379H112.714V15.2793ZM108.143 17.0547C107.528 17.0547 107.045 17.1426 106.693 17.3184C106.347 17.4883 106.18 17.7227 106.192 18.0215C106.186 18.3379 106.353 18.5811 106.693 18.751C107.039 18.9209 107.522 19.0059 108.143 19.0059C108.764 19.0059 109.248 18.9209 109.594 18.751C109.939 18.5811 110.112 18.3379 110.112 18.0215C110.112 17.7227 109.936 17.4883 109.585 17.3184C109.239 17.1426 108.759 17.0547 108.143 17.0547ZM132.102 28.5156H130.134V12.6074H132.102V28.5156ZM123.542 13.7676C124.339 13.7676 125.048 13.999 125.669 14.4619C126.296 14.9189 126.788 15.5723 127.145 16.4219C127.503 17.2656 127.684 18.25 127.69 19.375C127.684 20.5059 127.503 21.4961 127.145 22.3457C126.794 23.1953 126.304 23.8516 125.677 24.3145C125.051 24.7715 124.339 25 123.542 25C122.739 25 122.024 24.7715 121.397 24.3145C120.77 23.8516 120.278 23.1953 119.921 22.3457C119.569 21.4961 119.393 20.5059 119.393 19.375C119.393 18.25 119.569 17.2656 119.921 16.4219C120.278 15.5723 120.77 14.9189 121.397 14.4619C122.024 13.999 122.739 13.7676 123.542 13.7676ZM123.542 15.5254C123.091 15.5254 122.692 15.6777 122.346 15.9824C122.007 16.2871 121.743 16.7295 121.555 17.3096C121.368 17.8896 121.274 18.5781 121.274 19.375C121.274 20.1777 121.368 20.8691 121.555 21.4492C121.743 22.0293 122.007 22.4746 122.346 22.7852C122.692 23.0898 123.091 23.2422 123.542 23.2422C123.987 23.2422 124.38 23.0898 124.719 22.7852C125.059 22.4746 125.323 22.0293 125.51 21.4492C125.698 20.8691 125.792 20.1777 125.792 19.375C125.792 18.5781 125.698 17.8926 125.51 17.3184C125.323 16.7383 125.059 16.2959 124.719 15.9912C124.38 15.6807 123.987 15.5254 123.542 15.5254ZM148.96 26.5117H134.44V24.8945H148.96V26.5117ZM147.29 21.625H136.04V13.9082H147.29V21.625ZM137.956 20.0957H145.356V15.4727H137.956V20.0957ZM164.516 26.6523H149.997V25.0352H156.255V22.4512H151.719V17.248H160.86V15.2793H151.684V13.6973H162.794V18.7949H153.671V20.8516H163.163V22.4512H158.188V25.0352H164.516V26.6523ZM74.3582 39.2656H76.573V40.8828H74.3582V46.2266H72.407V34.6074H74.3582V39.2656ZM74.991 50.1816H64.1804V45.0137H66.1316V48.5996H74.991V50.1816ZM66.2898 35.6621C67.0867 35.6621 67.8103 35.835 68.4607 36.1807C69.1111 36.5205 69.6238 36.9951 69.9988 37.6045C70.3796 38.2139 70.573 38.9023 70.5789 39.6699C70.573 40.4258 70.3796 41.1084 69.9988 41.7178C69.6238 42.3213 69.1082 42.7959 68.4519 43.1416C67.8015 43.4873 67.0808 43.6602 66.2898 43.6602C65.4929 43.6602 64.7664 43.4873 64.1101 43.1416C63.4539 42.7959 62.9353 42.3213 62.5544 41.7178C62.1794 41.1084 61.9949 40.4258 62.0007 39.6699C61.9949 38.9082 62.1794 38.2227 62.5544 37.6133C62.9353 36.998 63.4539 36.5205 64.1101 36.1807C64.7664 35.835 65.4929 35.6621 66.2898 35.6621ZM66.2898 37.3672C65.8445 37.3672 65.4402 37.4639 65.0769 37.6572C64.7136 37.8447 64.4265 38.1143 64.2156 38.4658C64.0105 38.8115 63.9109 39.2129 63.9167 39.6699C63.9109 40.1152 64.0105 40.5107 64.2156 40.8564C64.4265 41.2021 64.7136 41.4688 65.0769 41.6562C65.4402 41.8438 65.8445 41.9375 66.2898 41.9375C66.7351 41.9375 67.1365 41.8438 67.4939 41.6562C67.8572 41.4688 68.1414 41.2021 68.3464 40.8564C68.5574 40.5107 68.6628 40.1152 68.6628 39.6699C68.6628 39.2129 68.5574 38.8115 68.3464 38.4658C68.1414 38.1143 67.8572 37.8447 67.4939 37.6572C67.1365 37.4639 66.7351 37.3672 66.2898 37.3672ZM90.6179 43.6074H88.6492V34.625H90.6179V43.6074ZM90.6179 50.3047H80.071V44.3984H90.6179V50.3047ZM82.0046 48.7227H88.7019V45.9453H82.0046V48.7227ZM83.3054 36.7695C83.3054 37.4492 83.4548 38.0996 83.7537 38.7207C84.0525 39.3418 84.489 39.8926 85.0632 40.373C85.6375 40.8535 86.3289 41.2227 87.1375 41.4805L86.1882 42.9746C85.2859 42.6934 84.5066 42.2744 83.8503 41.7178C83.1941 41.1553 82.6814 40.4873 82.3123 39.7139C81.9431 40.5518 81.4216 41.2812 80.7478 41.9023C80.0798 42.5176 79.28 42.9805 78.3484 43.291L77.3816 41.7441C78.2195 41.4746 78.9314 41.085 79.5173 40.5752C80.1033 40.0654 80.5427 39.4824 80.8357 38.8262C81.1345 38.1641 81.2839 37.4785 81.2839 36.7695V35.2227H83.3054V36.7695ZM105.384 40.9355H107.827V42.5527H105.384V50.498H103.45V34.6074H105.384V40.9355ZM102.219 38.6152H92.8503V37.0508H96.6121V34.8359H98.5632V37.0508H102.219V38.6152ZM97.5964 39.6523C98.3523 39.6523 99.032 39.8135 99.6355 40.1357C100.245 40.4521 100.722 40.8945 101.068 41.4629C101.414 42.0312 101.587 42.6758 101.587 43.3965C101.587 44.1172 101.414 44.7617 101.068 45.3301C100.722 45.8926 100.245 46.332 99.6355 46.6484C99.032 46.9648 98.3523 47.123 97.5964 47.123C96.8289 47.123 96.1404 46.9648 95.531 46.6484C94.9216 46.332 94.4441 45.8926 94.0984 45.3301C93.7527 44.7617 93.5828 44.1172 93.5886 43.3965C93.5828 42.6758 93.7527 42.0312 94.0984 41.4629C94.4441 40.8945 94.9216 40.4521 95.531 40.1357C96.1404 39.8135 96.8289 39.6523 97.5964 39.6523ZM97.5964 41.252C97.1804 41.252 96.8083 41.3398 96.4802 41.5156C96.158 41.6914 95.906 41.9434 95.7244 42.2715C95.5427 42.5938 95.4519 42.9688 95.4519 43.3965C95.4519 43.8242 95.5427 44.1992 95.7244 44.5215C95.906 44.8379 96.158 45.084 96.4802 45.2598C96.8083 45.4297 97.1804 45.5117 97.5964 45.5059C98.0007 45.5117 98.3611 45.4297 98.6775 45.2598C98.9998 45.084 99.2517 44.8379 99.4333 44.5215C99.6208 44.1992 99.7175 43.8242 99.7234 43.3965C99.7175 42.9688 99.6208 42.5938 99.4333 42.2715C99.2517 41.9492 98.9998 41.7002 98.6775 41.5244C98.3611 41.3428 98.0007 41.252 97.5964 41.252ZM113.452 38.7734C113.452 39.6641 113.557 40.5283 113.768 41.3662C113.985 42.2041 114.322 42.9717 114.779 43.6689C115.236 44.3662 115.807 44.9316 116.493 45.3652L115.421 46.8594C114.729 46.4434 114.143 45.8867 113.663 45.1895C113.182 44.4863 112.804 43.6807 112.529 42.7725C112.23 43.7627 111.823 44.6416 111.307 45.4092C110.792 46.1768 110.171 46.7832 109.444 47.2285L108.231 45.7695C108.975 45.3184 109.596 44.7266 110.094 43.9941C110.593 43.2617 110.962 42.4561 111.202 41.5771C111.448 40.6982 111.571 39.793 111.571 38.8613V36.0137H113.452V38.7734ZM122.206 50.498H120.325V34.6074H122.206V50.498ZM118.901 49.7246H117.055V41.6914H114.788V40.0742H117.055V34.8887H118.901V49.7246ZM138.571 48.5645H124.052V46.9648H127.409V42.9482C126.764 42.5732 126.263 42.1074 125.906 41.5508C125.554 40.9941 125.382 40.3672 125.387 39.6699C125.382 38.8438 125.631 38.1113 126.135 37.4727C126.638 36.834 127.339 36.3418 128.235 35.9961C129.132 35.6445 130.145 35.4688 131.276 35.4688C132.413 35.4688 133.429 35.6445 134.326 35.9961C135.228 36.3418 135.931 36.834 136.435 37.4727C136.945 38.1055 137.2 38.8379 137.2 39.6699C137.2 40.3496 137.027 40.9678 136.681 41.5244C136.342 42.0752 135.858 42.5352 135.231 42.9043V46.9648H138.571V48.5645ZM131.276 37.0156C130.485 37.0156 129.788 37.124 129.184 37.3408C128.587 37.5518 128.121 37.8564 127.787 38.2549C127.459 38.6533 127.298 39.125 127.303 39.6699C127.298 40.209 127.459 40.6777 127.787 41.0762C128.121 41.4746 128.59 41.7822 129.193 41.999C129.797 42.2158 130.491 42.3242 131.276 42.3242C132.061 42.3242 132.756 42.2158 133.359 41.999C133.969 41.7822 134.44 41.4746 134.774 41.0762C135.114 40.6777 135.284 40.209 135.284 39.6699C135.284 39.1309 135.114 38.6621 134.774 38.2637C134.44 37.8594 133.971 37.5518 133.368 37.3408C132.764 37.124 132.067 37.0156 131.276 37.0156ZM133.245 46.9648V43.6514C132.624 43.7861 131.968 43.8535 131.276 43.8535C130.614 43.8535 129.969 43.7891 129.343 43.6602V46.9648H133.245ZM142.684 45.1895H140.698L140.487 36.207H142.878L142.684 45.1895ZM141.7 49.0742C141.454 49.0742 141.225 49.0127 141.014 48.8896C140.803 48.7666 140.636 48.5996 140.513 48.3887C140.39 48.1777 140.329 47.9492 140.329 47.7031C140.329 47.4629 140.39 47.2402 140.513 47.0352C140.636 46.8242 140.803 46.6572 141.014 46.5342C141.225 46.4111 141.454 46.3496 141.7 46.3496C141.934 46.3496 142.154 46.4111 142.359 46.5342C142.57 46.6572 142.737 46.8242 142.86 47.0352C142.989 47.2402 143.053 47.4629 143.053 47.7031C143.053 47.9492 142.989 48.1777 142.86 48.3887C142.737 48.5996 142.57 48.7666 142.359 48.8896C142.154 49.0127 141.934 49.0742 141.7 49.0742Z" fill="white"/>
</svg>
