<svg width="78" height="18" viewBox="0 0 78 18" fill="none" xmlns="http://www.w3.org/2000/svg">
<path d="M61.3678 4.95452C63.5578 1.03056 68.5261 -0.392537 72.4649 1.77595C76.4037 3.94444 77.8214 8.88336 75.6314 12.8073C73.4415 16.7313 68.4732 18.1544 64.5344 15.9859C60.5956 13.8174 59.1779 8.87849 61.3678 4.95452Z" fill="white"/>
<path d="M2.20219 10.3428C0.599533 10.2339 0.599117 7.89317 2.20186 7.77562L67.3481 2.99863L67.3545 2.99973C67.6091 2.95237 67.8691 2.91837 68.1346 2.90384C71.441 2.72309 74.2627 5.24273 74.4358 8.53169C74.6087 11.8203 72.0686 14.6328 68.7627 14.8139C68.416 14.8328 68.0743 14.8207 67.7409 14.7825C67.7226 14.782 67.7037 14.7826 67.6852 14.7813L2.20219 10.3428Z" fill="#000B25"/>
<path d="M62.3906 3.04004C64.9937 0.341549 69.1839 -0.396683 72.6201 1.49512C76.7143 3.74947 78.1887 8.88452 75.9121 12.9639C73.6361 17.0421 68.4731 18.5201 64.3799 16.2666C63.6219 15.8493 62.954 15.333 62.3828 14.7432L2.18066 10.6631C0.164756 10.5262 0.193748 7.60164 2.17871 7.45605L62.3906 3.04004Z" stroke="url(#paint0_linear_2412_11112)" stroke-width="0.641822"/>
<defs>
<linearGradient id="paint0_linear_2412_11112" x1="0.0320685" y1="9.97931" x2="65.1869" y2="-17.7687" gradientUnits="userSpaceOnUse">
<stop offset="0.716346" stop-color="white" stop-opacity="0.54"/>
<stop offset="1" stop-color="white" stop-opacity="0"/>
</linearGradient>
</defs>
</svg>
