<svg width="25" height="25" viewBox="0 0 25 25" fill="none" xmlns="http://www.w3.org/2000/svg">
<path d="M10.3691 13.625C10.7986 14.1991 11.3465 14.6741 11.9757 15.0179C12.6049 15.3617 13.3006 15.5661 14.0158 15.6173C14.7309 15.6685 15.4487 15.5653 16.1205 15.3147C16.7922 15.0642 17.4023 14.672 17.9091 14.165L20.9091 11.165C21.8199 10.222 22.3239 8.95894 22.3125 7.64796C22.3011 6.33698 21.7753 5.08291 20.8482 4.15587C19.9212 3.22883 18.6671 2.70299 17.3561 2.6916C16.0452 2.6802 14.7822 3.18418 13.8391 4.09497L12.1191 5.80497" stroke="#000B25" stroke-width="2" stroke-linecap="round" stroke-linejoin="round"/>
<path d="M14.3691 11.625C13.9396 11.0509 13.3917 10.5758 12.7625 10.232C12.1334 9.88828 11.4376 9.68386 10.7224 9.63265C10.0073 9.58143 9.28951 9.68461 8.61775 9.9352C7.94599 10.1858 7.33598 10.5779 6.8291 11.085L3.8291 14.085C2.91831 15.028 2.41433 16.291 2.42573 17.602C2.43712 18.913 2.96296 20.167 3.89 21.0941C4.81704 22.0211 6.07111 22.547 7.38209 22.5584C8.69307 22.5697 9.95608 22.0658 10.8991 21.155L12.6091 19.445" stroke="#000B25" stroke-width="2" stroke-linecap="round" stroke-linejoin="round"/>
</svg>
