<svg width="23" height="21" viewBox="0 0 23 21" fill="none" xmlns="http://www.w3.org/2000/svg">
<g clip-path="url(#clip0_2524_11775)">
<path d="M0.18042 9.52832V18.249C0.18042 18.9619 0.697998 19.4209 1.38159 19.4209C2.06519 19.4111 2.58276 18.9619 2.58276 18.249V7.69239H2.10425C0.912842 7.69239 0.18042 8.36622 0.18042 9.52832ZM3.4812 20.9443H18.9304C20.9812 20.9443 21.9968 19.9384 21.9968 17.9267V3.03418C21.9968 1.02246 20.9812 0.00683594 18.9304 0.00683594H7.55347C5.51245 0.00683594 4.48706 1.02246 4.48706 3.03418V18.8935C4.48706 19.9384 4.24292 20.5244 3.4812 20.9443ZM8.40308 5.82715C8.05151 5.82715 7.78784 5.55372 7.78784 5.21192C7.78784 4.87989 8.05151 4.62598 8.40308 4.62598H18.1003C18.4421 4.62598 18.7058 4.87989 18.7058 5.21192C18.7058 5.55372 18.4421 5.82715 18.1003 5.82715H8.40308ZM8.40308 9.26465C8.05151 9.26465 7.78784 9.00098 7.78784 8.66895C7.78784 8.32715 8.05151 8.06348 8.40308 8.06348H18.1003C18.4421 8.06348 18.7058 8.32715 18.7058 8.66895C18.7058 9.00098 18.4421 9.26465 18.1003 9.26465H8.40308ZM14.4577 12.7119C14.1062 12.7119 13.8523 12.458 13.8523 12.1259C13.8523 11.7744 14.1062 11.5107 14.4577 11.5107H18.1003C18.4421 11.5107 18.696 11.7744 18.696 12.1259C18.696 12.458 18.4421 12.7119 18.1003 12.7119H14.4577ZM14.4577 16.2275C14.1062 16.2275 13.8523 15.9736 13.8523 15.6416C13.8523 15.2998 14.1062 15.0263 14.4577 15.0263H18.1003C18.4421 15.0263 18.696 15.2998 18.696 15.6416C18.696 15.9736 18.4421 16.2275 18.1003 16.2275H14.4577ZM8.93042 16.2763C8.20776 16.2763 7.77808 15.8466 7.77808 15.1338V12.663C7.77808 11.9404 8.20776 11.5107 8.93042 11.5107H11.3718C12.0847 11.5107 12.5144 11.9404 12.5144 12.663V15.1338C12.5144 15.8466 12.0847 16.2763 11.3718 16.2763H8.93042Z" fill="#F1F4FF"/>
</g>
<defs>
<clipPath id="clip0_2524_11775">
<rect width="22.1777" height="20.9473" fill="white" transform="translate(0.18042 0.00683594)"/>
</clipPath>
</defs>
</svg>
