<svg width="314" height="148" viewBox="0 0 314 148" fill="none" xmlns="http://www.w3.org/2000/svg">
<path d="M313.639 141.619C313.639 113.182 306.13 85.2308 291.843 60.486C277.557 35.7412 256.979 15.0467 232.115 0.417969L169.871 102.174C176.817 106.26 182.565 112.041 186.556 118.954C190.548 125.867 192.645 133.675 192.645 141.619H313.639Z" fill="url(#paint0_linear_2392_11330)"/>
<g filter="url(#filter0_d_2392_11330)">
<path d="M8.21377 141.537C5.84681 141.537 3.92109 139.64 3.9942 137.301C4.69566 114.865 10.9608 92.9091 22.2769 73.3394C33.6037 53.7513 49.6274 37.1826 68.9389 25.0484C70.9247 23.8006 73.5424 24.4522 74.7613 26.4418L95.7708 60.7351C97.0041 62.7483 96.3348 65.3611 94.3474 66.6571C82.379 74.462 72.4307 84.9214 65.3256 97.2087C58.2194 109.498 54.1776 123.235 53.5007 137.302C53.3882 139.639 51.48 141.537 49.1131 141.537H8.21377Z" fill="#41E763"/>
<path d="M69.2803 25.5918C70.9557 24.5391 73.1767 25.0845 74.2139 26.7773L95.2236 61.0703C96.2638 62.7682 95.7122 65.0004 93.9971 66.1191C81.9452 73.9785 71.9256 84.5123 64.7695 96.8877C57.6125 109.265 53.5412 123.102 52.8594 137.271C52.7627 139.279 51.1248 140.895 49.1133 140.896H8.21387C6.18867 140.896 4.5746 139.278 4.63574 137.321C5.33387 114.992 11.5698 93.1394 22.833 73.6611C34.107 54.1643 50.0562 37.6711 69.2803 25.5918Z" stroke="url(#paint1_linear_2392_11330)" stroke-opacity="0.36" stroke-width="1.28364"/>
</g>
<g filter="url(#filter1_d_2392_11330)">
<path d="M212.848 24.6644C214.025 22.619 213.293 20.0113 211.18 18.9276C190.875 8.51294 168.266 3.08016 145.301 3.12726C122.336 3.17435 99.7511 8.69977 79.4908 19.1975C77.3823 20.29 76.6613 22.9007 77.847 24.9413L98.0433 59.6981C99.2155 61.7153 101.81 62.4113 103.911 61.3637C116.747 54.9636 130.96 51.5998 145.405 51.5702C159.849 51.5406 174.076 54.8461 186.94 61.1934C189.046 62.2324 191.637 61.5256 192.801 59.5035L212.848 24.6644Z" fill="#FFCD42"/>
<path d="M145.303 3.76953C168.166 3.7227 190.673 9.13131 210.887 19.499C212.665 20.4114 213.291 22.6092 212.292 24.3447L192.244 59.1836C191.26 60.8932 189.046 61.5172 187.224 60.6182C174.271 54.2269 159.946 50.8989 145.403 50.9287C130.861 50.9585 116.55 54.3449 103.625 60.7891C101.807 61.6955 99.5899 61.0813 98.5986 59.376L78.4023 24.6191C77.3963 22.8877 78.0113 20.6872 79.7861 19.7676C99.9552 9.3171 122.44 3.81642 145.303 3.76953Z" stroke="url(#paint2_linear_2392_11330)" stroke-opacity="0.36" stroke-width="1.28364"/>
</g>
<g filter="url(#filter2_d_2392_11330)">
<path d="M282.323 141.537C284.69 141.537 286.615 139.64 286.542 137.301C285.841 114.865 279.576 92.9091 268.26 73.3394C256.933 53.7513 240.909 37.1826 221.598 25.0484C219.612 23.8006 216.994 24.4522 215.775 26.4418L194.766 60.7351C193.532 62.7483 194.202 65.3611 196.189 66.6571C208.157 74.462 218.106 84.9214 225.211 97.2087C232.317 109.498 236.359 123.235 237.036 137.302C237.148 139.639 239.056 141.537 241.423 141.537H282.323Z" fill="#F24E4E"/>
<path d="M216.322 26.7773C217.359 25.0845 219.58 24.5392 221.256 25.5918C240.48 37.6711 256.43 54.1643 267.704 73.6611C278.967 93.1393 285.202 114.992 285.9 137.321C285.962 139.278 284.347 140.896 282.322 140.896H241.424C239.412 140.896 237.773 139.279 237.677 137.271C236.995 123.101 232.924 109.265 225.767 96.8877C218.611 84.5123 208.592 73.9784 196.54 66.1191C194.825 65.0005 194.273 62.7683 195.313 61.0703L216.322 26.7773Z" stroke="url(#paint3_linear_2392_11330)" stroke-width="1.28364"/>
</g>
<g filter="url(#filter3_d_2392_11330)">
<path d="M232.754 74.3379C233.652 74.3314 234.456 74.4876 235.166 74.8066C235.876 75.1191 236.432 75.5651 236.836 76.1445C237.24 76.7174 237.441 77.3717 237.441 78.1074C237.441 78.8366 237.24 79.4909 236.836 80.0703C236.432 80.6432 235.872 81.0892 235.156 81.4082C234.447 81.7272 233.646 81.8835 232.754 81.877C231.855 81.8835 231.051 81.7272 230.342 81.4082C229.632 81.0892 229.076 80.6432 228.672 80.0703C228.275 79.4909 228.079 78.8366 228.086 78.1074C228.079 77.3717 228.275 76.7174 228.672 76.1445C229.076 75.5651 229.632 75.1191 230.342 74.8066C231.051 74.4876 231.855 74.3314 232.754 74.3379ZM232.754 76.3301C232.077 76.3301 231.53 76.4896 231.113 76.8086C230.697 77.1211 230.488 77.554 230.488 78.1074C230.488 78.6543 230.697 79.084 231.113 79.3965C231.53 79.709 232.077 79.8587 232.754 79.8457C233.451 79.8587 234.01 79.709 234.434 79.3965C234.863 79.084 235.078 78.6543 235.078 78.1074C235.078 77.554 234.863 77.1211 234.434 76.8086C234.01 76.4896 233.451 76.3301 232.754 76.3301ZM241.934 91.3691H239.473V73.6152H241.934V91.3691ZM226.992 82.9707C231.719 82.9707 235.521 82.7559 238.398 82.3262L238.555 84.1621C237.207 84.429 235.723 84.6276 234.102 84.7578V90.8418H231.621V84.9043C230.475 84.9564 229.271 84.9824 228.008 84.9824C227.852 84.9954 227.617 85.002 227.305 85.002L226.992 82.9707ZM258.819 84.3379H256.338V80.8418H254.034V78.8105H256.338V73.5957H258.819V84.3379ZM258.819 91.1738H246.866V85.0996H258.819V91.1738ZM249.366 89.1816H256.377V87.0527H249.366V89.1816ZM254.346 77.1309H243.877V75.1387H247.901V73.4395H250.362V75.1387H254.346V77.1309ZM249.131 77.7168C249.952 77.7168 250.684 77.8535 251.329 78.127C251.98 78.4004 252.484 78.778 252.842 79.2598C253.207 79.7415 253.389 80.2884 253.389 80.9004C253.389 81.5384 253.207 82.1016 252.842 82.5898C252.484 83.0716 251.983 83.4492 251.338 83.7227C250.694 83.9896 249.958 84.123 249.131 84.123C248.311 84.123 247.575 83.9896 246.924 83.7227C246.273 83.4492 245.765 83.0684 245.401 82.5801C245.036 82.0918 244.854 81.5319 244.854 80.9004C244.854 80.2884 245.036 79.7415 245.401 79.2598C245.772 78.778 246.283 78.4004 246.934 78.127C247.585 77.8535 248.317 77.7168 249.131 77.7168ZM249.131 79.5918C248.545 79.5918 248.083 79.7057 247.745 79.9336C247.413 80.1615 247.25 80.4837 247.256 80.9004C247.25 81.3431 247.413 81.6849 247.745 81.9258C248.083 82.1667 248.545 82.2871 249.131 82.2871C249.711 82.2871 250.166 82.1667 250.498 81.9258C250.837 81.6849 251.006 81.3431 251.006 80.9004C251.006 80.4837 250.837 80.1615 250.498 79.9336C250.16 79.7057 249.704 79.5918 249.131 79.5918Z" fill="white"/>
</g>
<defs>
<filter id="filter0_d_2392_11330" x="0.141256" y="23.1285" width="100.102" height="124.827" filterUnits="userSpaceOnUse" color-interpolation-filters="sRGB">
<feFlood flood-opacity="0" result="BackgroundImageFix"/>
<feColorMatrix in="SourceAlpha" type="matrix" values="0 0 0 0 0 0 0 0 0 0 0 0 0 0 0 0 0 0 127 0" result="hardAlpha"/>
<feOffset dy="2.56729"/>
<feGaussianBlur stdDeviation="1.92547"/>
<feComposite in2="hardAlpha" operator="out"/>
<feColorMatrix type="matrix" values="0 0 0 0 0 0 0 0 0 0 0 0 0 0 0 0 0 0 0.2 0"/>
<feBlend mode="normal" in2="BackgroundImageFix" result="effect1_dropShadow_2392_11330"/>
<feBlend mode="normal" in="SourceGraphic" in2="effect1_dropShadow_2392_11330" result="shape"/>
</filter>
<filter id="filter1_d_2392_11330" x="73.4264" y="1.84331" width="143.833" height="66.4226" filterUnits="userSpaceOnUse" color-interpolation-filters="sRGB">
<feFlood flood-opacity="0" result="BackgroundImageFix"/>
<feColorMatrix in="SourceAlpha" type="matrix" values="0 0 0 0 0 0 0 0 0 0 0 0 0 0 0 0 0 0 127 0" result="hardAlpha"/>
<feOffset dy="2.56729"/>
<feGaussianBlur stdDeviation="1.92547"/>
<feComposite in2="hardAlpha" operator="out"/>
<feColorMatrix type="matrix" values="0 0 0 0 0 0 0 0 0 0 0 0 0 0 0 0 0 0 0.2 0"/>
<feBlend mode="normal" in2="BackgroundImageFix" result="effect1_dropShadow_2392_11330"/>
<feBlend mode="normal" in="SourceGraphic" in2="effect1_dropShadow_2392_11330" result="shape"/>
</filter>
<filter id="filter2_d_2392_11330" x="190.294" y="23.1285" width="100.102" height="124.827" filterUnits="userSpaceOnUse" color-interpolation-filters="sRGB">
<feFlood flood-opacity="0" result="BackgroundImageFix"/>
<feColorMatrix in="SourceAlpha" type="matrix" values="0 0 0 0 0 0 0 0 0 0 0 0 0 0 0 0 0 0 127 0" result="hardAlpha"/>
<feOffset dy="2.56729"/>
<feGaussianBlur stdDeviation="1.92547"/>
<feComposite in2="hardAlpha" operator="out"/>
<feColorMatrix type="matrix" values="0 0 0 0 0 0 0 0 0 0 0 0 0 0 0 0 0 0 0.2 0"/>
<feBlend mode="normal" in2="BackgroundImageFix" result="effect1_dropShadow_2392_11330"/>
<feBlend mode="normal" in="SourceGraphic" in2="effect1_dropShadow_2392_11330" result="shape"/>
</filter>
<filter id="filter3_d_2392_11330" x="221.858" y="68.3049" width="42.0957" height="28.1988" filterUnits="userSpaceOnUse" color-interpolation-filters="sRGB">
<feFlood flood-opacity="0" result="BackgroundImageFix"/>
<feColorMatrix in="SourceAlpha" type="matrix" values="0 0 0 0 0 0 0 0 0 0 0 0 0 0 0 0 0 0 127 0" result="hardAlpha"/>
<feOffset/>
<feGaussianBlur stdDeviation="2.56729"/>
<feComposite in2="hardAlpha" operator="out"/>
<feColorMatrix type="matrix" values="0 0 0 0 0 0 0 0 0 0 0 0 0 0 0 0 0 0 0.4 0"/>
<feBlend mode="normal" in2="BackgroundImageFix" result="effect1_dropShadow_2392_11330"/>
<feBlend mode="normal" in="SourceGraphic" in2="effect1_dropShadow_2392_11330" result="shape"/>
</filter>
<linearGradient id="paint0_linear_2392_11330" x1="279.956" y1="44.997" x2="183.899" y2="120.016" gradientUnits="userSpaceOnUse">
<stop offset="0.000100017" stop-color="#FF4E4E" stop-opacity="0"/>
<stop offset="0.557692" stop-color="#FF4E4E"/>
<stop offset="1" stop-color="#FF4E4E" stop-opacity="0"/>
</linearGradient>
<linearGradient id="paint1_linear_2392_11330" x1="49.1999" y1="24.4121" x2="50.8209" y2="45.9753" gradientUnits="userSpaceOnUse">
<stop stop-color="white"/>
<stop offset="1" stop-color="white" stop-opacity="0.46"/>
</linearGradient>
<linearGradient id="paint2_linear_2392_11330" x1="143.881" y1="3.12695" x2="144.159" y2="13.9917" gradientUnits="userSpaceOnUse">
<stop stop-color="white"/>
<stop offset="1" stop-color="white" stop-opacity="0.46"/>
</linearGradient>
<linearGradient id="paint3_linear_2392_11330" x1="142.23" y1="3.12857" x2="145.196" y2="54.2075" gradientUnits="userSpaceOnUse">
<stop stop-color="white"/>
<stop offset="1" stop-color="white" stop-opacity="0.46"/>
</linearGradient>
</defs>
</svg>
