<svg width="340" height="166" viewBox="0 0 340 166" fill="none" xmlns="http://www.w3.org/2000/svg">
<g clip-path="url(#clip0_2418_11143)">
<path d="M1.98047 164.826C1.98047 136.39 9.48947 108.438 23.7762 83.6931C38.0629 58.9482 58.6404 38.2538 83.5045 23.625L145.749 125.381C138.803 129.467 133.054 135.248 129.063 142.161C125.072 149.074 122.974 156.882 122.974 164.826H1.98047Z" fill="url(#paint0_linear_2418_11143)"/>
<g filter="url(#filter0_d_2418_11143)">
<path d="M34.2629 163.912C31.9232 163.912 30.0196 162.015 30.0918 159.676C30.7852 137.24 36.9784 115.284 48.1645 95.7145C59.3611 76.1263 75.2007 59.5576 94.2903 47.4234C96.2533 46.1756 98.841 46.8272 100.046 48.8168L120.814 83.1101C122.033 85.1233 121.371 87.7361 119.407 89.0321C107.576 96.837 97.742 107.296 90.7186 119.584C83.694 131.873 79.6986 145.61 79.0295 159.677C78.9183 162.014 77.0321 163.912 74.6923 163.912H34.2629Z" fill="#41E763"/>
<path d="M94.6348 47.9648C96.2834 46.9171 98.4721 47.4569 99.4971 49.1494L120.265 83.4424C121.295 85.1441 120.746 87.3792 119.054 88.4961C107.139 96.3561 97.2348 106.89 90.1611 119.266C83.0865 131.643 79.0627 145.478 78.3887 159.646C78.2928 161.661 76.6702 163.27 74.6924 163.271H34.2627C32.2722 163.27 30.6729 161.66 30.7334 159.696C31.4235 137.365 37.5877 115.512 48.7217 96.0332C59.8663 76.5361 75.6327 60.0434 94.6348 47.9648Z" stroke="url(#paint1_linear_2418_11143)" stroke-width="1.28364"/>
</g>
<g filter="url(#filter1_d_2418_11143)">
<path d="M66.0703 102.709H68.4727V104.779H66.0703V110.561H63.5703V97.6113H66.0703V102.709ZM66.7148 115.072H54.5469V109.193H57.0273V113.08H66.7148V115.072ZM56.9688 98.7637C57.8672 98.7637 58.6842 98.959 59.4199 99.3496C60.1621 99.7337 60.7448 100.271 61.168 100.961C61.5977 101.645 61.8125 102.416 61.8125 103.275C61.8125 104.128 61.5977 104.9 61.168 105.59C60.7448 106.273 60.1621 106.811 59.4199 107.201C58.6842 107.592 57.8672 107.787 56.9688 107.787C56.0638 107.787 55.2402 107.592 54.498 107.201C53.7559 106.811 53.1667 106.273 52.7305 105.59C52.3008 104.9 52.0859 104.128 52.0859 103.275C52.0859 102.416 52.3008 101.645 52.7305 100.961C53.1602 100.271 53.7461 99.7337 54.4883 99.3496C55.237 98.959 56.0638 98.7637 56.9688 98.7637ZM56.9688 100.932C56.513 100.925 56.0996 101.016 55.7285 101.205C55.3639 101.387 55.0742 101.658 54.8594 102.016C54.6445 102.374 54.5404 102.794 54.5469 103.275C54.5404 103.744 54.6445 104.158 54.8594 104.516C55.0742 104.867 55.3672 105.141 55.7383 105.336C56.1094 105.525 56.5195 105.619 56.9688 105.619C57.4245 105.619 57.8346 105.525 58.1992 105.336C58.5638 105.141 58.8503 104.867 59.0586 104.516C59.2734 104.158 59.3841 103.744 59.3906 103.275C59.3841 102.794 59.2734 102.374 59.0586 102.016C58.8503 101.658 58.5638 101.387 58.1992 101.205C57.8346 101.016 57.4245 100.925 56.9688 100.932ZM83.8344 110.6H81.3539V104.232H78.4438V102.221H81.3539V97.6309H83.8344V110.6ZM84.2641 115.072H72.0375V109.467H74.5375V113.08H84.2641V115.072ZM75.5727 101.107C75.5727 101.817 75.7191 102.51 76.0121 103.188C76.3116 103.865 76.7673 104.477 77.3793 105.023C77.9913 105.57 78.7497 105.99 79.6547 106.283L78.4242 108.256C77.4672 107.95 76.6436 107.491 75.9535 106.879C75.2699 106.267 74.7263 105.544 74.3227 104.711C73.919 105.635 73.3559 106.433 72.6332 107.104C71.9171 107.774 71.0479 108.282 70.0258 108.627L68.7563 106.596C69.6938 106.303 70.4815 105.87 71.1195 105.297C71.7641 104.724 72.2426 104.076 72.5551 103.354C72.8676 102.624 73.0271 101.869 73.0336 101.088V100.814H69.4594V98.8223H79.1078V100.814H75.5727V101.107Z" fill="white"/>
</g>
<g filter="url(#filter2_d_2418_11143)">
<path d="M238.668 47.4925C239.845 45.4471 239.113 42.8395 237 41.7557C216.695 31.3411 194.086 25.9083 171.121 25.9554C148.156 26.0025 125.571 31.5279 105.311 42.0256C103.203 43.1181 102.482 45.7289 103.667 47.7694L123.864 82.5262C125.036 84.5434 127.63 85.2394 129.731 84.1918C142.568 77.7918 156.781 74.4279 171.225 74.3983C185.669 74.3687 199.896 77.6742 212.76 84.0215C214.866 85.0605 217.457 84.3538 218.621 82.3316L238.668 47.4925Z" fill="#FFCD42"/>
<path d="M171.123 26.5977C193.986 26.5508 216.493 31.9594 236.707 42.3271C238.486 43.2395 239.111 45.4374 238.112 47.1729L218.064 82.0117C217.081 83.7213 214.866 84.3453 213.044 83.4463C200.091 77.0551 185.767 73.727 171.224 73.7568C156.681 73.7867 142.37 77.173 129.445 83.6172C127.627 84.5236 125.41 83.9094 124.419 82.2041L104.223 47.4473C103.217 45.7159 103.832 43.5154 105.606 42.5957C125.776 32.1452 148.26 26.6445 171.123 26.5977Z" stroke="url(#paint2_linear_2418_11143)" stroke-opacity="0.36" stroke-width="1.28364"/>
</g>
<g filter="url(#filter3_d_2418_11143)">
<path d="M307.446 164.965C309.786 164.965 311.69 163.068 311.617 160.729C310.924 138.293 304.731 116.337 293.545 96.7672C282.348 77.179 266.508 60.6103 247.419 48.4761C245.456 47.2284 242.868 47.8799 241.663 49.8695L220.895 84.1629C219.676 86.176 220.338 88.7888 222.302 90.0849C234.133 97.8898 243.967 108.349 250.991 120.636C258.015 132.926 262.011 146.662 262.68 160.73C262.791 163.067 264.677 164.965 267.017 164.965H307.446Z" fill="#FF4E4E"/>
<path d="M242.212 50.2021C243.237 48.5097 245.426 47.9699 247.074 49.0176C266.076 61.0961 281.843 77.5888 292.987 97.0859C304.121 116.565 310.285 138.418 310.976 160.749C311.036 162.712 309.437 164.323 307.446 164.323H267.017C265.039 164.323 263.416 162.714 263.32 160.699C262.646 146.531 258.622 132.695 251.548 120.318C244.474 107.943 234.57 97.4088 222.655 89.5488C220.963 88.4319 220.414 86.1968 221.444 84.4951L242.212 50.2021Z" stroke="url(#paint3_linear_2418_11143)" stroke-opacity="0.36" stroke-width="1.28364"/>
</g>
</g>
<defs>
<filter id="filter0_d_2418_11143" x="26.2389" y="45.5035" width="99.0399" height="124.827" filterUnits="userSpaceOnUse" color-interpolation-filters="sRGB">
<feFlood flood-opacity="0" result="BackgroundImageFix"/>
<feColorMatrix in="SourceAlpha" type="matrix" values="0 0 0 0 0 0 0 0 0 0 0 0 0 0 0 0 0 0 127 0" result="hardAlpha"/>
<feOffset dy="2.56729"/>
<feGaussianBlur stdDeviation="1.92547"/>
<feComposite in2="hardAlpha" operator="out"/>
<feColorMatrix type="matrix" values="0 0 0 0 0 0 0 0 0 0 0 0 0 0 0 0 0 0 0.2 0"/>
<feBlend mode="normal" in2="BackgroundImageFix" result="effect1_dropShadow_2418_11143"/>
<feBlend mode="normal" in="SourceGraphic" in2="effect1_dropShadow_2418_11143" result="shape"/>
</filter>
<filter id="filter1_d_2418_11143" x="46.9514" y="92.4768" width="42.4473" height="27.7301" filterUnits="userSpaceOnUse" color-interpolation-filters="sRGB">
<feFlood flood-opacity="0" result="BackgroundImageFix"/>
<feColorMatrix in="SourceAlpha" type="matrix" values="0 0 0 0 0 0 0 0 0 0 0 0 0 0 0 0 0 0 127 0" result="hardAlpha"/>
<feOffset/>
<feGaussianBlur stdDeviation="2.56729"/>
<feComposite in2="hardAlpha" operator="out"/>
<feColorMatrix type="matrix" values="0 0 0 0 0 0 0 0 0 0 0 0 0 0 0 0 0 0 0.4 0"/>
<feBlend mode="normal" in2="BackgroundImageFix" result="effect1_dropShadow_2418_11143"/>
<feBlend mode="normal" in="SourceGraphic" in2="effect1_dropShadow_2418_11143" result="shape"/>
</filter>
<filter id="filter2_d_2418_11143" x="99.2467" y="24.6714" width="143.833" height="66.4226" filterUnits="userSpaceOnUse" color-interpolation-filters="sRGB">
<feFlood flood-opacity="0" result="BackgroundImageFix"/>
<feColorMatrix in="SourceAlpha" type="matrix" values="0 0 0 0 0 0 0 0 0 0 0 0 0 0 0 0 0 0 127 0" result="hardAlpha"/>
<feOffset dy="2.56729"/>
<feGaussianBlur stdDeviation="1.92547"/>
<feComposite in2="hardAlpha" operator="out"/>
<feColorMatrix type="matrix" values="0 0 0 0 0 0 0 0 0 0 0 0 0 0 0 0 0 0 0.2 0"/>
<feBlend mode="normal" in2="BackgroundImageFix" result="effect1_dropShadow_2418_11143"/>
<feBlend mode="normal" in="SourceGraphic" in2="effect1_dropShadow_2418_11143" result="shape"/>
</filter>
<filter id="filter3_d_2418_11143" x="216.43" y="46.5562" width="99.0399" height="124.827" filterUnits="userSpaceOnUse" color-interpolation-filters="sRGB">
<feFlood flood-opacity="0" result="BackgroundImageFix"/>
<feColorMatrix in="SourceAlpha" type="matrix" values="0 0 0 0 0 0 0 0 0 0 0 0 0 0 0 0 0 0 127 0" result="hardAlpha"/>
<feOffset dy="2.56729"/>
<feGaussianBlur stdDeviation="1.92547"/>
<feComposite in2="hardAlpha" operator="out"/>
<feColorMatrix type="matrix" values="0 0 0 0 0 0 0 0 0 0 0 0 0 0 0 0 0 0 0.2 0"/>
<feBlend mode="normal" in2="BackgroundImageFix" result="effect1_dropShadow_2418_11143"/>
<feBlend mode="normal" in="SourceGraphic" in2="effect1_dropShadow_2418_11143" result="shape"/>
</filter>
<linearGradient id="paint0_linear_2418_11143" x1="35.6591" y1="68.2056" x2="131.716" y2="143.225" gradientUnits="userSpaceOnUse">
<stop stop-color="#3CD65B" stop-opacity="0"/>
<stop offset="0.509615" stop-color="#13C537"/>
<stop offset="1" stop-color="#3CD65B" stop-opacity="0"/>
</linearGradient>
<linearGradient id="paint1_linear_2418_11143" x1="172.747" y1="25.5042" x2="169.747" y2="76.5791" gradientUnits="userSpaceOnUse">
<stop stop-color="white"/>
<stop offset="1" stop-color="white" stop-opacity="0.46"/>
</linearGradient>
<linearGradient id="paint2_linear_2418_11143" x1="169.702" y1="25.9551" x2="169.98" y2="36.8198" gradientUnits="userSpaceOnUse">
<stop stop-color="white"/>
<stop offset="1" stop-color="white" stop-opacity="0.46"/>
</linearGradient>
<linearGradient id="paint3_linear_2418_11143" x1="264.97" y1="47.8398" x2="266.609" y2="69.4002" gradientUnits="userSpaceOnUse">
<stop stop-color="white"/>
<stop offset="1" stop-color="white" stop-opacity="0.46"/>
</linearGradient>
<clipPath id="clip0_2418_11143">
<rect width="340" height="166" fill="white"/>
</clipPath>
</defs>
</svg>
