<svg width="315" height="149" viewBox="0 0 315 149" fill="none" xmlns="http://www.w3.org/2000/svg">
<path d="M0.980469 141.826C0.980469 113.39 8.48947 85.4379 22.7762 60.6931C37.0629 35.9483 57.6403 15.2538 82.5045 0.625L144.749 102.381C137.803 106.467 132.054 112.248 128.063 119.161C124.072 126.074 121.974 133.882 121.974 141.826H0.980469Z" fill="url(#paint0_linear_2392_11350)"/>
<g filter="url(#filter0_d_2392_11350)">
<path d="M33.2629 140.912C30.9232 140.912 29.0196 139.015 29.0918 136.676C29.7852 114.24 35.9784 92.2841 47.1645 72.7144C58.3611 53.1263 74.2007 36.5576 93.2903 24.4234C95.2533 23.1756 97.841 23.8272 99.0459 25.8168L119.814 60.1101C121.033 62.1233 120.371 64.7361 118.407 66.0321C106.576 73.837 96.742 84.2964 89.7186 96.5837C82.694 108.873 78.6986 122.61 78.0295 136.677C77.9183 139.014 76.0321 140.912 73.6923 140.912H33.2629Z" fill="#41E763"/>
<path d="M93.6348 24.9648C95.2834 23.9171 97.4721 24.4569 98.4971 26.1494L119.265 60.4424C120.295 62.1441 119.746 64.3792 118.054 65.4961C106.139 73.3561 96.2348 83.8905 89.1611 96.2656C82.0865 108.643 78.0627 122.478 77.3887 136.646C77.2928 138.661 75.6702 140.27 73.6924 140.271H33.2627C31.2722 140.27 29.6729 138.66 29.7334 136.696C30.4235 114.365 36.5877 92.5118 47.7217 73.0332C58.8663 53.5361 74.6327 37.0434 93.6348 24.9648Z" stroke="url(#paint1_linear_2392_11350)" stroke-width="1.28364"/>
</g>
<g filter="url(#filter1_d_2392_11350)">
<path d="M65.0703 79.709H67.4727V81.7793H65.0703V87.5605H62.5703V74.6113H65.0703V79.709ZM65.7148 92.0723H53.5469V86.1934H56.0273V90.0801H65.7148V92.0723ZM55.9688 75.7637C56.8672 75.7637 57.6842 75.959 58.4199 76.3496C59.1621 76.7337 59.7448 77.2708 60.168 77.9609C60.5977 78.6445 60.8125 79.416 60.8125 80.2754C60.8125 81.1283 60.5977 81.8997 60.168 82.5898C59.7448 83.2734 59.1621 83.8105 58.4199 84.2012C57.6842 84.5918 56.8672 84.7871 55.9688 84.7871C55.0638 84.7871 54.2402 84.5918 53.498 84.2012C52.7559 83.8105 52.1667 83.2734 51.7305 82.5898C51.3008 81.8997 51.0859 81.1283 51.0859 80.2754C51.0859 79.416 51.3008 78.6445 51.7305 77.9609C52.1602 77.2708 52.7461 76.7337 53.4883 76.3496C54.237 75.959 55.0638 75.7637 55.9688 75.7637ZM55.9688 77.9316C55.513 77.9251 55.0996 78.0163 54.7285 78.2051C54.3639 78.3874 54.0742 78.6576 53.8594 79.0156C53.6445 79.3737 53.5404 79.7936 53.5469 80.2754C53.5404 80.7441 53.6445 81.1576 53.8594 81.5156C54.0742 81.8672 54.3672 82.1406 54.7383 82.3359C55.1094 82.5247 55.5195 82.6191 55.9688 82.6191C56.4245 82.6191 56.8346 82.5247 57.1992 82.3359C57.5638 82.1406 57.8503 81.8672 58.0586 81.5156C58.2734 81.1576 58.3841 80.7441 58.3906 80.2754C58.3841 79.7936 58.2734 79.3737 58.0586 79.0156C57.8503 78.6576 57.5638 78.3874 57.1992 78.2051C56.8346 78.0163 56.4245 77.9251 55.9688 77.9316ZM82.8344 87.5996H80.3539V81.2324H77.4438V79.2207H80.3539V74.6309H82.8344V87.5996ZM83.2641 92.0723H71.0375V86.4668H73.5375V90.0801H83.2641V92.0723ZM74.5727 78.1074C74.5727 78.8171 74.7191 79.5104 75.0121 80.1875C75.3116 80.8646 75.7673 81.4766 76.3793 82.0234C76.9913 82.5703 77.7497 82.9902 78.6547 83.2832L77.4242 85.2559C76.4672 84.9499 75.6436 84.4909 74.9535 83.8789C74.2699 83.2669 73.7263 82.5443 73.3227 81.7109C72.919 82.6354 72.3559 83.4329 71.6332 84.1035C70.9171 84.7741 70.0479 85.2819 69.0258 85.627L67.7563 83.5957C68.6938 83.3027 69.4815 82.8698 70.1195 82.2969C70.7641 81.724 71.2426 81.0762 71.5551 80.3535C71.8676 79.6243 72.0271 78.8691 72.0336 78.0879V77.8145H68.4594V75.8223H78.1078V77.8145H74.5727V78.1074Z" fill="white"/>
</g>
<g filter="url(#filter2_d_2392_11350)">
<path d="M237.668 24.4925C238.845 22.4471 238.113 19.8395 236 18.7557C215.695 8.34107 193.086 2.90829 170.121 2.95538C147.156 3.00248 124.571 8.52789 104.311 19.0256C102.203 20.1181 101.482 22.7289 102.667 24.7694L122.864 59.5262C124.036 61.5434 126.63 62.2394 128.731 61.1918C141.568 54.7918 155.781 51.4279 170.225 51.3983C184.669 51.3687 198.896 54.6742 211.76 61.0215C213.866 62.0605 216.457 61.3538 217.621 59.3316L237.668 24.4925Z" fill="#FFCD42"/>
<path d="M170.123 3.59766C192.986 3.55083 215.493 8.95944 235.707 19.3271C237.486 20.2395 238.111 22.4374 237.112 24.1729L217.064 59.0117C216.081 60.7213 213.866 61.3453 212.044 60.4463C199.091 54.0551 184.767 50.727 170.224 50.7568C155.681 50.7867 141.37 54.173 128.445 60.6172C126.627 61.5236 124.41 60.9094 123.419 59.2041L103.223 24.4473C102.217 22.7159 102.832 20.5154 104.606 19.5957C124.776 9.14523 147.26 3.64454 170.123 3.59766Z" stroke="url(#paint2_linear_2392_11350)" stroke-opacity="0.36" stroke-width="1.28364"/>
</g>
<g filter="url(#filter3_d_2392_11350)">
<path d="M306.446 141.965C308.786 141.965 310.69 140.068 310.617 137.729C309.924 115.293 303.731 93.3368 292.545 73.7672C281.348 54.179 265.508 37.6103 246.419 25.4761C244.456 24.2284 241.868 24.8799 240.663 26.8695L219.895 61.1629C218.676 63.176 219.338 65.7888 221.302 67.0849C233.133 74.8898 242.967 85.3492 249.991 97.6364C257.015 109.926 261.011 123.662 261.68 137.73C261.791 140.067 263.677 141.965 266.017 141.965H306.446Z" fill="#FF4E4E"/>
<path d="M241.212 27.2021C242.237 25.5097 244.426 24.9699 246.074 26.0176C265.076 38.0961 280.843 54.5888 291.987 74.0859C303.121 93.5645 309.285 115.418 309.976 137.749C310.036 139.712 308.437 141.323 306.446 141.323H266.017C264.039 141.323 262.416 139.714 262.32 137.699C261.646 123.531 257.622 109.695 250.548 97.3184C243.474 84.9432 233.57 74.4088 221.655 66.5488C219.963 65.4319 219.414 63.1968 220.444 61.4951L241.212 27.2021Z" stroke="url(#paint3_linear_2392_11350)" stroke-opacity="0.36" stroke-width="1.28364"/>
</g>
<defs>
<filter id="filter0_d_2392_11350" x="25.2389" y="22.5035" width="99.04" height="124.827" filterUnits="userSpaceOnUse" color-interpolation-filters="sRGB">
<feFlood flood-opacity="0" result="BackgroundImageFix"/>
<feColorMatrix in="SourceAlpha" type="matrix" values="0 0 0 0 0 0 0 0 0 0 0 0 0 0 0 0 0 0 127 0" result="hardAlpha"/>
<feOffset dy="2.56729"/>
<feGaussianBlur stdDeviation="1.92547"/>
<feComposite in2="hardAlpha" operator="out"/>
<feColorMatrix type="matrix" values="0 0 0 0 0 0 0 0 0 0 0 0 0 0 0 0 0 0 0.2 0"/>
<feBlend mode="normal" in2="BackgroundImageFix" result="effect1_dropShadow_2392_11350"/>
<feBlend mode="normal" in="SourceGraphic" in2="effect1_dropShadow_2392_11350" result="shape"/>
</filter>
<filter id="filter1_d_2392_11350" x="45.9514" y="69.4768" width="42.4473" height="27.7301" filterUnits="userSpaceOnUse" color-interpolation-filters="sRGB">
<feFlood flood-opacity="0" result="BackgroundImageFix"/>
<feColorMatrix in="SourceAlpha" type="matrix" values="0 0 0 0 0 0 0 0 0 0 0 0 0 0 0 0 0 0 127 0" result="hardAlpha"/>
<feOffset/>
<feGaussianBlur stdDeviation="2.56729"/>
<feComposite in2="hardAlpha" operator="out"/>
<feColorMatrix type="matrix" values="0 0 0 0 0 0 0 0 0 0 0 0 0 0 0 0 0 0 0.4 0"/>
<feBlend mode="normal" in2="BackgroundImageFix" result="effect1_dropShadow_2392_11350"/>
<feBlend mode="normal" in="SourceGraphic" in2="effect1_dropShadow_2392_11350" result="shape"/>
</filter>
<filter id="filter2_d_2392_11350" x="98.2467" y="1.67143" width="143.833" height="66.4226" filterUnits="userSpaceOnUse" color-interpolation-filters="sRGB">
<feFlood flood-opacity="0" result="BackgroundImageFix"/>
<feColorMatrix in="SourceAlpha" type="matrix" values="0 0 0 0 0 0 0 0 0 0 0 0 0 0 0 0 0 0 127 0" result="hardAlpha"/>
<feOffset dy="2.56729"/>
<feGaussianBlur stdDeviation="1.92547"/>
<feComposite in2="hardAlpha" operator="out"/>
<feColorMatrix type="matrix" values="0 0 0 0 0 0 0 0 0 0 0 0 0 0 0 0 0 0 0.2 0"/>
<feBlend mode="normal" in2="BackgroundImageFix" result="effect1_dropShadow_2392_11350"/>
<feBlend mode="normal" in="SourceGraphic" in2="effect1_dropShadow_2392_11350" result="shape"/>
</filter>
<filter id="filter3_d_2392_11350" x="215.43" y="23.5562" width="99.0399" height="124.827" filterUnits="userSpaceOnUse" color-interpolation-filters="sRGB">
<feFlood flood-opacity="0" result="BackgroundImageFix"/>
<feColorMatrix in="SourceAlpha" type="matrix" values="0 0 0 0 0 0 0 0 0 0 0 0 0 0 0 0 0 0 127 0" result="hardAlpha"/>
<feOffset dy="2.56729"/>
<feGaussianBlur stdDeviation="1.92547"/>
<feComposite in2="hardAlpha" operator="out"/>
<feColorMatrix type="matrix" values="0 0 0 0 0 0 0 0 0 0 0 0 0 0 0 0 0 0 0.2 0"/>
<feBlend mode="normal" in2="BackgroundImageFix" result="effect1_dropShadow_2392_11350"/>
<feBlend mode="normal" in="SourceGraphic" in2="effect1_dropShadow_2392_11350" result="shape"/>
</filter>
<linearGradient id="paint0_linear_2392_11350" x1="34.6591" y1="45.2056" x2="130.716" y2="120.225" gradientUnits="userSpaceOnUse">
<stop stop-color="#3CD65B" stop-opacity="0"/>
<stop offset="0.509615" stop-color="#13C537"/>
<stop offset="1" stop-color="#3CD65B" stop-opacity="0"/>
</linearGradient>
<linearGradient id="paint1_linear_2392_11350" x1="171.747" y1="2.5042" x2="168.747" y2="53.5791" gradientUnits="userSpaceOnUse">
<stop stop-color="white"/>
<stop offset="1" stop-color="white" stop-opacity="0.46"/>
</linearGradient>
<linearGradient id="paint2_linear_2392_11350" x1="168.702" y1="2.95508" x2="168.98" y2="13.8198" gradientUnits="userSpaceOnUse">
<stop stop-color="white"/>
<stop offset="1" stop-color="white" stop-opacity="0.46"/>
</linearGradient>
<linearGradient id="paint3_linear_2392_11350" x1="263.97" y1="24.8398" x2="265.609" y2="46.4002" gradientUnits="userSpaceOnUse">
<stop stop-color="white"/>
<stop offset="1" stop-color="white" stop-opacity="0.46"/>
</linearGradient>
</defs>
</svg>
