<svg width="340" height="166" viewBox="0 0 340 166" fill="none" xmlns="http://www.w3.org/2000/svg">
<g clip-path="url(#clip0_2418_11142)">
<path d="M252.455 22.5287C227.576 8.29043 199.366 0.742057 170.572 0.618724C141.778 0.49539 113.381 7.8013 88.1484 21.8249L146.047 126.218C153.096 122.3 161.029 120.259 169.073 120.294C177.117 120.328 184.997 122.437 191.947 126.414L252.455 22.5287Z" fill="url(#paint0_linear_2418_11142)"/>
<g filter="url(#filter0_d_2418_11142)">
<path d="M32.9091 165.748C30.5421 165.748 28.6164 163.851 28.6895 161.512C29.391 139.076 35.6561 117.12 46.9722 97.5504C58.299 77.9622 74.3227 61.3935 93.6342 49.2593C95.62 48.0116 98.2377 48.6631 99.4566 50.6527L120.466 84.9461C121.699 86.9593 121.03 89.572 119.043 90.8681C107.074 98.673 97.126 109.132 90.0209 121.42C82.9147 133.709 78.8729 147.446 78.196 161.513C78.0835 163.85 76.1753 165.748 73.8084 165.748H32.9091Z" fill="#41E763"/>
<path d="M93.9756 49.8027C95.651 48.75 97.8721 49.2954 98.9092 50.9883L119.919 85.2812C120.959 86.9791 120.407 89.2114 118.692 90.3301C106.641 98.1894 96.6209 108.723 89.4648 121.099C82.3078 133.476 78.2366 147.312 77.5547 161.482C77.458 163.49 75.8201 165.106 73.8086 165.106H32.9092C30.884 165.106 29.2699 163.488 29.3311 161.532C30.0292 139.202 36.2651 117.35 47.5283 97.8721C58.8023 78.3753 74.7515 61.882 93.9756 49.8027Z" stroke="url(#paint1_linear_2418_11142)" stroke-opacity="0.36" stroke-width="1.28364"/>
</g>
<g filter="url(#filter1_d_2418_11142)">
<path d="M236.751 49.4007C237.915 47.3553 237.191 44.7477 235.102 43.6639C215.03 33.2493 192.682 27.8165 169.98 27.8636C147.279 27.9107 124.954 33.4361 104.926 43.9338C102.842 45.0263 102.129 47.6371 103.301 49.6776L123.266 84.4344C124.424 86.4517 126.989 87.1476 129.066 86.1C141.755 79.7 155.805 76.3361 170.083 76.3065C184.361 76.2769 198.425 79.5824 211.141 85.9297C213.222 86.9687 215.784 86.262 216.934 84.2398L236.751 49.4007Z" fill="#FFCD42"/>
<path d="M169.981 28.5059C192.579 28.459 214.827 33.8664 234.807 44.2334C236.561 45.1434 237.183 47.3429 236.193 49.083L216.376 83.9229C215.403 85.632 213.221 86.2504 211.428 85.3555C198.622 78.9635 184.459 75.6352 170.081 75.665C155.703 75.6949 141.555 79.0824 128.777 85.5273C126.988 86.43 124.802 85.8197 123.822 84.1143L103.858 49.3584C102.861 47.6224 103.474 45.4194 105.225 44.502C125.16 34.0524 147.384 28.5528 169.981 28.5059Z" stroke="url(#paint2_linear_2418_11142)" stroke-width="1.28364"/>
</g>
<g filter="url(#filter2_d_2418_11142)">
<path d="M168.418 55.4531H161.504V61.4297H159.043V55.4531H152.207V53.4609H168.418V55.4531ZM166.973 46.5469H161.787C161.872 47.1458 162.152 47.7188 162.627 48.2656C163.102 48.806 163.766 49.2747 164.619 49.6719C165.472 50.0625 166.484 50.3294 167.656 50.4727L166.758 52.4258C165.221 52.2174 163.9 51.8008 162.793 51.1758C161.693 50.5508 160.869 49.7728 160.322 48.8418C159.769 49.7728 158.945 50.5508 157.852 51.1758C156.758 51.8008 155.449 52.2174 153.926 52.4258L153.008 50.4727C154.16 50.3294 155.16 50.0625 156.006 49.6719C156.859 49.2747 157.523 48.806 157.998 48.2656C158.48 47.7188 158.766 47.1458 158.857 46.5469H153.672V44.5938H166.973V46.5469ZM174.854 44.8477C175.778 44.8411 176.615 45.0267 177.364 45.4043C178.119 45.7754 178.708 46.293 179.131 46.957C179.561 47.6211 179.776 48.3698 179.776 49.2031C179.776 50.043 179.561 50.7949 179.131 51.459C178.708 52.123 178.122 52.6439 177.373 53.0215C176.625 53.3926 175.785 53.5781 174.854 53.5781C173.923 53.5781 173.08 53.3926 172.325 53.0215C171.576 52.6439 170.987 52.123 170.557 51.459C170.127 50.7949 169.913 50.043 169.913 49.2031C169.913 48.3698 170.127 47.6211 170.557 46.957C170.987 46.293 171.579 45.7754 172.334 45.4043C173.09 45.0267 173.929 44.8411 174.854 44.8477ZM174.854 46.9961C174.385 46.9961 173.962 47.084 173.584 47.2598C173.207 47.4355 172.911 47.6927 172.696 48.0312C172.487 48.3633 172.386 48.7539 172.393 49.2031C172.386 49.6589 172.487 50.0527 172.696 50.3848C172.911 50.7168 173.204 50.9707 173.575 51.1465C173.952 51.3223 174.379 51.4102 174.854 51.4102C175.329 51.4102 175.752 51.3223 176.123 51.1465C176.501 50.9707 176.797 50.7168 177.012 50.3848C177.233 50.0527 177.347 49.6589 177.354 49.2031C177.347 48.7474 177.237 48.3535 177.022 48.0215C176.807 47.6895 176.511 47.4355 176.133 47.2598C175.756 47.084 175.329 46.9961 174.854 46.9961ZM184.034 61.4688H181.553V43.6562H184.034V61.4688ZM170.147 55.8047C174.32 55.8047 177.784 55.6159 180.538 55.2383L180.733 57.0352C178.988 57.3737 177.207 57.5918 175.391 57.6895C173.575 57.7871 171.599 57.8359 169.463 57.8359L169.17 55.8047H170.147Z" fill="white"/>
</g>
<g filter="url(#filter3_d_2418_11142)">
<path d="M306.325 165.303C308.665 165.303 310.569 163.405 310.496 161.067C309.803 138.631 303.61 116.675 292.424 97.1051C281.227 77.5169 265.387 60.9482 246.298 48.814C244.335 47.5663 241.747 48.2178 240.542 50.2074L219.774 84.5008C218.555 86.5139 219.217 89.1267 221.181 90.4228C233.012 98.2277 242.846 108.687 249.87 120.974C256.894 133.263 260.889 147 261.559 161.068C261.67 163.405 263.556 165.303 265.896 165.303H306.325Z" fill="#FF4E4E"/>
<path d="M241.091 50.54C242.116 48.8475 244.305 48.3078 245.953 49.3555C264.955 61.434 280.722 77.9267 291.866 97.4238C303 116.902 309.164 138.756 309.854 161.087C309.915 163.05 308.316 164.661 306.325 164.661H265.896C263.918 164.661 262.295 163.051 262.199 161.037C261.525 146.868 257.501 133.033 250.427 120.656C243.353 108.281 233.449 97.7467 221.534 89.8867C219.842 88.7698 219.293 86.5347 220.323 84.833L241.091 50.54Z" stroke="url(#paint3_linear_2418_11142)" stroke-opacity="0.36" stroke-width="1.28364"/>
</g>
</g>
<defs>
<filter id="filter0_d_2418_11142" x="24.8366" y="47.3394" width="100.102" height="124.827" filterUnits="userSpaceOnUse" color-interpolation-filters="sRGB">
<feFlood flood-opacity="0" result="BackgroundImageFix"/>
<feColorMatrix in="SourceAlpha" type="matrix" values="0 0 0 0 0 0 0 0 0 0 0 0 0 0 0 0 0 0 127 0" result="hardAlpha"/>
<feOffset dy="2.56729"/>
<feGaussianBlur stdDeviation="1.92547"/>
<feComposite in2="hardAlpha" operator="out"/>
<feColorMatrix type="matrix" values="0 0 0 0 0 0 0 0 0 0 0 0 0 0 0 0 0 0 0.2 0"/>
<feBlend mode="normal" in2="BackgroundImageFix" result="effect1_dropShadow_2418_11142"/>
<feBlend mode="normal" in="SourceGraphic" in2="effect1_dropShadow_2418_11142" result="shape"/>
</filter>
<filter id="filter1_d_2418_11142" x="98.8873" y="26.5796" width="142.269" height="66.4226" filterUnits="userSpaceOnUse" color-interpolation-filters="sRGB">
<feFlood flood-opacity="0" result="BackgroundImageFix"/>
<feColorMatrix in="SourceAlpha" type="matrix" values="0 0 0 0 0 0 0 0 0 0 0 0 0 0 0 0 0 0 127 0" result="hardAlpha"/>
<feOffset dy="2.56729"/>
<feGaussianBlur stdDeviation="1.92547"/>
<feComposite in2="hardAlpha" operator="out"/>
<feColorMatrix type="matrix" values="0 0 0 0 0 0 0 0 0 0 0 0 0 0 0 0 0 0 0.2 0"/>
<feBlend mode="normal" in2="BackgroundImageFix" result="effect1_dropShadow_2418_11142"/>
<feBlend mode="normal" in="SourceGraphic" in2="effect1_dropShadow_2418_11142" result="shape"/>
</filter>
<filter id="filter2_d_2418_11142" x="147.072" y="38.5217" width="42.0957" height="28.0817" filterUnits="userSpaceOnUse" color-interpolation-filters="sRGB">
<feFlood flood-opacity="0" result="BackgroundImageFix"/>
<feColorMatrix in="SourceAlpha" type="matrix" values="0 0 0 0 0 0 0 0 0 0 0 0 0 0 0 0 0 0 127 0" result="hardAlpha"/>
<feOffset/>
<feGaussianBlur stdDeviation="2.56729"/>
<feComposite in2="hardAlpha" operator="out"/>
<feColorMatrix type="matrix" values="0 0 0 0 0 0 0 0 0 0 0 0 0 0 0 0 0 0 0.4 0"/>
<feBlend mode="normal" in2="BackgroundImageFix" result="effect1_dropShadow_2418_11142"/>
<feBlend mode="normal" in="SourceGraphic" in2="effect1_dropShadow_2418_11142" result="shape"/>
</filter>
<filter id="filter3_d_2418_11142" x="215.309" y="46.8941" width="99.04" height="124.827" filterUnits="userSpaceOnUse" color-interpolation-filters="sRGB">
<feFlood flood-opacity="0" result="BackgroundImageFix"/>
<feColorMatrix in="SourceAlpha" type="matrix" values="0 0 0 0 0 0 0 0 0 0 0 0 0 0 0 0 0 0 127 0" result="hardAlpha"/>
<feOffset dy="2.56729"/>
<feGaussianBlur stdDeviation="1.92547"/>
<feComposite in2="hardAlpha" operator="out"/>
<feColorMatrix type="matrix" values="0 0 0 0 0 0 0 0 0 0 0 0 0 0 0 0 0 0 0.2 0"/>
<feBlend mode="normal" in2="BackgroundImageFix" result="effect1_dropShadow_2418_11142"/>
<feBlend mode="normal" in="SourceGraphic" in2="effect1_dropShadow_2418_11142" result="shape"/>
</filter>
<linearGradient id="paint0_linear_2418_11142" x1="167.497" y1="3.25632" x2="167.497" y2="123.264" gradientUnits="userSpaceOnUse">
<stop offset="0.000100017" stop-color="#FFA600" stop-opacity="0"/>
<stop offset="0.557692" stop-color="#FF9900"/>
<stop offset="1" stop-color="#FFA600" stop-opacity="0"/>
</linearGradient>
<linearGradient id="paint1_linear_2418_11142" x1="73.8952" y1="48.623" x2="75.5162" y2="70.1862" gradientUnits="userSpaceOnUse">
<stop stop-color="white"/>
<stop offset="1" stop-color="white" stop-opacity="0.46"/>
</linearGradient>
<linearGradient id="paint2_linear_2418_11142" x1="137.57" y1="27.8633" x2="186.471" y2="99.4521" gradientUnits="userSpaceOnUse">
<stop stop-color="white"/>
<stop offset="1" stop-color="white" stop-opacity="0.46"/>
</linearGradient>
<linearGradient id="paint3_linear_2418_11142" x1="263.848" y1="48.1777" x2="265.488" y2="69.7381" gradientUnits="userSpaceOnUse">
<stop stop-color="white"/>
<stop offset="1" stop-color="white" stop-opacity="0.46"/>
</linearGradient>
<clipPath id="clip0_2418_11142">
<rect width="340" height="166" fill="white"/>
</clipPath>
</defs>
</svg>
