<svg width="340" height="166" viewBox="0 0 340 166" fill="none" xmlns="http://www.w3.org/2000/svg">
<g clip-path="url(#clip0_2418_11152)">
<path d="M338.639 165.619C338.639 137.182 331.13 109.231 316.843 84.486C302.557 59.7412 281.979 39.0467 257.115 24.418L194.871 126.174C201.817 130.26 207.565 136.041 211.556 142.954C215.548 149.867 217.645 157.675 217.645 165.619H338.639Z" fill="url(#paint0_linear_2418_11152)"/>
<g filter="url(#filter0_d_2418_11152)">
<path d="M33.2138 165.537C30.8468 165.537 28.9211 163.64 28.9942 161.301C29.6957 138.865 35.9608 116.909 47.2769 97.3395C58.6037 77.7513 74.6274 61.1826 93.9389 49.0484C95.9247 47.8006 98.5424 48.4522 99.7613 50.4418L120.771 84.7351C122.004 86.7483 121.335 89.3611 119.347 90.6571C107.379 98.462 97.4307 108.921 90.3256 121.209C83.2194 133.498 79.1776 147.235 78.5007 161.302C78.3882 163.639 76.48 165.537 74.1131 165.537H33.2138Z" fill="#41E763"/>
<path d="M94.2803 49.5918C95.9557 48.5391 98.1767 49.0845 99.2139 50.7773L120.224 85.0703C121.264 86.7682 120.712 89.0004 118.997 90.1191C106.945 97.9785 96.9256 108.512 89.7695 120.888C82.6125 133.265 78.5412 147.102 77.8594 161.271C77.7627 163.279 76.1248 164.895 74.1133 164.896H33.2139C31.1887 164.896 29.5746 163.278 29.6357 161.321C30.3339 138.992 36.5698 117.139 47.833 97.6611C59.107 78.1643 75.0562 61.6711 94.2803 49.5918Z" stroke="url(#paint1_linear_2418_11152)" stroke-opacity="0.36" stroke-width="1.28364"/>
</g>
<g filter="url(#filter1_d_2418_11152)">
<path d="M237.848 48.6644C239.025 46.619 238.293 44.0113 236.18 42.9276C215.875 32.5129 193.266 27.0802 170.301 27.1273C147.336 27.1744 124.751 32.6998 104.491 43.1975C102.382 44.29 101.661 46.9007 102.847 48.9413L123.043 83.6981C124.216 85.7153 126.81 86.4113 128.911 85.3637C141.747 78.9636 155.96 75.5998 170.405 75.5702C184.849 75.5406 199.076 78.8461 211.94 85.1934C214.046 86.2324 216.637 85.5256 217.801 83.5035L237.848 48.6644Z" fill="#FFCD42"/>
<path d="M170.303 27.7695C193.166 27.7227 215.673 33.1313 235.887 43.499C237.665 44.4114 238.291 46.6092 237.292 48.3447L217.244 83.1836C216.26 84.8932 214.046 85.5172 212.224 84.6182C199.271 78.2269 184.946 74.8989 170.403 74.9287C155.861 74.9585 141.55 78.3449 128.625 84.7891C126.807 85.6955 124.59 85.0813 123.599 83.376L103.402 48.6191C102.396 46.8877 103.011 44.6872 104.786 43.7676C124.955 33.3171 147.44 27.8164 170.303 27.7695Z" stroke="url(#paint2_linear_2418_11152)" stroke-opacity="0.36" stroke-width="1.28364"/>
</g>
<g filter="url(#filter2_d_2418_11152)">
<path d="M307.323 165.537C309.69 165.537 311.615 163.64 311.542 161.301C310.841 138.865 304.576 116.909 293.26 97.3395C281.933 77.7513 265.909 61.1826 246.598 49.0484C244.612 47.8006 241.994 48.4522 240.775 50.4418L219.766 84.7351C218.532 86.7483 219.202 89.3611 221.189 90.6571C233.157 98.462 243.106 108.921 250.211 121.209C257.317 133.498 261.359 147.235 262.036 161.302C262.148 163.639 264.056 165.537 266.423 165.537H307.323Z" fill="#F24E4E"/>
<path d="M241.322 50.7773C242.359 49.0845 244.58 48.5392 246.256 49.5918C265.48 61.6711 281.43 78.1643 292.704 97.6611C303.967 117.139 310.202 138.992 310.9 161.321C310.962 163.278 309.347 164.896 307.322 164.896H266.424C264.412 164.896 262.773 163.279 262.677 161.271C261.995 147.101 257.924 133.265 250.767 120.888C243.611 108.512 233.592 97.9784 221.54 90.1191C219.825 89.0005 219.273 86.7683 220.313 85.0703L241.322 50.7773Z" stroke="url(#paint3_linear_2418_11152)" stroke-width="1.28364"/>
</g>
<g filter="url(#filter3_d_2418_11152)">
<path d="M257.754 98.3379C258.652 98.3314 259.456 98.4876 260.166 98.8066C260.876 99.1191 261.432 99.5651 261.836 100.145C262.24 100.717 262.441 101.372 262.441 102.107C262.441 102.837 262.24 103.491 261.836 104.07C261.432 104.643 260.872 105.089 260.156 105.408C259.447 105.727 258.646 105.883 257.754 105.877C256.855 105.883 256.051 105.727 255.342 105.408C254.632 105.089 254.076 104.643 253.672 104.07C253.275 103.491 253.079 102.837 253.086 102.107C253.079 101.372 253.275 100.717 253.672 100.145C254.076 99.5651 254.632 99.1191 255.342 98.8066C256.051 98.4876 256.855 98.3314 257.754 98.3379ZM257.754 100.33C257.077 100.33 256.53 100.49 256.113 100.809C255.697 101.121 255.488 101.554 255.488 102.107C255.488 102.654 255.697 103.084 256.113 103.396C256.53 103.709 257.077 103.859 257.754 103.846C258.451 103.859 259.01 103.709 259.434 103.396C259.863 103.084 260.078 102.654 260.078 102.107C260.078 101.554 259.863 101.121 259.434 100.809C259.01 100.49 258.451 100.33 257.754 100.33ZM266.934 115.369H264.473V97.6152H266.934V115.369ZM251.992 106.971C256.719 106.971 260.521 106.756 263.398 106.326L263.555 108.162C262.207 108.429 260.723 108.628 259.102 108.758V114.842H256.621V108.904C255.475 108.956 254.271 108.982 253.008 108.982C252.852 108.995 252.617 109.002 252.305 109.002L251.992 106.971ZM283.819 108.338H281.338V104.842H279.034V102.811H281.338V97.5957H283.819V108.338ZM283.819 115.174H271.866V109.1H283.819V115.174ZM274.366 113.182H281.377V111.053H274.366V113.182ZM279.346 101.131H268.877V99.1387H272.901V97.4395H275.362V99.1387H279.346V101.131ZM274.131 101.717C274.952 101.717 275.684 101.854 276.329 102.127C276.98 102.4 277.484 102.778 277.842 103.26C278.207 103.742 278.389 104.288 278.389 104.9C278.389 105.538 278.207 106.102 277.842 106.59C277.484 107.072 276.983 107.449 276.338 107.723C275.694 107.99 274.958 108.123 274.131 108.123C273.311 108.123 272.575 107.99 271.924 107.723C271.273 107.449 270.765 107.068 270.401 106.58C270.036 106.092 269.854 105.532 269.854 104.9C269.854 104.288 270.036 103.742 270.401 103.26C270.772 102.778 271.283 102.4 271.934 102.127C272.585 101.854 273.317 101.717 274.131 101.717ZM274.131 103.592C273.545 103.592 273.083 103.706 272.745 103.934C272.413 104.161 272.25 104.484 272.256 104.9C272.25 105.343 272.413 105.685 272.745 105.926C273.083 106.167 273.545 106.287 274.131 106.287C274.711 106.287 275.166 106.167 275.498 105.926C275.837 105.685 276.006 105.343 276.006 104.9C276.006 104.484 275.837 104.161 275.498 103.934C275.16 103.706 274.704 103.592 274.131 103.592Z" fill="white"/>
</g>
</g>
<defs>
<filter id="filter0_d_2418_11152" x="25.1413" y="47.1285" width="100.102" height="124.827" filterUnits="userSpaceOnUse" color-interpolation-filters="sRGB">
<feFlood flood-opacity="0" result="BackgroundImageFix"/>
<feColorMatrix in="SourceAlpha" type="matrix" values="0 0 0 0 0 0 0 0 0 0 0 0 0 0 0 0 0 0 127 0" result="hardAlpha"/>
<feOffset dy="2.56729"/>
<feGaussianBlur stdDeviation="1.92547"/>
<feComposite in2="hardAlpha" operator="out"/>
<feColorMatrix type="matrix" values="0 0 0 0 0 0 0 0 0 0 0 0 0 0 0 0 0 0 0.2 0"/>
<feBlend mode="normal" in2="BackgroundImageFix" result="effect1_dropShadow_2418_11152"/>
<feBlend mode="normal" in="SourceGraphic" in2="effect1_dropShadow_2418_11152" result="shape"/>
</filter>
<filter id="filter1_d_2418_11152" x="98.4264" y="25.8433" width="143.833" height="66.4226" filterUnits="userSpaceOnUse" color-interpolation-filters="sRGB">
<feFlood flood-opacity="0" result="BackgroundImageFix"/>
<feColorMatrix in="SourceAlpha" type="matrix" values="0 0 0 0 0 0 0 0 0 0 0 0 0 0 0 0 0 0 127 0" result="hardAlpha"/>
<feOffset dy="2.56729"/>
<feGaussianBlur stdDeviation="1.92547"/>
<feComposite in2="hardAlpha" operator="out"/>
<feColorMatrix type="matrix" values="0 0 0 0 0 0 0 0 0 0 0 0 0 0 0 0 0 0 0.2 0"/>
<feBlend mode="normal" in2="BackgroundImageFix" result="effect1_dropShadow_2418_11152"/>
<feBlend mode="normal" in="SourceGraphic" in2="effect1_dropShadow_2418_11152" result="shape"/>
</filter>
<filter id="filter2_d_2418_11152" x="215.294" y="47.1285" width="100.102" height="124.827" filterUnits="userSpaceOnUse" color-interpolation-filters="sRGB">
<feFlood flood-opacity="0" result="BackgroundImageFix"/>
<feColorMatrix in="SourceAlpha" type="matrix" values="0 0 0 0 0 0 0 0 0 0 0 0 0 0 0 0 0 0 127 0" result="hardAlpha"/>
<feOffset dy="2.56729"/>
<feGaussianBlur stdDeviation="1.92547"/>
<feComposite in2="hardAlpha" operator="out"/>
<feColorMatrix type="matrix" values="0 0 0 0 0 0 0 0 0 0 0 0 0 0 0 0 0 0 0.2 0"/>
<feBlend mode="normal" in2="BackgroundImageFix" result="effect1_dropShadow_2418_11152"/>
<feBlend mode="normal" in="SourceGraphic" in2="effect1_dropShadow_2418_11152" result="shape"/>
</filter>
<filter id="filter3_d_2418_11152" x="246.858" y="92.3049" width="42.0957" height="28.1988" filterUnits="userSpaceOnUse" color-interpolation-filters="sRGB">
<feFlood flood-opacity="0" result="BackgroundImageFix"/>
<feColorMatrix in="SourceAlpha" type="matrix" values="0 0 0 0 0 0 0 0 0 0 0 0 0 0 0 0 0 0 127 0" result="hardAlpha"/>
<feOffset/>
<feGaussianBlur stdDeviation="2.56729"/>
<feComposite in2="hardAlpha" operator="out"/>
<feColorMatrix type="matrix" values="0 0 0 0 0 0 0 0 0 0 0 0 0 0 0 0 0 0 0.4 0"/>
<feBlend mode="normal" in2="BackgroundImageFix" result="effect1_dropShadow_2418_11152"/>
<feBlend mode="normal" in="SourceGraphic" in2="effect1_dropShadow_2418_11152" result="shape"/>
</filter>
<linearGradient id="paint0_linear_2418_11152" x1="304.956" y1="68.997" x2="208.899" y2="144.016" gradientUnits="userSpaceOnUse">
<stop offset="0.000100017" stop-color="#FF4E4E" stop-opacity="0"/>
<stop offset="0.557692" stop-color="#FF4E4E"/>
<stop offset="1" stop-color="#FF4E4E" stop-opacity="0"/>
</linearGradient>
<linearGradient id="paint1_linear_2418_11152" x1="74.1999" y1="48.4121" x2="75.8209" y2="69.9753" gradientUnits="userSpaceOnUse">
<stop stop-color="white"/>
<stop offset="1" stop-color="white" stop-opacity="0.46"/>
</linearGradient>
<linearGradient id="paint2_linear_2418_11152" x1="168.881" y1="27.127" x2="169.159" y2="37.9917" gradientUnits="userSpaceOnUse">
<stop stop-color="white"/>
<stop offset="1" stop-color="white" stop-opacity="0.46"/>
</linearGradient>
<linearGradient id="paint3_linear_2418_11152" x1="167.23" y1="27.1286" x2="170.196" y2="78.2075" gradientUnits="userSpaceOnUse">
<stop stop-color="white"/>
<stop offset="1" stop-color="white" stop-opacity="0.46"/>
</linearGradient>
<clipPath id="clip0_2418_11152">
<rect width="340" height="166" fill="white"/>
</clipPath>
</defs>
</svg>
