<svg width="291" height="173" viewBox="0 0 291 173" fill="none" xmlns="http://www.w3.org/2000/svg">
<path d="M228.455 22.5287C203.576 8.29043 175.366 0.742057 146.572 0.618724C117.778 0.49539 89.3815 7.8013 64.1484 21.8249L122.047 126.218C129.096 122.3 137.029 120.259 145.073 120.294C153.117 120.328 160.997 122.437 167.947 126.414L228.455 22.5287Z" fill="url(#paint0_linear_2392_11339)"/>
<g filter="url(#filter0_d_2392_11339)">
<path d="M8.90908 165.748C6.54212 165.748 4.6164 163.851 4.68952 161.512C5.39097 139.076 11.6561 117.12 22.9722 97.5504C34.299 77.9622 50.3227 61.3935 69.6342 49.2593C71.62 48.0116 74.2377 48.6631 75.4566 50.6527L96.4661 84.9461C97.6994 86.9593 97.0301 89.572 95.0427 90.8681C83.0743 98.673 73.126 109.132 66.0209 121.42C58.9147 133.709 54.8729 147.446 54.196 161.513C54.0835 163.85 52.1753 165.748 49.8084 165.748H8.90908Z" fill="#41E763"/>
<path d="M69.9756 49.8027C71.651 48.75 73.8721 49.2954 74.9092 50.9883L95.9189 85.2812C96.9591 86.9791 96.4075 89.2114 94.6924 90.3301C82.6406 98.1894 72.6209 108.723 65.4648 121.099C58.3078 133.476 54.2366 147.312 53.5547 161.482C53.458 163.49 51.8201 165.106 49.8086 165.106H8.90918C6.88398 165.106 5.26991 163.488 5.33105 161.532C6.02918 139.202 12.2651 117.35 23.5283 97.8721C34.8023 78.3753 50.7515 61.882 69.9756 49.8027Z" stroke="url(#paint1_linear_2392_11339)" stroke-opacity="0.36" stroke-width="1.28364"/>
</g>
<g filter="url(#filter1_d_2392_11339)">
<path d="M212.751 49.4007C213.915 47.3553 213.191 44.7477 211.102 43.6639C191.03 33.2493 168.682 27.8165 145.98 27.8636C123.279 27.9107 100.954 33.4361 80.9263 43.9338C78.8421 45.0263 78.1294 47.6371 79.3014 49.6776L99.2657 84.4344C100.424 86.4517 102.989 87.1476 105.066 86.1C117.755 79.7 131.805 76.3361 146.083 76.3065C160.361 76.2769 174.425 79.5824 187.141 85.9297C189.222 86.9687 191.784 86.262 192.934 84.2398L212.751 49.4007Z" fill="#FFCD42"/>
<path d="M145.981 28.5059C168.579 28.459 190.827 33.8664 210.807 44.2334C212.561 45.1434 213.183 47.3429 212.193 49.083L192.376 83.9229C191.403 85.632 189.221 86.2504 187.428 85.3555C174.622 78.9635 160.459 75.6352 146.081 75.665C131.703 75.6949 117.555 79.0824 104.777 85.5273C102.988 86.43 100.802 85.8197 99.8223 84.1143L79.8584 49.3584C78.8612 47.6224 79.4743 45.4194 81.2246 44.502C101.16 34.0524 123.384 28.5528 145.981 28.5059Z" stroke="url(#paint2_linear_2392_11339)" stroke-width="1.28364"/>
</g>
<g filter="url(#filter2_d_2392_11339)">
<path d="M144.418 55.4531H137.504V61.4297H135.043V55.4531H128.207V53.4609H144.418V55.4531ZM142.973 46.5469H137.787C137.872 47.1458 138.152 47.7188 138.627 48.2656C139.102 48.806 139.766 49.2747 140.619 49.6719C141.472 50.0625 142.484 50.3294 143.656 50.4727L142.758 52.4258C141.221 52.2174 139.9 51.8008 138.793 51.1758C137.693 50.5508 136.869 49.7728 136.322 48.8418C135.769 49.7728 134.945 50.5508 133.852 51.1758C132.758 51.8008 131.449 52.2174 129.926 52.4258L129.008 50.4727C130.16 50.3294 131.16 50.0625 132.006 49.6719C132.859 49.2747 133.523 48.806 133.998 48.2656C134.48 47.7188 134.766 47.1458 134.857 46.5469H129.672V44.5938H142.973V46.5469ZM150.854 44.8477C151.778 44.8411 152.615 45.0267 153.364 45.4043C154.119 45.7754 154.708 46.293 155.131 46.957C155.561 47.6211 155.776 48.3698 155.776 49.2031C155.776 50.043 155.561 50.7949 155.131 51.459C154.708 52.123 154.122 52.6439 153.373 53.0215C152.625 53.3926 151.785 53.5781 150.854 53.5781C149.923 53.5781 149.08 53.3926 148.325 53.0215C147.576 52.6439 146.987 52.123 146.557 51.459C146.127 50.7949 145.913 50.043 145.913 49.2031C145.913 48.3698 146.127 47.6211 146.557 46.957C146.987 46.293 147.579 45.7754 148.334 45.4043C149.09 45.0267 149.929 44.8411 150.854 44.8477ZM150.854 46.9961C150.385 46.9961 149.962 47.084 149.584 47.2598C149.207 47.4355 148.911 47.6927 148.696 48.0312C148.487 48.3633 148.386 48.7539 148.393 49.2031C148.386 49.6589 148.487 50.0527 148.696 50.3848C148.911 50.7168 149.204 50.9707 149.575 51.1465C149.952 51.3223 150.379 51.4102 150.854 51.4102C151.329 51.4102 151.752 51.3223 152.123 51.1465C152.501 50.9707 152.797 50.7168 153.012 50.3848C153.233 50.0527 153.347 49.6589 153.354 49.2031C153.347 48.7474 153.237 48.3535 153.022 48.0215C152.807 47.6895 152.511 47.4355 152.133 47.2598C151.756 47.084 151.329 46.9961 150.854 46.9961ZM160.034 61.4688H157.553V43.6562H160.034V61.4688ZM146.147 55.8047C150.32 55.8047 153.784 55.6159 156.538 55.2383L156.733 57.0352C154.988 57.3737 153.207 57.5918 151.391 57.6895C149.575 57.7871 147.599 57.8359 145.463 57.8359L145.17 55.8047H146.147Z" fill="white"/>
</g>
<g filter="url(#filter3_d_2392_11339)">
<path d="M282.325 165.303C284.665 165.303 286.569 163.405 286.496 161.067C285.803 138.631 279.61 116.675 268.424 97.1051C257.227 77.5169 241.387 60.9482 222.298 48.814C220.335 47.5663 217.747 48.2178 216.542 50.2074L195.774 84.5008C194.555 86.5139 195.217 89.1267 197.181 90.4228C209.012 98.2277 218.846 108.687 225.87 120.974C232.894 133.263 236.889 147 237.559 161.068C237.67 163.405 239.556 165.303 241.896 165.303H282.325Z" fill="#FF4E4E"/>
<path d="M217.091 50.54C218.116 48.8475 220.305 48.3078 221.953 49.3555C240.955 61.434 256.722 77.9267 267.866 97.4238C279 116.902 285.164 138.756 285.854 161.087C285.915 163.05 284.316 164.661 282.325 164.661H241.896C239.918 164.661 238.295 163.051 238.199 161.037C237.525 146.868 233.501 133.033 226.427 120.656C219.353 108.281 209.449 97.7467 197.534 89.8867C195.842 88.7698 195.293 86.5347 196.323 84.833L217.091 50.54Z" stroke="url(#paint3_linear_2392_11339)" stroke-opacity="0.36" stroke-width="1.28364"/>
</g>
<defs>
<filter id="filter0_d_2392_11339" x="0.836568" y="47.3394" width="100.102" height="124.827" filterUnits="userSpaceOnUse" color-interpolation-filters="sRGB">
<feFlood flood-opacity="0" result="BackgroundImageFix"/>
<feColorMatrix in="SourceAlpha" type="matrix" values="0 0 0 0 0 0 0 0 0 0 0 0 0 0 0 0 0 0 127 0" result="hardAlpha"/>
<feOffset dy="2.56729"/>
<feGaussianBlur stdDeviation="1.92547"/>
<feComposite in2="hardAlpha" operator="out"/>
<feColorMatrix type="matrix" values="0 0 0 0 0 0 0 0 0 0 0 0 0 0 0 0 0 0 0.2 0"/>
<feBlend mode="normal" in2="BackgroundImageFix" result="effect1_dropShadow_2392_11339"/>
<feBlend mode="normal" in="SourceGraphic" in2="effect1_dropShadow_2392_11339" result="shape"/>
</filter>
<filter id="filter1_d_2392_11339" x="74.8873" y="26.5796" width="142.269" height="66.4226" filterUnits="userSpaceOnUse" color-interpolation-filters="sRGB">
<feFlood flood-opacity="0" result="BackgroundImageFix"/>
<feColorMatrix in="SourceAlpha" type="matrix" values="0 0 0 0 0 0 0 0 0 0 0 0 0 0 0 0 0 0 127 0" result="hardAlpha"/>
<feOffset dy="2.56729"/>
<feGaussianBlur stdDeviation="1.92547"/>
<feComposite in2="hardAlpha" operator="out"/>
<feColorMatrix type="matrix" values="0 0 0 0 0 0 0 0 0 0 0 0 0 0 0 0 0 0 0.2 0"/>
<feBlend mode="normal" in2="BackgroundImageFix" result="effect1_dropShadow_2392_11339"/>
<feBlend mode="normal" in="SourceGraphic" in2="effect1_dropShadow_2392_11339" result="shape"/>
</filter>
<filter id="filter2_d_2392_11339" x="123.072" y="38.5217" width="42.0957" height="28.0817" filterUnits="userSpaceOnUse" color-interpolation-filters="sRGB">
<feFlood flood-opacity="0" result="BackgroundImageFix"/>
<feColorMatrix in="SourceAlpha" type="matrix" values="0 0 0 0 0 0 0 0 0 0 0 0 0 0 0 0 0 0 127 0" result="hardAlpha"/>
<feOffset/>
<feGaussianBlur stdDeviation="2.56729"/>
<feComposite in2="hardAlpha" operator="out"/>
<feColorMatrix type="matrix" values="0 0 0 0 0 0 0 0 0 0 0 0 0 0 0 0 0 0 0.4 0"/>
<feBlend mode="normal" in2="BackgroundImageFix" result="effect1_dropShadow_2392_11339"/>
<feBlend mode="normal" in="SourceGraphic" in2="effect1_dropShadow_2392_11339" result="shape"/>
</filter>
<filter id="filter3_d_2392_11339" x="191.309" y="46.8941" width="99.0399" height="124.827" filterUnits="userSpaceOnUse" color-interpolation-filters="sRGB">
<feFlood flood-opacity="0" result="BackgroundImageFix"/>
<feColorMatrix in="SourceAlpha" type="matrix" values="0 0 0 0 0 0 0 0 0 0 0 0 0 0 0 0 0 0 127 0" result="hardAlpha"/>
<feOffset dy="2.56729"/>
<feGaussianBlur stdDeviation="1.92547"/>
<feComposite in2="hardAlpha" operator="out"/>
<feColorMatrix type="matrix" values="0 0 0 0 0 0 0 0 0 0 0 0 0 0 0 0 0 0 0.2 0"/>
<feBlend mode="normal" in2="BackgroundImageFix" result="effect1_dropShadow_2392_11339"/>
<feBlend mode="normal" in="SourceGraphic" in2="effect1_dropShadow_2392_11339" result="shape"/>
</filter>
<linearGradient id="paint0_linear_2392_11339" x1="143.497" y1="3.25632" x2="143.497" y2="123.264" gradientUnits="userSpaceOnUse">
<stop offset="0.000100017" stop-color="#FFA600" stop-opacity="0"/>
<stop offset="0.557692" stop-color="#FF9900"/>
<stop offset="1" stop-color="#FFA600" stop-opacity="0"/>
</linearGradient>
<linearGradient id="paint1_linear_2392_11339" x1="49.8952" y1="48.623" x2="51.5162" y2="70.1862" gradientUnits="userSpaceOnUse">
<stop stop-color="white"/>
<stop offset="1" stop-color="white" stop-opacity="0.46"/>
</linearGradient>
<linearGradient id="paint2_linear_2392_11339" x1="113.57" y1="27.8633" x2="162.471" y2="99.4521" gradientUnits="userSpaceOnUse">
<stop stop-color="white"/>
<stop offset="1" stop-color="white" stop-opacity="0.46"/>
</linearGradient>
<linearGradient id="paint3_linear_2392_11339" x1="239.848" y1="48.1777" x2="241.488" y2="69.7381" gradientUnits="userSpaceOnUse">
<stop stop-color="white"/>
<stop offset="1" stop-color="white" stop-opacity="0.46"/>
</linearGradient>
</defs>
</svg>
