<svg width="37" height="37" viewBox="0 0 37 37" fill="none" xmlns="http://www.w3.org/2000/svg">
<path d="M18.8691 6.25C17.3773 6.25 15.9466 6.84263 14.8917 7.89752C13.8368 8.95242 13.2441 10.3832 13.2441 11.875C13.2441 13.3668 13.8368 14.7976 14.8917 15.8525C15.9466 16.9074 17.3773 17.5 18.8691 17.5C20.361 17.5 21.7917 16.9074 22.8466 15.8525C23.9015 14.7976 24.4941 13.3668 24.4941 11.875C24.4941 10.3832 23.9015 8.95242 22.8466 7.89752C21.7917 6.84263 20.361 6.25 18.8691 6.25ZM12.8691 20.5C11.3773 20.5 9.94656 21.0926 8.89167 22.1475C7.83677 23.2024 7.24414 24.6332 7.24414 26.125V27.907C7.24414 29.038 8.06314 30.001 9.17914 30.1825C15.5961 31.231 22.1421 31.231 28.5591 30.1825C29.0989 30.0937 29.5896 29.8163 29.9439 29.3996C30.2982 28.9829 30.4932 28.454 30.4941 27.907V26.125C30.4941 24.6332 29.9015 23.2024 28.8466 22.1475C27.7917 21.0926 26.361 20.5 24.8691 20.5H24.3591C24.0791 20.501 23.8071 20.544 23.5431 20.629L22.2441 21.0535C20.0511 21.7695 17.6872 21.7695 15.4941 21.0535L14.1951 20.629C13.9318 20.5445 13.6571 20.501 13.3806 20.5H12.8691Z" fill="white"/>
</svg>
