<svg width="57" height="48" viewBox="0 0 57 48" fill="none" xmlns="http://www.w3.org/2000/svg">
<g opacity="0.3" filter="url(#filter0_d_2330_1896)">
<path d="M9.9914 40.6674C9.59302 40.6674 9.24061 40.5729 8.93416 40.3839C8.62772 40.1949 8.38937 39.9455 8.21912 39.6357C8.03526 39.3309 7.93311 39.0015 7.91268 38.6474C7.89565 38.2915 7.9961 37.9332 8.21402 37.5723L28.3117 2.90304C28.5297 2.54211 28.7918 2.27993 29.0983 2.11649C29.4047 1.95306 29.7384 1.87134 30.0993 1.87134C30.4603 1.87134 30.7931 1.95306 31.0978 2.11649C31.4026 2.27993 31.6648 2.54211 31.8844 2.90304L51.9847 37.5723C52.2026 37.9332 52.3022 38.2907 52.2835 38.6448C52.2664 39.0023 52.1643 39.3326 51.977 39.6357C51.8068 39.9455 51.5684 40.1949 51.262 40.3839C50.9555 40.5729 50.604 40.6674 50.2073 40.6674H9.9914ZM30.0993 34.5793C30.5454 34.5793 30.9191 34.4286 31.2204 34.1273C31.5218 33.826 31.6716 33.4523 31.6699 33.0062C31.6682 32.5602 31.5175 32.1873 31.2179 31.8877C30.9182 31.5881 30.5454 31.4365 30.0993 31.4331C29.6533 31.4297 29.2805 31.5804 28.9808 31.8851C28.6812 32.1899 28.5305 32.5636 28.5288 33.0062C28.5271 33.4489 28.6778 33.8225 28.9808 34.1273C29.2839 34.432 29.6567 34.5827 30.0993 34.5793ZM30.0993 28.882C30.4637 28.882 30.7676 28.7594 31.011 28.5142C31.2545 28.2691 31.3762 27.966 31.3762 27.6051V17.3903C31.3762 17.0276 31.2536 16.7237 31.0085 16.4786C30.7633 16.2334 30.4594 16.1117 30.0968 16.1134C29.7342 16.1151 29.4311 16.2368 29.1877 16.4786C28.9442 16.7203 28.8225 17.0242 28.8225 17.3903V27.6051C28.8225 27.966 28.9451 28.2691 29.1902 28.5142C29.4354 28.7594 29.7393 28.882 30.1019 28.882" fill="white" fill-opacity="0.8" shape-rendering="crispEdges"/>
</g>
<g opacity="0.3" filter="url(#filter1_d_2330_1896)">
<path d="M5.84807 25.7609C5.60276 25.7609 5.38575 25.7027 5.19704 25.5864C5.00834 25.47 4.86157 25.3164 4.75674 25.1256C4.64352 24.938 4.58061 24.7351 4.56803 24.517C4.55755 24.2979 4.6194 24.0773 4.75359 23.855L17.1294 2.50639C17.2636 2.28414 17.425 2.1227 17.6137 2.02206C17.8024 1.92141 18.0079 1.87109 18.2301 1.87109C18.4524 1.87109 18.6573 1.92141 18.845 2.02206C19.0326 2.1227 19.1941 2.28414 19.3293 2.50639L31.7067 23.855C31.8409 24.0773 31.9022 24.2974 31.8907 24.5155C31.8802 24.7356 31.8173 24.939 31.702 25.1256C31.5971 25.3164 31.4504 25.47 31.2617 25.5864C31.073 25.7027 30.8565 25.7609 30.6122 25.7609H5.84807ZM18.2301 22.012C18.5048 22.012 18.7349 21.9192 18.9205 21.7337C19.106 21.5481 19.1983 21.318 19.1972 21.0433C19.1962 20.7687 19.1034 20.5391 18.9189 20.3546C18.7344 20.1701 18.5048 20.0767 18.2301 20.0747C17.9555 20.0726 17.7259 20.1653 17.5414 20.353C17.3569 20.5406 17.2641 20.7708 17.263 21.0433C17.262 21.3159 17.3548 21.546 17.5414 21.7337C17.728 21.9213 17.9576 22.0141 18.2301 22.012ZM18.2301 18.5037C18.4545 18.5037 18.6416 18.4282 18.7915 18.2773C18.9414 18.1263 19.0164 17.9397 19.0164 17.7174V11.4273C19.0164 11.204 18.9409 11.0169 18.79 10.8659C18.639 10.715 18.4519 10.64 18.2286 10.6411C18.0053 10.6421 17.8187 10.7171 17.6687 10.8659C17.5188 11.0148 17.4439 11.2019 17.4439 11.4273V17.7174C17.4439 17.9397 17.5194 18.1263 17.6703 18.2773C17.8213 18.4282 18.0084 18.5037 18.2317 18.5037" fill="white" fill-opacity="0.9" shape-rendering="crispEdges"/>
</g>
<defs>
<filter id="filter0_d_2330_1896" x="3.94679" y="0.549994" width="52.3029" height="46.724" filterUnits="userSpaceOnUse" color-interpolation-filters="sRGB">
<feFlood flood-opacity="0" result="BackgroundImageFix"/>
<feColorMatrix in="SourceAlpha" type="matrix" values="0 0 0 0 0 0 0 0 0 0 0 0 0 0 0 0 0 0 127 0" result="hardAlpha"/>
<feOffset dy="2.64269"/>
<feGaussianBlur stdDeviation="1.98202"/>
<feComposite in2="hardAlpha" operator="out"/>
<feColorMatrix type="matrix" values="0 0 0 0 0 0 0 0 0 0 0 0 0 0 0 0 0 0 0.2 0"/>
<feBlend mode="normal" in2="BackgroundImageFix" result="effect1_dropShadow_2330_1896"/>
<feBlend mode="normal" in="SourceGraphic" in2="effect1_dropShadow_2330_1896" result="shape"/>
</filter>
<filter id="filter1_d_2330_1896" x="0.602861" y="0.549749" width="35.2532" height="31.818" filterUnits="userSpaceOnUse" color-interpolation-filters="sRGB">
<feFlood flood-opacity="0" result="BackgroundImageFix"/>
<feColorMatrix in="SourceAlpha" type="matrix" values="0 0 0 0 0 0 0 0 0 0 0 0 0 0 0 0 0 0 127 0" result="hardAlpha"/>
<feOffset dy="2.64269"/>
<feGaussianBlur stdDeviation="1.98202"/>
<feComposite in2="hardAlpha" operator="out"/>
<feColorMatrix type="matrix" values="0 0 0 0 0 0 0 0 0 0 0 0 0 0 0 0 0 0 0.2 0"/>
<feBlend mode="normal" in2="BackgroundImageFix" result="effect1_dropShadow_2330_1896"/>
<feBlend mode="normal" in="SourceGraphic" in2="effect1_dropShadow_2330_1896" result="shape"/>
</filter>
</defs>
</svg>
