<svg width="31" height="25" viewBox="0 0 31 25" fill="none" xmlns="http://www.w3.org/2000/svg">
<circle cx="18.9993" cy="11.5003" r="9.58333" fill="white"/>
<circle cx="19.1732" cy="9.42806" r="3.83333" fill="#007AFF"/>
<path d="M19.1826 15.1782C22.3118 15.1783 25.1145 16.5064 27.0107 18.6021C25.1141 20.7753 22.3022 22.1538 19.1611 22.1538C16.0313 22.1537 13.2283 20.7853 11.332 18.6255C13.2286 16.5161 16.0415 15.1782 19.1826 15.1782Z" fill="#007AFF"/>
<path d="M30.5 11.5C30.5 17.8513 25.3513 23 19 23C12.6487 23 7.5 17.8513 7.5 11.5C7.5 5.14873 12.6487 0 19 0C25.3513 0 30.5 5.14873 30.5 11.5ZM9.30279 11.5C9.30279 16.8556 13.6444 21.1972 19 21.1972C24.3556 21.1972 28.6972 16.8556 28.6972 11.5C28.6972 6.14438 24.3556 1.80279 19 1.80279C13.6444 1.80279 9.30279 6.14438 9.30279 11.5Z" fill="#007AFF"/>
<circle cx="8" cy="17.5" r="7" fill="#007AFF" stroke="white"/>
<rect x="7.5" y="14" width="1" height="7" rx="0.5" fill="white"/>
<rect x="11.5" y="17" width="1" height="7" rx="0.5" transform="rotate(90 11.5 17)" fill="white"/>
</svg>
