<svg width="38" height="41" viewBox="0 0 38 41" fill="none" xmlns="http://www.w3.org/2000/svg">
<circle cx="21.2133" cy="13.2235" r="5.10974" fill="white" fill-opacity="0.3"/>
<path d="M18.4476 1.211C21.5631 0.639597 24.7793 1.04722 27.6536 2.378C30.5281 3.70885 32.9195 5.89814 34.4993 8.64362C36.0791 11.389 36.7695 14.5562 36.4759 17.71C36.1822 20.8638 34.9191 23.8494 32.8597 26.2559C30.8001 28.6625 28.0447 30.3722 24.974 31.1495C22.3561 31.812 19.618 31.7697 17.0355 31.0382C16.2934 30.828 15.9354 30.0129 16.2122 29.293C16.226 29.2572 16.2418 29.2225 16.2581 29.1885C16.412 28.7507 17.0958 28.1296 17.6361 26.5079C18.5057 23.8972 16.4881 21.3029 21.1585 21.3028C23.8418 21.3028 27.4267 21.3037 29.9691 25.2569C30.2359 24.9964 30.4937 24.7255 30.7376 24.4405C32.422 22.4724 33.4555 20.0305 33.6956 17.4512C33.9358 14.872 33.3705 12.2814 32.0785 10.0362C30.7864 7.79106 28.8305 6.00148 26.4798 4.91315C24.1292 3.82488 21.4993 3.4908 18.9515 3.95808C16.4037 4.42543 14.0627 5.67082 12.2513 7.52253C10.7667 9.04031 9.69694 10.9052 9.13314 12.9366C8.92674 13.6796 8.21775 14.2005 7.45638 14.0782C6.69527 13.9556 6.17087 13.2372 6.36165 12.4903C7.02684 9.88995 8.36606 7.50086 10.2542 5.57038C12.4692 3.30596 15.332 1.78251 18.4476 1.211Z" fill="white" fill-opacity="0.3"/>
<path d="M8.4375 16.2896C12.6704 16.2896 16.1023 19.7208 16.1025 23.9536C16.1025 28.1867 12.6706 31.6187 8.4375 31.6187C4.20461 31.6185 0.773438 28.1865 0.773438 23.9536C0.77369 19.7209 4.20477 16.2897 8.4375 16.2896ZM8.43652 19.5728C7.83219 19.5729 7.34216 20.0632 7.3418 20.6675V22.8579H5.15332C4.54883 22.8579 4.05799 23.3482 4.05762 23.9526C4.05762 24.5574 4.5486 25.0483 5.15332 25.0483H7.3418V27.2378C7.3419 27.8423 7.83203 28.3323 8.43652 28.3325C9.04116 28.3325 9.53212 27.8424 9.53223 27.2378V25.0483H11.7227C12.3273 25.0483 12.8174 24.5573 12.8174 23.9526C12.817 23.3483 12.3271 22.858 11.7227 22.8579H9.53223V20.6675C9.53186 20.0631 9.04101 19.5728 8.43652 19.5728Z" fill="white" fill-opacity="0.3"/>
</svg>
