<svg width="25" height="24" viewBox="0 0 25 24" fill="none" xmlns="http://www.w3.org/2000/svg">
<circle cx="12.5016" cy="12.0011" r="11.027" fill="#A1A1A1"/>
<circle cx="12.681" cy="9.73027" r="3.89189" fill="white"/>
<path d="M12.6895 16.2979C15.8327 16.2979 18.6482 17.6391 20.5527 19.7559C18.6479 21.9501 15.8243 23.3427 12.6699 23.3428C9.52634 23.3428 6.71127 21.9595 4.80664 19.7783C6.71151 17.6489 9.53527 16.2979 12.6895 16.2979Z" fill="white"/>
<path d="M24.5 12C24.5 18.6274 19.1274 24 12.5 24C5.87258 24 0.5 18.6274 0.5 12C0.5 5.37258 5.87258 0 12.5 0C19.1274 0 24.5 5.37258 24.5 12ZM1.81565 12C1.81565 17.9008 6.5992 22.6843 12.5 22.6843C18.4008 22.6843 23.1843 17.9008 23.1843 12C23.1843 6.0992 18.4008 1.31565 12.5 1.31565C6.5992 1.31565 1.81565 6.0992 1.81565 12Z" fill="#A1A1A1"/>
</svg>
