<svg width="35" height="24" viewBox="0 0 35 24" fill="none" xmlns="http://www.w3.org/2000/svg">
<path d="M31.0928 0C32.7497 0 34.0928 1.34315 34.0928 3V21C34.0928 22.6569 32.7497 24 31.0928 24H13.0928C11.979 24 11.0098 23.3914 10.4922 22.4902C10.4547 22.4615 10.4169 22.4308 10.3819 22.3955L0.789119 12.7031C0.403627 12.3135 0.403626 11.6865 0.789119 11.2969L10.3819 1.60449C10.417 1.56902 10.4546 1.53763 10.4922 1.50879C11.0099 0.607988 11.9793 0 13.0928 0H31.0928Z" fill="#E5E5E5"/>
<rect x="15.8184" y="6.90039" width="2.24193" height="15.6935" rx="1.12096" transform="rotate(-45 15.8184 6.90039)" fill="black"/>
<rect x="26.9141" y="5.31641" width="2.24193" height="15.6935" rx="1.12096" transform="rotate(45 26.9141 5.31641)" fill="black"/>
</svg>
