<svg xmlns="http://www.w3.org/2000/svg" width="38" height="25" viewBox="0 0 38 25" fill="none">
  <path d="M34.0986 3.96973C35.4333 2.95585 37.3525 3.90793 37.3525 5.58398V20.1533C37.3525 21.8294 35.4333 22.7815 34.0986 21.7676L28.5351 17.5405C28.2829 17.3489 28.1348 17.0503 28.1348 16.7335V9.00286C28.1348 8.68605 28.2829 8.38746 28.5352 8.19582L34.0986 3.96973Z" fill="white" fill-opacity="0.3"/>
  <path d="M22.6426 0.679688C24.5158 0.679874 26.0342 2.19903 26.0342 4.07227V21.4463C26.0339 23.3193 24.5156 24.8377 22.6426 24.8379H4.21777C2.34467 24.8378 0.826433 23.3194 0.826172 21.4463V4.07227C0.826172 2.19898 2.34451 0.679789 4.21777 0.679688H22.6426ZM13.5039 16.1807C12.7581 16.1807 12.1504 16.7882 12.1504 17.5166C12.1505 18.2623 12.7582 18.8691 13.5039 18.8691C14.2148 18.8689 14.8387 18.2622 14.8389 17.5166C14.8389 16.7883 14.2148 16.1809 13.5039 16.1807ZM13.7812 6C11.648 6 9.89592 7.19659 9.84375 9.52051H12.0117C12.0639 8.35864 12.8965 7.80371 13.7637 7.80371C14.7176 7.80371 15.4639 8.42815 15.4639 9.39941C15.4639 10.2666 14.9079 10.8559 14.1621 11.3242C13.0696 12.0006 12.4451 12.6775 12.4277 14.8799V15.0361H14.457V14.8799C14.4744 13.5792 14.8916 12.9722 15.8975 12.3652C17.0246 11.6888 17.7354 10.769 17.7354 9.36426C17.7351 7.30064 16.1224 6.00009 13.7812 6Z" fill="white" fill-opacity="0.3"/>
</svg>