<svg width="26" height="24" viewBox="0 0 26 24" fill="none" xmlns="http://www.w3.org/2000/svg">
<path d="M24.9596 10.9322L20.0073 15.3061L21.4908 21.8179C21.5693 22.1584 21.5469 22.5147 21.4264 22.8423C21.3059 23.1699 21.0926 23.4543 20.8133 23.6599C20.5339 23.8655 20.2009 23.9832 19.8557 23.9983C19.5106 24.0134 19.1688 23.9253 18.8729 23.7448L13.2606 20.3L7.66038 23.7448C7.36452 23.9253 7.02267 24.0134 6.67757 23.9983C6.33246 23.9832 5.99941 23.8655 5.72006 23.6599C5.44071 23.4543 5.22745 23.1699 5.10695 22.8423C4.98644 22.5147 4.96404 22.1584 5.04255 21.8179L6.52386 15.3127L1.5704 10.9322C1.30841 10.7035 1.11896 10.4017 1.02581 10.0645C0.932664 9.72729 0.939966 9.36977 1.0468 9.03676C1.15364 8.70375 1.35525 8.41007 1.62636 8.19255C1.89746 7.97504 2.226 7.84336 2.57076 7.81405L9.09997 7.24175L11.6486 1.08991C11.7817 0.76711 12.0062 0.491379 12.2938 0.297433C12.5815 0.103488 12.9194 0 13.265 0C13.6106 0 13.9485 0.103488 14.2362 0.297433C14.5238 0.491379 14.7483 0.76711 14.8814 1.08991L17.4377 7.24175L23.9648 7.81405C24.3095 7.84336 24.638 7.97504 24.9092 8.19255C25.1803 8.41007 25.3819 8.70375 25.4887 9.03676C25.5955 9.36977 25.6028 9.72729 25.5097 10.0645C25.4166 10.4017 25.2271 10.7035 24.9651 10.9322H24.9596Z" fill="#A1A1A1"/>
</svg>
