<svg width="26" height="24" viewBox="0 0 26 24" fill="none" xmlns="http://www.w3.org/2000/svg">
<path d="M13.2361 0C15.6702 0 18.0496 0.703788 20.0734 2.02236C22.0973 3.34094 23.6747 5.21508 24.6062 7.4078C25.5376 9.60051 25.7814 12.0133 25.3065 14.3411C24.8316 16.6689 23.6595 18.807 21.9384 20.4853C20.2172 22.1635 18.0244 23.3064 15.6371 23.7694C13.2498 24.2324 10.7753 23.9948 8.52653 23.0865C6.27776 22.1783 4.35569 20.6402 3.0034 18.6668C1.65111 16.6934 0.929331 14.3734 0.929331 12C0.932777 8.81843 2.23049 5.76814 4.53772 3.51843C6.84495 1.26872 9.97323 0.00335979 13.2361 0ZM6.6094 12.9231H13.2361C13.4872 12.9231 13.728 12.8258 13.9056 12.6527C14.0831 12.4796 14.1828 12.2448 14.1828 12V5.53846C14.1828 5.29365 14.0831 5.05886 13.9056 4.88575C13.728 4.71264 13.4872 4.61538 13.2361 4.61538C12.9851 4.61538 12.7443 4.71264 12.5667 4.88575C12.3892 5.05886 12.2895 5.29365 12.2895 5.53846V11.0769H6.6094C6.35833 11.0769 6.11753 11.1742 5.94 11.3473C5.76246 11.5204 5.66272 11.7552 5.66272 12C5.66272 12.2448 5.76246 12.4796 5.94 12.6527C6.11753 12.8258 6.35833 12.9231 6.6094 12.9231Z" fill="#A1A1A1"/>
</svg>
