<svg xmlns="http://www.w3.org/2000/svg" width="27" height="34" viewBox="0 0 27 34" fill="none">
  <path d="M4.3096 13.4194V20.4921C4.3096 22.5129 7.44179 27.0596 13.9082 27.0596M13.9082 27.0596V32.1115M13.9082 27.0596C15.0162 27.0596 15.929 27.0596 17.4446 26.5544M23.5069 13.4194V20.4921M1.96094 4.60596L25.7049 28.35" stroke="white" stroke-width="2.52596" stroke-linecap="round"/>
  <path d="M6.83398 32.6172H20.9793" stroke="white" stroke-width="2.02077" stroke-linecap="round"/>
  <path d="M12.373 19.3931L12.4043 19.4253L12.4365 19.4565L15.748 22.6714C15.178 22.8944 14.5583 23.019 13.9092 23.019C11.1191 23.019 8.85751 20.7573 8.85742 17.9673V15.7681L12.373 19.3931ZM13.9092 0.790527C16.6992 0.790552 18.9608 3.05231 18.9609 5.84229V17.5171L16.6016 15.228L8.85742 7.24365V5.84229C8.85755 3.0523 11.1192 0.790527 13.9092 0.790527Z" fill="white"/>
</svg>