<svg xmlns="http://www.w3.org/2000/svg" width="40" height="40" viewBox="0 0 40 40" fill="none">
  <path d="M15.625 7.83762C16.7418 6.9897 18.3467 7.78601 18.3467 9.1882V28.0925C18.3466 29.4946 16.7417 30.291 15.625 29.4431L8.96368 24.3852C8.81618 24.2732 8.63607 24.2126 8.45087 24.2126H3.94043C2.53596 24.212 1.39657 23.0733 1.39648 21.6687V15.612C1.39648 14.2074 2.53591 13.0677 3.94043 13.0671H8.45186C8.63705 13.0671 8.81715 13.0065 8.96465 12.8945L15.625 7.83762Z" fill="white"/>
  <path d="M23.1946 14.6202C23.6513 14.1636 24.3993 14.1595 24.7878 14.6753C25.2112 15.2375 25.5629 15.8522 25.8334 16.5053C26.2535 17.5194 26.4697 18.6064 26.4697 19.7041C26.4697 20.8018 26.2535 21.8887 25.8334 22.9029C25.5629 23.556 25.2112 24.1707 24.7878 24.7329C24.3993 25.2487 23.6513 25.2445 23.1946 24.7879C22.738 24.3313 22.7495 23.5957 23.1094 23.0595C23.3311 22.7293 23.52 22.3772 23.6729 22.008C23.9755 21.2776 24.1312 20.4947 24.1312 19.7041C24.1312 18.9135 23.9755 18.1306 23.6729 17.4002C23.52 17.031 23.3311 16.6788 23.1094 16.3486C22.7495 15.8125 22.738 15.0768 23.1946 14.6202Z" fill="white"/>
  <path d="M28.02 10.7256C28.5015 10.2442 29.2869 10.2409 29.7239 10.7631C30.6308 11.8466 31.3692 13.0637 31.9118 14.3735C32.6119 16.0638 32.9722 17.8754 32.9722 19.7049C32.9722 21.5344 32.6119 23.346 31.9118 25.0362C31.3692 26.346 30.6308 27.5631 29.7239 28.6467C29.2869 29.1688 28.5015 29.1656 28.02 28.6841C27.5385 28.2026 27.5445 27.4257 27.9715 26.8953C28.6549 26.0466 29.2151 25.1031 29.6337 24.0926C30.2099 22.7015 30.5064 21.2106 30.5064 19.7049C30.5064 18.1992 30.2099 16.7082 29.6337 15.3172C29.2151 14.3066 28.6549 13.3631 27.9715 12.5144C27.5445 11.984 27.5385 11.2071 28.02 10.7256Z" fill="white"/>
  <path d="M32.833 6.84C33.3451 6.32791 34.1791 6.32514 34.6556 6.87047C36.0491 8.46515 37.1755 10.2784 37.9882 12.2403C38.9684 14.6067 39.4728 17.1429 39.4728 19.7042C39.4728 22.2655 38.9684 24.8017 37.9882 27.1681C37.1755 29.13 36.0491 30.9432 34.6556 32.5379C34.1791 33.0832 33.3451 33.0805 32.833 32.5684C32.321 32.0563 32.3253 31.2292 32.7961 30.6789C33.9492 29.3312 34.8844 27.8081 35.5653 26.1644C36.4136 24.1163 36.8503 21.9211 36.8503 19.7042C36.8503 17.4873 36.4136 15.2921 35.5653 13.2439C34.8844 11.6003 33.9492 10.0772 32.7961 8.7295C32.3253 8.17922 32.3209 7.35209 32.833 6.84Z" fill="white"/>
</svg>