<svg width="34" height="34" viewBox="0 0 34 34" fill="none" xmlns="http://www.w3.org/2000/svg">
<g clip-path="url(#clip0_1106_11353)">
<path d="M26.1962 9.87988C24.7461 9.88119 23.3293 10.3034 22.1263 11.0927C20.9232 11.8821 19.9884 13.0028 19.441 14.312C18.8935 15.6213 18.7582 17.0599 19.0523 18.4444C19.3464 19.8289 20.0566 21.0967 21.0923 22.0862H12.5224C13.7317 20.9309 14.4917 19.4019 14.6725 17.7606C14.8532 16.1193 14.4436 14.4677 13.5135 13.0884C12.5834 11.7091 11.1907 10.6878 9.57368 10.1991C7.95663 9.71037 6.21568 9.78469 4.64861 10.4093C3.08155 11.0339 1.78575 12.1701 0.98286 13.6234C0.179969 15.0766 -0.080125 16.7568 0.247068 18.3764C0.574261 19.996 1.46841 21.4544 2.77657 22.5023C4.08473 23.5501 5.72562 24.1221 7.41856 24.1206H26.1962C28.1329 24.1206 29.9903 23.3704 31.3598 22.0351C32.7292 20.6998 33.4986 18.8887 33.4986 17.0002C33.4986 15.1118 32.7292 13.3007 31.3598 11.9654C29.9903 10.6301 28.1329 9.87988 26.1962 9.87988ZM2.20255 17.0002C2.20255 15.9943 2.50847 15.011 3.08161 14.1746C3.65475 13.3382 4.46938 12.6864 5.42248 12.3014C6.37558 11.9165 7.42435 11.8158 8.43616 12.012C9.44796 12.2082 10.3774 12.6926 11.1068 13.4039C11.8363 14.1152 12.3331 15.0214 12.5343 16.008C12.7356 16.9946 12.6323 18.0172 12.2375 18.9466C11.8427 19.8759 11.1742 20.6702 10.3164 21.2291C9.45865 21.7879 8.45019 22.0862 7.41856 22.0862C6.03519 22.0862 4.70848 21.5504 3.73029 20.5966C2.7521 19.6428 2.20255 18.3491 2.20255 17.0002ZM26.1962 22.0862C25.1646 22.0862 24.1561 21.7879 23.2983 21.2291C22.4406 20.6702 21.772 19.8759 21.3772 18.9466C20.9824 18.0172 20.8791 16.9946 21.0804 16.008C21.2817 15.0214 21.7784 14.1152 22.5079 13.4039C23.2374 12.6926 24.1668 12.2082 25.1786 12.012C26.1904 11.8158 27.2392 11.9165 28.1923 12.3014C29.1454 12.6864 29.96 13.3382 30.5331 14.1746C31.1063 15.011 31.4122 15.9943 31.4122 17.0002C31.4122 18.3491 30.8627 19.6428 29.8845 20.5966C28.9063 21.5504 27.5796 22.0862 26.1962 22.0862Z" fill="#A1A1A1"/>
</g>
<defs>
<clipPath id="clip0_1106_11353">
<rect width="33.3825" height="32.5502" fill="white" transform="translate(0.117188 0.724609)"/>
</clipPath>
</defs>
</svg>
