<svg xmlns="http://www.w3.org/2000/svg" width="39" height="17" viewBox="0 0 39 17" fill="none">
  <path d="M17.5 8.5C17.5 13.1944 13.6944 17 9 17C4.30558 17 0.5 13.1944 0.5 8.5C0.5 3.80558 4.30558 0 9 0C13.6944 0 17.5 3.80558 17.5 8.5ZM2.2 8.5C2.2 12.2555 5.24446 15.3 9 15.3C12.7555 15.3 15.8 12.2555 15.8 8.5C15.8 4.74446 12.7555 1.7 9 1.7C5.24446 1.7 2.2 4.74446 2.2 8.5Z" fill="white"/>
  <path d="M38.5 8.5C38.5 13.1944 34.6944 17 30 17C25.3056 17 21.5 13.1944 21.5 8.5C21.5 3.80558 25.3056 0 30 0C34.6944 0 38.5 3.80558 38.5 8.5ZM23.2 8.5C23.2 12.2555 26.2445 15.3 30 15.3C33.7555 15.3 36.8 12.2555 36.8 8.5C36.8 4.74446 33.7555 1.7 30 1.7C26.2445 1.7 23.2 4.74446 23.2 8.5Z" fill="white"/>
  <path d="M7.5 16H31.5" stroke="white" stroke-width="1.4"/>
</svg>