<svg width="58" height="35" viewBox="0 0 58 35" fill="none" xmlns="http://www.w3.org/2000/svg">
<path d="M7.44538 1.00195H53.1766C51.861 1.00195 51.1427 2.28865 50.9263 3.88693L47.2826 30.7778C47.0662 32.3761 45.605 33.6628 44.0081 33.6628H3.02127C1.42299 33.6628 0.309392 32.3761 0.527208 30.7778L4.16949 3.88693C4.38586 2.28865 5.8471 1.00195 7.44538 1.00195Z" fill="#8FBFFA" stroke="black" stroke-linecap="round" stroke-linejoin="round"/>
<path d="M31.6992 21.6563C34.4477 21.6563 36.6758 19.4282 36.6758 16.6797C36.6758 13.9312 34.4477 11.7031 31.6992 11.7031C28.9508 11.7031 26.7227 13.9312 26.7227 16.6797C26.7227 19.4282 28.9508 21.6563 31.6992 21.6563Z" fill="#4981C7" stroke="black" stroke-linecap="round" stroke-linejoin="round"/>
<path d="M25.5273 27.9658C26.9717 27.9658 28.1426 26.7949 28.1426 25.3506C28.1426 23.9062 26.9717 22.7354 25.5273 22.7354C24.083 22.7354 22.9121 23.9062 22.9121 25.3506C22.9121 26.7949 24.083 27.9658 25.5273 27.9658Z" fill="#4981C7" stroke="black" stroke-linecap="round" stroke-linejoin="round"/>
<path d="M38.0566 27.9658C39.501 27.9658 40.6719 26.7949 40.6719 25.3506C40.6719 23.9062 39.501 22.7354 38.0566 22.7354C36.6123 22.7354 35.4414 23.9062 35.4414 25.3506C35.4414 26.7949 36.6123 27.9658 38.0566 27.9658Z" fill="#4981C7" stroke="black" stroke-linecap="round" stroke-linejoin="round"/>
<path d="M31.6997 21.8887V28.1404C31.6997 31.1148 29.4105 33.6752 28.3777 33.6752M9.07288 3.32673H46.6684C47.4676 3.32673 47.9018 3.9571 47.8051 4.76922L47.6248 6.29105C47.5282 7.10317 46.6757 7.73353 45.8765 7.73353H8.28095C7.48181 7.73353 7.0231 7.09451 7.14427 6.29105L7.32458 4.76922C7.43998 3.92825 8.27374 3.32673 9.07288 3.32673ZM53.1755 1C55.4287 1 55.7662 5.42844 55.7662 5.42844L57.4943 26.281C57.6155 28.2053 55.5801 30.2017 53.3025 30.2017H47.6767" fill="#54A1FF"/>
<path d="M31.6997 21.8887V28.1404C31.6997 31.1148 29.4105 33.6752 28.3777 33.6752M53.1755 1C55.4287 1 55.7662 5.42844 55.7662 5.42844L57.4943 26.281C57.6155 28.2053 55.5801 30.2017 53.3025 30.2017H47.6767M9.07288 3.32673H46.6684C47.4676 3.32673 47.9018 3.9571 47.8051 4.76922L47.6248 6.29105C47.5282 7.10317 46.6757 7.73353 45.8765 7.73353H8.28095C7.48181 7.73353 7.0231 7.09451 7.14427 6.29105L7.32458 4.76922C7.43998 3.92825 8.27374 3.32673 9.07288 3.32673Z" stroke="black" stroke-linecap="round" stroke-linejoin="round"/>
</svg>
