<svg width="49" height="50" viewBox="0 0 49 50" fill="none" xmlns="http://www.w3.org/2000/svg">
<path d="M24.375 0.5H24.625C26.7927 0.5 28.5538 0.501256 29.9385 0.688477H29.9395C31.2998 0.871214 32.4723 1.25291 33.4238 2.11523L33.6113 2.29492C34.5972 3.28263 35.0177 4.52629 35.2119 5.98438L35.2129 5.98535C35.3466 6.97167 35.3858 9.38743 35.3955 11.5107L35.3975 11.9922L35.8789 12.0078C40.7357 12.167 43.4622 12.7416 45.333 14.6221V14.623C46.6311 15.9253 47.3081 17.6436 47.6523 20.2129C47.9985 22.7966 48 26.1653 48 30.7227C48 35.28 47.9987 38.648 47.6523 41.2314C47.3078 43.8007 46.6303 45.5196 45.333 46.8232C44.0361 48.1264 42.325 48.8059 39.7666 49.1514C37.1936 49.4988 33.8392 49.5 29.2998 49.5H19.7002C15.1609 49.5 11.807 49.4981 9.23438 49.1504C6.67645 48.8046 4.96516 48.1254 3.66699 46.8232C2.36876 45.5209 1.69188 43.802 1.34766 41.2324C1.00154 38.6486 1 35.2801 1 30.7227C1 26.1653 1.00154 22.7966 1.34766 20.2129C1.6919 17.6436 2.36886 15.9253 3.66699 14.623V14.6221C5.53783 12.7416 8.26431 12.1675 13.1211 12.0059L13.6025 11.9893L13.6045 11.5088C13.6142 9.38892 13.6565 6.97107 13.7881 5.98145C13.9823 4.52619 14.4025 3.2832 15.3887 2.29297C16.3721 1.30554 17.6094 0.88341 19.0605 0.688477H19.0615C20.4462 0.501255 22.2049 0.5 24.375 0.5ZM24.5 18.7773C23.8895 18.7773 23.3042 19.0204 22.873 19.4531C22.5287 19.7989 22.3065 20.2435 22.2305 20.7197C19.6101 21.5116 17.4004 23.6803 17.4004 26.7061C17.4004 30.5792 20.9948 33.0303 24.5 33.0303C26.2699 33.0303 27 34.1549 27 34.7402C26.9996 35.3251 26.2701 36.4473 24.5 36.4473C22.7299 36.4473 22.0004 35.3251 22 34.7402C22 34.1291 21.7581 33.5422 21.3271 33.1094C20.896 32.6765 20.3108 32.4327 19.7002 32.4326C19.0895 32.4326 18.5044 32.6765 18.0732 33.1094C17.6422 33.5422 17.4004 34.129 17.4004 34.7402C17.4006 37.7656 19.6104 39.9326 22.2305 40.7246C22.3063 41.2014 22.5283 41.6461 22.873 41.9922C23.3042 42.4251 23.8894 42.6689 24.5 42.6689C25.1106 42.6689 25.6958 42.4251 26.127 41.9922C26.4716 41.6461 26.6927 41.2013 26.7686 40.7246C29.3886 39.9311 31.5994 37.7663 31.5996 34.7402C31.5996 30.867 28.0052 28.416 24.5 28.416C22.7301 28.416 22 27.2914 22 26.7061C22 26.1213 22.7294 24.999 24.5 24.999C26.2706 24.999 27 26.1213 27 26.7061C27 27.3173 27.2417 27.9041 27.6729 28.3369C28.104 28.7698 28.6892 29.0136 29.2998 29.0137C29.9103 29.0137 30.4956 28.7697 30.9268 28.3369C31.3579 27.9041 31.5996 27.3173 31.5996 26.7061C31.5996 23.68 29.3893 21.5114 26.7686 20.7197C26.6925 20.2436 26.4713 19.7989 26.127 19.4531C25.6958 19.0204 25.1105 18.7773 24.5 18.7773ZM24.5 3.11426C22.2009 3.11426 20.6057 3.1181 19.4053 3.28027C18.2434 3.43717 17.6435 3.7217 17.2227 4.14746C16.805 4.5701 16.5221 5.16312 16.3633 6.33008L16.3623 6.33203C16.2491 7.19071 16.2146 9.42327 16.2051 11.4482L16.2021 11.9531L16.707 11.9502C17.6466 11.9454 18.6442 11.9437 19.6992 11.9453H29.2998C30.3585 11.9453 31.357 11.947 32.2939 11.9502L32.7979 11.9521L32.7949 11.4473C32.783 9.42385 32.7509 7.18832 32.6377 6.33203L32.6367 6.33008C32.4781 5.16484 32.1952 4.56508 31.7754 4.14355C31.3552 3.72179 30.7572 3.43765 29.5938 3.27832H29.5918C28.3942 3.11867 26.7994 3.11426 24.5 3.11426Z" fill="#5094E7" stroke="black"/>
</svg>
