<svg width="45" height="44" viewBox="0 0 45 44" fill="none" xmlns="http://www.w3.org/2000/svg">
<path d="M7.83334 33C7.3139 33 6.87878 32.824 6.52801 32.472C6.17723 32.12 6.00123 31.6849 6.00001 31.1667C5.99878 30.6484 6.17478 30.2133 6.52801 29.8613C6.88123 29.5093 7.31634 29.3333 7.83334 29.3333H37.1667C37.6861 29.3333 38.1218 29.5093 38.4738 29.8613C38.8258 30.2133 39.0012 30.6484 39 31.1667C38.9988 31.6849 38.8228 32.1206 38.472 32.4738C38.1212 32.8271 37.6861 33.0024 37.1667 33H7.83334ZM7.83334 23.8333C7.3139 23.8333 6.87878 23.6573 6.52801 23.3053C6.17723 22.9533 6.00123 22.5182 6.00001 22C5.99878 21.4818 6.17478 21.0467 6.52801 20.6947C6.88123 20.3427 7.31634 20.1667 7.83334 20.1667H37.1667C37.6861 20.1667 38.1218 20.3427 38.4738 20.6947C38.8258 21.0467 39.0012 21.4818 39 22C38.9988 22.5182 38.8228 22.9539 38.472 23.3072C38.1212 23.6604 37.6861 23.8358 37.1667 23.8333H7.83334ZM7.83334 14.6667C7.3139 14.6667 6.87878 14.4907 6.52801 14.1387C6.17723 13.7867 6.00123 13.3516 6.00001 12.8333C5.99878 12.3151 6.17478 11.88 6.52801 11.528C6.88123 11.176 7.31634 11 7.83334 11H37.1667C37.6861 11 38.1218 11.176 38.4738 11.528C38.8258 11.88 39.0012 12.3151 39 12.8333C38.9988 13.3516 38.8228 13.7873 38.472 14.1405C38.1212 14.4937 37.6861 14.6691 37.1667 14.6667H7.83334Z" fill="#353535"/>
</svg>
