<svg width="48" height="52" viewBox="0 0 48 52" fill="none" xmlns="http://www.w3.org/2000/svg">
<path d="M35.627 0.519531C36.7108 0.398892 37.7521 0.8497 38.4697 1.66113C42.71 6.45643 46.9846 16.7089 47 28.4844L46.9883 29.6289C46.8071 37.8163 43.7081 43.4134 41.3389 46.5166C39.7327 48.6202 37.3177 49.8348 34.7275 50.3193C30.8719 51.0411 24.5745 51.872 17.8916 51.3203C15.1519 51.0936 12.427 50.3923 10.0879 48.9287C5.32728 45.9486 1.97614 41.2686 1.05273 34.6328C0.726119 32.285 1.92813 29.9726 4.15527 29.21L4.37402 29.1416C4.71272 29.0442 5.07118 28.9551 5.44629 28.8779L5.82617 28.8047C6.73131 28.645 7.52777 28.9414 8.17676 29.4844L8.30469 29.5967C8.97327 30.2092 9.47724 31.0871 9.77832 31.9902C11.1113 35.9934 14.7947 38.5031 18.3945 37.4434L18.415 37.4375L18.4355 37.4297C19.165 37.1444 19.8782 36.7143 20.5176 36.2539C22.2359 35.0189 22.9622 32.7524 22.0137 30.8818H22.0127C21.1386 29.1547 19.8089 27.9168 18.1602 27.249L18.1592 27.248C16.5076 26.5818 14.5297 26.4832 12.3525 27.0459L12.3516 27.0469C10.3552 27.5639 8.09251 27.3575 6.8877 25.627C6.76227 25.4465 6.63555 25.2583 6.50879 25.0625L6.12988 24.4521C4.7252 22.0938 5.58233 19.0968 7.95508 17.7871L8.18945 17.666C12.3498 15.6446 16.8315 15.599 21.1875 16.9297L22.5225 17.3369L21.75 16.1748C20.1006 13.6905 18.1905 11.4242 16.0244 9.57715L15.5879 9.21289L15.3779 9.03516C14.3409 8.12522 13.5161 6.86604 13.8193 5.48633C14.2491 3.5287 15.4955 2.2367 16.5908 1.44824L16.8076 1.29785C17.86 0.590205 19.1969 0.665252 20.2959 1.26367C24.8198 3.73029 28.7578 7.57511 31.5107 10.7871L32.3711 10.3213C31.9927 9.02981 31.5365 7.82962 31.0225 6.76172C30.5531 5.78594 30.1889 4.63553 30.6494 3.60352C31.6559 1.35069 34.0306 0.697024 35.627 0.519531Z" fill="#8FBFFA" stroke="black"/>
</svg>
