<svg width="200" height="239" viewBox="0 0 200 239" fill="none" xmlns="http://www.w3.org/2000/svg">
<g opacity="0.28" filter="url(#filter0_d_1007_17300)">
<path d="M102.567 2.07762C104.65 1.37126 106.908 1.37126 108.991 2.07762L201.753 33.5356C205.811 34.9119 208.541 38.7213 208.541 43.0063V104.956C208.541 134.384 198.907 161.441 179.64 186.126C160.846 210.204 136.96 225.763 107.982 232.802C106.536 233.154 105.023 233.154 103.576 232.802C74.5984 225.763 50.7126 210.204 31.9189 186.126C12.6512 161.441 3.01758 134.384 3.01758 104.956V43.0063C3.01758 38.7213 5.74767 34.9119 9.80566 33.5356L102.567 2.07762ZM103.195 154.268C95.8346 154.354 89.7572 160.259 89.8428 167.449C89.7572 174.809 95.8346 180.801 103.195 180.801C110.299 180.801 116.376 174.809 116.376 167.449C116.376 160.259 110.299 154.354 103.195 154.268ZM105.935 53.7846C84.7938 53.7846 67.6753 65.5109 67.0762 88.5346H88.4736C89.0728 77.0657 97.2894 71.5875 105.763 71.5874C115.092 71.5874 122.625 77.7503 122.539 87.3364C122.625 95.8954 116.975 101.63 109.7 106.337C98.9159 112.928 92.7533 119.604 92.582 141.429V142.97H112.61V141.429C112.782 128.591 116.89 122.685 126.818 116.608C137.945 110.017 144.877 100.945 144.963 86.9936C144.877 66.6236 129.044 53.7848 105.935 53.7846Z" fill="white"/>
</g>
<defs>
<filter id="filter0_d_1007_17300" x="0.0175781" y="0.547852" width="211.523" height="237.518" filterUnits="userSpaceOnUse" color-interpolation-filters="sRGB">
<feFlood flood-opacity="0" result="BackgroundImageFix"/>
<feColorMatrix in="SourceAlpha" type="matrix" values="0 0 0 0 0 0 0 0 0 0 0 0 0 0 0 0 0 0 127 0" result="hardAlpha"/>
<feOffset dy="2"/>
<feGaussianBlur stdDeviation="1.5"/>
<feComposite in2="hardAlpha" operator="out"/>
<feColorMatrix type="matrix" values="0 0 0 0 0 0 0 0 0 0 0 0 0 0 0 0 0 0 0.2 0"/>
<feBlend mode="normal" in2="BackgroundImageFix" result="effect1_dropShadow_1007_17300"/>
<feBlend mode="normal" in="SourceGraphic" in2="effect1_dropShadow_1007_17300" result="shape"/>
</filter>
</defs>
</svg>
