<svg width="41" height="41" viewBox="0 0 41 41" fill="none" xmlns="http://www.w3.org/2000/svg">
<circle cx="20.1923" cy="20.1923" r="20.1923" fill="#D9D9D9"/>
<path fill-rule="evenodd" clip-rule="evenodd" d="M12 13.1429C12 12.5745 12.2258 12.0295 12.6276 11.6276C13.0295 11.2258 13.5745 11 14.1429 11H24.1429C24.7112 11 25.2562 11.2258 25.6581 11.6276C26.0599 12.0295 26.2857 12.5745 26.2857 13.1429V15.9129C25.7061 16.3771 25.33 17.0489 25.2371 17.7857H20.2143C19.7922 17.7857 19.3742 17.8689 18.9842 18.0304C18.5943 18.1919 18.2399 18.4287 17.9414 18.7272C17.643 19.0256 17.4062 19.38 17.2447 19.7699C17.0831 20.1599 17 20.5779 17 21C17 21.4221 17.0831 21.8401 17.2447 22.2301C17.4062 22.62 17.643 22.9744 17.9414 23.2728C18.2399 23.5713 18.5943 23.8081 18.9842 23.9696C19.3742 24.1311 19.7922 24.2143 20.2143 24.2143H25.2371C25.33 24.9511 25.7061 25.6229 26.2857 26.0871V28.8571C26.2857 29.4255 26.0599 29.9705 25.6581 30.3724C25.2562 30.7742 24.7112 31 24.1429 31H14.1429C13.5745 31 13.0295 30.7742 12.6276 30.3724C12.2258 29.9705 12 29.4255 12 28.8571V13.1429ZM27.6614 17.1529C27.4656 17.234 27.2983 17.3713 27.1805 17.5475C27.0628 17.7237 27 17.9309 27 18.1429V19.5714H20.2143C19.8354 19.5714 19.472 19.7219 19.2041 19.9898C18.9362 20.2578 18.7857 20.6211 18.7857 21C18.7857 21.3789 18.9362 21.7422 19.2041 22.0102C19.472 22.2781 19.8354 22.4286 20.2143 22.4286H27V23.8571C27.0002 24.0689 27.0631 24.2759 27.1809 24.4519C27.2986 24.6279 27.4659 24.7651 27.6615 24.8461C27.8572 24.9271 28.0725 24.9484 28.2802 24.9071C28.4879 24.8658 28.6787 24.7639 28.8286 24.6143L31.6857 21.7571C31.8864 21.5562 31.9991 21.2839 31.9991 21C31.9991 20.7161 31.8864 20.4438 31.6857 20.2429L28.8286 17.3857C28.6788 17.2359 28.488 17.1338 28.2803 17.0923C28.0726 17.0509 27.8572 17.0719 27.6614 17.1529Z" fill="#686868"/>
</svg>
