<svg width="41" height="41" viewBox="0 0 41 41" fill="none" xmlns="http://www.w3.org/2000/svg">
<circle cx="20.1923" cy="20.1923" r="20.1923" fill="#D9D9D9"/>
<path d="M27.405 15.3851H26.2031V12.9813C26.2031 9.66399 23.5108 6.97168 20.1935 6.97168C16.8762 6.97168 14.1839 9.66399 14.1839 12.9813V15.3851H12.982C11.6599 15.3851 10.5781 16.4669 10.5781 17.789V29.8082C10.5781 31.1303 11.6599 32.2121 12.982 32.2121H27.405C28.7272 32.2121 29.8089 31.1303 29.8089 29.8082V17.789C29.8089 16.4669 28.7272 15.3851 27.405 15.3851ZM20.1935 26.2024C18.8714 26.2024 17.7897 25.1207 17.7897 23.7986C17.7897 22.4765 18.8714 21.3948 20.1935 21.3948C21.5156 21.3948 22.5974 22.4765 22.5974 23.7986C22.5974 25.1207 21.5156 26.2024 20.1935 26.2024ZM16.5877 15.3851V12.9813C16.5877 10.9861 18.1983 9.37553 20.1935 9.37553C22.1887 9.37553 23.7993 10.9861 23.7993 12.9813V15.3851H16.5877Z" fill="#686868"/>
</svg>
