<svg width="41" height="41" viewBox="0 0 41 41" fill="none" xmlns="http://www.w3.org/2000/svg">
<circle cx="20.1923" cy="20.1923" r="20.1923" fill="#D9D9D9"/>
<path d="M25.6602 18.6299C27.525 18.6299 29.3134 19.3707 30.632 20.6893C31.9506 22.0079 32.6914 23.7963 32.6914 25.6611C32.6914 27.5259 31.9506 29.3144 30.632 30.633C29.3134 31.9516 27.525 32.6924 25.6602 32.6924C23.7954 32.6924 22.0069 31.9516 20.6883 30.633C19.3697 29.3144 18.6289 27.5259 18.6289 25.6611C18.6289 23.7963 19.3697 22.0079 20.6883 20.6893C22.0069 19.3707 23.7954 18.6299 25.6602 18.6299ZM25.6602 21.7549C25.453 21.7549 25.2542 21.8372 25.1077 21.9837C24.9612 22.1302 24.8789 22.3289 24.8789 22.5361V24.8799H22.5352C22.328 24.8799 22.1292 24.9622 21.9827 25.1087C21.8362 25.2552 21.7539 25.4539 21.7539 25.6611C21.7539 25.8683 21.8362 26.067 21.9827 26.2136C22.1292 26.3601 22.328 26.4424 22.5352 26.4424H24.8789V28.7861C24.8789 28.9933 24.9612 29.192 25.1077 29.3386C25.2542 29.4851 25.453 29.5674 25.6602 29.5674C25.8674 29.5674 26.0661 29.4851 26.2126 29.3386C26.3591 29.192 26.4414 28.9933 26.4414 28.7861V26.4424H28.7852C28.9924 26.4424 29.1911 26.3601 29.3376 26.2136C29.4841 26.067 29.5664 25.8683 29.5664 25.6611C29.5664 25.4539 29.4841 25.2552 29.3376 25.1087C29.1911 24.9622 28.9924 24.8799 28.7852 24.8799H26.4414V22.5361C26.4414 22.3289 26.3591 22.1302 26.2126 21.9837C26.0661 21.8372 25.8674 21.7549 25.6602 21.7549ZM19.032 20.1924C17.7593 21.7304 17.0641 23.6648 17.0664 25.6611C17.0664 26.4189 17.1633 27.1533 17.3477 27.8518C16.7385 27.9548 16.1217 28.006 15.5039 28.0049C13.668 28.0049 11.957 27.5799 10.6773 26.8018C9.39609 26.0205 8.47266 24.8252 8.47266 23.3174C8.47266 22.4886 8.8019 21.6937 9.38795 21.1077C9.974 20.5216 10.7689 20.1924 11.5977 20.1924H19.032ZM15.5039 10.0361C16.6435 10.0361 17.7364 10.4888 18.5423 11.2947C19.3481 12.1005 19.8008 13.1934 19.8008 14.333C19.8008 15.4726 19.3481 16.5655 18.5423 17.3714C17.7364 18.1772 16.6435 18.6299 15.5039 18.6299C14.3643 18.6299 13.2714 18.1772 12.4656 17.3714C11.6597 16.5655 11.207 15.4726 11.207 14.333C11.207 13.1934 11.6597 12.1005 12.4656 11.2947C13.2714 10.4888 14.3643 10.0361 15.5039 10.0361ZM25.6633 11.5939C26.1254 11.5935 26.583 11.6842 27.01 11.8608C27.437 12.0374 27.825 12.2964 28.1518 12.6231C28.4786 12.9498 28.7378 13.3376 28.9146 13.7646C29.0914 14.1915 29.1822 14.6491 29.182 15.1111C29.1818 15.9843 28.8552 16.8258 28.2664 17.4705C27.4236 17.2028 26.5445 17.0669 25.6602 17.0674C24.7764 17.0665 23.8979 17.202 23.0555 17.4689C22.6001 16.9639 22.3009 16.3378 22.1939 15.6663C22.0869 14.9947 22.1768 14.3066 22.4527 13.6851C22.7286 13.0636 23.1786 12.5353 23.7484 12.1642C24.3182 11.7931 24.9833 11.595 25.6633 11.5939Z" fill="#686868"/>
</svg>
