<svg width="41" height="41" viewBox="0 0 41 41" fill="none" xmlns="http://www.w3.org/2000/svg">
<circle cx="20.1923" cy="20.1923" r="20.1923" fill="#D9D9D9"/>
<path fill-rule="evenodd" clip-rule="evenodd" d="M24.8275 22.6752C24.5671 22.9366 24.2328 23.1118 23.8698 23.1771L19.5428 23.956C19.2587 24.0074 18.9663 23.9898 18.6904 23.9047C18.4144 23.8196 18.163 23.6694 17.9572 23.4669C17.7513 23.2643 17.5972 23.0153 17.5077 22.7407C17.4182 22.4662 17.3959 22.1741 17.4428 21.8892L18.164 17.5046C18.2252 17.1312 18.4023 16.7866 18.6702 16.5195L24.64 10.5771H14.1832C13.6094 10.5771 13.0592 10.8051 12.6534 11.2108C12.2477 11.6165 12.0198 12.1668 12.0198 12.7406V25.6046L10.615 29.8204C10.5742 29.9429 10.5671 30.0741 10.5944 30.2003C10.6217 30.3264 10.6823 30.443 10.77 30.5377C10.8576 30.6325 10.9691 30.702 11.0928 30.7389C11.2165 30.7759 11.3478 30.7789 11.4731 30.7478L17.1558 29.3272H28.6063C29.1801 29.3272 29.7304 29.0992 30.1361 28.6935C30.5418 28.2878 30.7698 27.7375 30.7698 27.1637V16.707L24.8275 22.6752ZM28.3452 10.6882C28.0804 10.5778 27.7887 10.5489 27.5074 10.6052C27.2261 10.6614 26.9679 10.8003 26.7659 11.0041L19.9438 17.7973L19.2226 22.182L23.5496 21.4031L30.3428 14.581C30.478 14.4469 30.5853 14.2874 30.6586 14.1116C30.7318 13.9359 30.7695 13.7474 30.7695 13.557C30.7695 13.3666 30.7318 13.178 30.6586 13.0023C30.5853 12.8265 30.478 12.667 30.3428 12.5329L28.814 11.0041C28.6802 10.8684 28.5209 10.7605 28.3452 10.6868" fill="#686868"/>
</svg>
