<svg width="41" height="41" viewBox="0 0 41 41" fill="none" xmlns="http://www.w3.org/2000/svg">
<circle cx="20.1923" cy="20.1923" r="20.1923" fill="#D9D9D9"/>
<path fill-rule="evenodd" clip-rule="evenodd" d="M28.25 11C29.9069 11 31.25 12.3431 31.25 14V25.5C31.25 27.1569 29.9069 28.5 28.25 28.5H26.7534C25.785 28.5 25 29.2851 25 30.2534C25 31.6479 23.4511 32.4844 22.2851 31.7197L18.1242 28.9913C17.6354 28.6708 17.0636 28.5 16.4791 28.5H11.75C10.0931 28.5 8.75 27.1569 8.75 25.5V14C8.75 12.3431 10.0931 11 11.75 11H28.25ZM20.0548 22.7813C19.6544 22.7813 19.3224 22.9119 19.0587 23.1731C18.795 23.4343 18.6632 23.7602 18.6632 24.1509C18.6632 24.5611 18.7926 24.898 19.0514 25.1616C19.3102 25.4253 19.6446 25.5571 20.0548 25.5571C20.4552 25.5571 20.786 25.4253 21.0472 25.1616C21.3085 24.898 21.4391 24.5684 21.4391 24.1729C21.4391 23.7725 21.3085 23.4404 21.0472 23.1768C20.786 22.9131 20.4551 22.7813 20.0548 22.7813ZM20.5968 14.8125C19.7422 14.8125 18.8891 14.987 18.0376 15.3358C17.6316 15.5021 17.4618 15.9721 17.625 16.3793C17.8177 16.8599 18.3877 17.0514 18.8663 16.8538C19.3833 16.6404 19.8454 16.5337 20.2525 16.5337C20.6334 16.5337 20.9349 16.6253 21.1571 16.8083C21.3793 16.9914 21.4903 17.2392 21.4903 17.5518C21.4903 17.8008 21.411 18.0181 21.2523 18.2036C21.1333 18.3428 20.9078 18.5341 20.576 18.7777L19.7902 19.3402C19.7229 19.39 19.6563 19.4408 19.5905 19.4926L19.4542 19.6063C19.3321 19.7161 19.2345 19.8418 19.1612 19.9834C19.0343 20.2275 18.9708 20.6596 18.9708 21.2798C18.9708 21.6358 19.2594 21.9243 19.6153 21.9243H20.8312C20.997 21.9243 21.1314 21.7899 21.1314 21.624C21.1314 21.1797 21.1876 20.8709 21.2999 20.6975C21.4122 20.5242 21.7125 20.2739 22.2008 19.9468L22.4315 19.7889C22.9484 19.4239 23.3159 19.0822 23.5338 18.7639C23.7828 18.4002 23.9073 17.9619 23.9073 17.4492C23.9073 16.6924 23.651 16.0771 23.1383 15.6035C22.5572 15.0762 21.7101 14.8125 20.5968 14.8125Z" fill="#686868"/>
</svg>
