<svg width="41" height="41" viewBox="0 0 41 41" fill="none" xmlns="http://www.w3.org/2000/svg">
<circle cx="20.1923" cy="20.1923" r="20.1923" fill="#D9D9D9"/>
<path d="M18.5657 10V21.5662H21.4343V10H18.5657ZM12.9285 12.9285C11.1188 14.7381 10 17.2386 10 20C10 25.5229 14.4771 30 20 30C25.5229 30 30 25.5229 30 20C30 17.2386 28.8812 14.7381 27.0715 12.9285L25.0574 14.9426C26.3517 16.2369 27.1521 18.0252 27.1521 20C27.1521 23.9497 23.9497 27.1521 20 27.1521C16.0503 27.1521 12.8479 23.9497 12.8479 20C12.8479 18.0252 13.6483 16.2369 14.9426 14.9426L12.9285 12.9285Z" fill="#686868"/>
</svg>
