<svg width="41" height="41" viewBox="0 0 41 41" fill="none" xmlns="http://www.w3.org/2000/svg">
<circle cx="20.1923" cy="20.1923" r="20.1923" fill="#D9D9D9"/>
<path d="M16.6028 17.9668C15.9362 17.9668 15.3935 18.5119 15.3935 19.1832C15.3935 19.8545 15.9362 20.3995 16.6028 20.3995C17.2695 20.3995 17.8121 19.8545 17.8121 19.1832C17.8121 18.5119 17.2695 17.9668 16.6028 17.9668ZM29.5848 12.0957H10.1235C9.70949 12.0957 9.375 12.4302 9.375 12.8442V27.8145C9.375 28.2285 9.70949 28.563 10.1235 28.563H29.5848C29.9988 28.563 30.3333 28.2285 30.3333 27.8145V12.8442C30.3333 12.4302 29.9988 12.0957 29.5848 12.0957ZM22.0997 18.1774C22.0997 18.0744 22.1231 17.9902 22.1535 17.9902H25.04C25.0704 17.9902 25.0938 18.0744 25.0938 18.1774V19.3001C25.0938 19.4031 25.0704 19.4873 25.04 19.4873H22.1535C22.1231 19.4873 22.0997 19.4031 22.0997 19.3001V18.1774ZM20.0881 24.0953H19.0612C18.963 24.0953 18.8834 24.0181 18.8764 23.9199C18.7875 22.7386 17.8004 21.803 16.6028 21.803C15.4052 21.803 14.4181 22.7386 14.3292 23.9199C14.3222 24.0181 14.2427 24.0953 14.1444 24.0953H13.1176C13.0922 24.0953 13.0671 24.0902 13.0437 24.0802C13.0204 24.0702 12.9993 24.0556 12.9818 24.0372C12.9643 24.0188 12.9507 23.9971 12.9419 23.9733C12.9331 23.9495 12.9292 23.9241 12.9304 23.8988C12.9959 22.6521 13.6789 21.5667 14.6754 20.9492C14.236 20.4662 13.9932 19.8362 13.9947 19.1832C13.9947 17.7353 15.1619 16.5634 16.6005 16.5634C18.039 16.5634 19.2062 17.7353 19.2062 19.1832C19.2062 19.8639 18.9489 20.4814 18.5256 20.9492C19.5244 21.5691 20.205 22.6521 20.2705 23.8988C20.2799 24.0064 20.1957 24.0953 20.0881 24.0953ZM26.6118 22.8556H22.2658C22.1746 22.8556 22.0997 22.7714 22.0997 22.6684V21.5457C22.0997 21.4427 22.1746 21.3585 22.2658 21.3585H26.6095C26.7007 21.3585 26.7756 21.4427 26.7756 21.5457V22.6684H26.7779C26.7779 22.7714 26.7031 22.8556 26.6118 22.8556Z" fill="#686868"/>
</svg>
