<svg width="41" height="41" viewBox="0 0 41 41" fill="none" xmlns="http://www.w3.org/2000/svg">
<circle cx="20.1923" cy="20.1923" r="20.1923" fill="#D9D9D9"/>
<path fill-rule="evenodd" clip-rule="evenodd" d="M26.7552 10.0859C27.3077 10.0859 27.8376 10.3054 28.2283 10.6961C28.619 11.0868 28.8385 11.6167 28.8385 12.1693V22.5859H22.0677C21.6533 22.5859 21.2559 22.7506 20.9629 23.0436C20.6698 23.3366 20.5052 23.734 20.5052 24.1484V30.9193H14.2552C13.7027 30.9193 13.1728 30.6998 12.7821 30.3091C12.3914 29.9184 12.1719 29.3885 12.1719 28.8359V12.1693C12.1719 11.6167 12.3914 11.0868 12.7821 10.6961C13.1728 10.3054 13.7027 10.0859 14.2552 10.0859H26.7552ZM28.7938 24.6693C28.71 25.0639 28.5135 25.4258 28.2281 25.7109L23.6302 30.3089C23.3451 30.5943 22.9832 30.7908 22.5885 30.8745V24.6693H28.7938ZM18.4219 19.4609H17.3802C17.1039 19.4609 16.839 19.5707 16.6436 19.766C16.4483 19.9614 16.3385 20.2263 16.3385 20.5026C16.3385 20.7789 16.4483 21.0438 16.6436 21.2392C16.839 21.4345 17.1039 21.5443 17.3802 21.5443H18.4219C18.6981 21.5443 18.9631 21.4345 19.1584 21.2392C19.3538 21.0438 19.4635 20.7789 19.4635 20.5026C19.4635 20.2263 19.3538 19.9614 19.1584 19.766C18.9631 19.5707 18.6981 19.4609 18.4219 19.4609ZM23.6302 15.2943H17.3802C17.1039 15.2943 16.839 15.404 16.6436 15.5994C16.4483 15.7947 16.3385 16.0597 16.3385 16.3359C16.3385 16.6122 16.4483 16.8772 16.6436 17.0725C16.839 17.2679 17.1039 17.3776 17.3802 17.3776H23.6302C23.9065 17.3776 24.1714 17.2679 24.3668 17.0725C24.5621 16.8772 24.6719 16.6122 24.6719 16.3359C24.6719 16.0597 24.5621 15.7947 24.3668 15.5994C24.1714 15.404 23.9065 15.2943 23.6302 15.2943Z" fill="#686868"/>
</svg>
